<svg xmlns="http://www.w3.org/2000/svg" width="1em" height="1em" viewBox="0 0 32 32"><g fill="none"><path fill="url(#f215id8)" d="M13 4c0-1.1-.787-1.919-1.937-2.062c-1.188-.149-1.954.562-2.547 1.64c-.313.568-.82.766-1.383.578c-1.06-.353-2.054-.914-3.055.227c-.726.828-.618 1.781 0 2.695c.36.531.388 1.427-.219 1.774c-.875.5-1.843 1.048-1.843 2.148c0 1.594 1.212 2.375 2.312 2.375L13 13z"/><path fill="url(#f215id0)" d="M13 4c0-1.1-.787-1.919-1.937-2.062c-1.188-.149-1.954.562-2.547 1.64c-.313.568-.82.766-1.383.578c-1.06-.353-2.054-.914-3.055.227c-.726.828-.618 1.781 0 2.695c.36.531.388 1.427-.219 1.774c-.875.5-1.843 1.048-1.843 2.148c0 1.594 1.212 2.375 2.312 2.375L13 13z"/><path fill="url(#f215id1)" d="M13 4c0-1.1-.787-1.919-1.937-2.062c-1.188-.149-1.954.562-2.547 1.64c-.313.568-.82.766-1.383.578c-1.06-.353-2.054-.914-3.055.227c-.726.828-.618 1.781 0 2.695c.36.531.388 1.427-.219 1.774c-.875.5-1.843 1.048-1.843 2.148c0 1.594 1.212 2.375 2.312 2.375L13 13z"/><path fill="url(#f215id2)" d="M16 26c5.523 0 10-4.477 10-10S21.523 6 16 6S6 10.477 6 16s4.477 10 10 10"/><path fill="url(#f215id3)" d="M16 26c5.523 0 10-4.477 10-10S21.523 6 16 6S6 10.477 6 16s4.477 10 10 10"/><path fill="url(#f215id4)" d="M16 26c5.523 0 10-4.477 10-10S21.523 6 16 6S6 10.477 6 16s4.477 10 10 10"/><path fill="url(#f215id9)" d="M13.234 13.016c3.267-3.343 9.782-4.782 12.391.254c-.238-.793-.86-2.73-2.61-4.395c-3.5-2.89-9.173-.924-12.421 2.719c-2.13 2.39-5.024 8.11-.977 12.105c.844.656 2.227 1.785 4.555 2.13c-7.188-3.142-3.825-9.858-.938-12.813"/><path fill="#c62561" d="M19.11 24.172c-3.907-.172-3.84-3.94-1.829-6.195c3.358-3.766 7.008-1.961 6.938 1.093h.962c1.254-4.393-1.79-6.078-4.244-6.078c-3.578 0-6.78 3.117-7.71 6.469c-.79 3.18 1 6.914 5.882 5.664z"/><path fill="url(#f215id5)" d="M19.11 24.172c-3.907-.172-3.84-3.94-1.829-6.195c3.358-3.766 7.008-1.961 6.938 1.093h.962c1.254-4.393-1.79-6.078-4.244-6.078c-3.578 0-6.78 3.117-7.71 6.469c-.79 3.18 1 6.914 5.882 5.664z"/><path fill="url(#f215ida)" d="M19 28c0 1.1.9 2 2 2s2-.9 2-2c0-.8.97-1.2 1.54-.64l.05.05c.78.78 2.05.78 2.83 0c.78-.78.78-2.05 0-2.83l-.05-.05C26.8 23.97 27.2 23 28 23c1.1 0 2-.9 2-2s-.9-2-2-2h-5.5c-1.93 0-3.5 1.57-3.5 3.5z"/><path fill="#a72d36" d="M8.852 9.004c-2.638 2.637-2.97 5.8-2.813 7.863c0 0-.08-3.952 3.258-7.289c3.337-3.337 7.125-3.562 7.125-3.562c-2.11-.118-4.933.35-7.57 2.988"/><g filter="url(#f215idb)"><path fill="#e75372" d="M26.664 24.055c.473-.051-.055-.774.547-1.914c-.727.507-1.02 1.965-.547 1.914"/></g><g filter="url(#f215idc)"><path fill="url(#f215id6)" d="M27.72 25.372c.263.45.195 1.47-.758 1.891c-1.238.431-.01-1.08.758-1.89"/></g><g filter="url(#f215idd)"><path fill="url(#f215id7)" d="M29.516 19.969c.323.474.609 1.566-.766 2.193c-.825.376-.057-1.196.766-2.193"/></g><defs><radialGradient id="f215id0" cx="0" cy="0" r="1" gradientTransform="rotate(123.69 1.006 7.734)scale(5.18298 4.96914)" gradientUnits="userSpaceOnUse"><stop stop-color="#951731"/><stop offset="1" stop-color="#9d1934" stop-opacity="0"/></radialGradient><radialGradient id="f215id1" cx="0" cy="0" r="1" gradientTransform="matrix(0 5.0625 -1.3908 0 13.219 4.406)" gradientUnits="userSpaceOnUse"><stop stop-color="#ec516b"/><stop offset="1" stop-color="#eb506c" stop-opacity="0"/></radialGradient><radialGradient id="f215id2" cx="0" cy="0" r="1" gradientTransform="rotate(161.633 9.951 7.67)scale(16.6613)" gradientUnits="userSpaceOnUse"><stop stop-color="#ffd95a"/><stop offset=".423" stop-color="#eeb53d"/><stop offset=".788" stop-color="#ca8631"/><stop offset="1" stop-color="#b28341"/></radialGradient><radialGradient id="f215id3" cx="0" cy="0" r="1" gradientTransform="matrix(-2.06255 7.74999 -13.25898 -3.52868 15.625 26.688)" gradientUnits="userSpaceOnUse"><stop stop-color="#cd7677"/><stop offset="1" stop-color="#ce7a85" stop-opacity="0"/></radialGradient><radialGradient id="f215id4" cx="0" cy="0" r="1" gradientTransform="rotate(151.844 7.265 13.547)scale(5.03309 3.80247)" gradientUnits="userSpaceOnUse"><stop stop-color="#cf771e"/><stop offset="1" stop-color="#c96d2e" stop-opacity="0"/></radialGradient><radialGradient id="f215id5" cx="0" cy="0" r="1" gradientTransform="matrix(2.125 7 -7.02563 2.13278 21.625 12.563)" gradientUnits="userSpaceOnUse"><stop offset=".342" stop-color="#f25271"/><stop offset="1" stop-color="#f15372" stop-opacity="0"/></radialGradient><radialGradient id="f215id6" cx="0" cy="0" r="1" gradientTransform="rotate(118.896 6.207 21.297)scale(1.8218 1.06121)" gradientUnits="userSpaceOnUse"><stop stop-color="#ed5372"/><stop offset="1" stop-color="#ed5372" stop-opacity="0"/></radialGradient><radialGradient id="f215id7" cx="0" cy="0" r="1" gradientTransform="matrix(-.86098 1.48437 -.80769 -.46848 29.784 21.204)" gradientUnits="userSpaceOnUse"><stop stop-color="#ed5372"/><stop offset="1" stop-color="#ed5372" stop-opacity="0"/></radialGradient><linearGradient id="f215id8" x1="2.016" x2="13" y1="7.646" y2="7.646" gradientUnits="userSpaceOnUse"><stop stop-color="#aa1c3d"/><stop offset="1" stop-color="#c31d45"/></linearGradient><linearGradient id="f215id9" x1="24.063" x2="9.688" y1="9.813" y2="23.875" gradientUnits="userSpaceOnUse"><stop stop-color="#f54353"/><stop offset=".485" stop-color="#c01c47"/><stop offset="1" stop-color="#c2355a"/></linearGradient><linearGradient id="f215ida" x1="20.313" x2="27.5" y1="20.313" y2="27.75" gradientUnits="userSpaceOnUse"><stop stop-color="#bf242e"/><stop offset="1" stop-color="#cf1e51"/></linearGradient><filter id="f215idb" width="1.577" height="2.715" x="26.034" y="21.741" color-interpolation-filters="sRGB" filterUnits="userSpaceOnUse"><feFlood flood-opacity="0" result="BackgroundImageFix"/><feBlend in="SourceGraphic" in2="BackgroundImageFix" result="shape"/><feGaussianBlur result="effect1_foregroundBlur_18_32303" stdDeviation=".2"/></filter><filter id="f215idc" width="1.918" height="2.466" x="26.184" y="25.122" color-interpolation-filters="sRGB" filterUnits="userSpaceOnUse"><feFlood flood-opacity="0" result="BackgroundImageFix"/><feBlend in="SourceGraphic" in2="BackgroundImageFix" result="shape"/><feGaussianBlur result="effect1_foregroundBlur_18_32303" stdDeviation=".125"/></filter><filter id="f215idd" width="2.187" height="3.05" x="27.996" y="19.569" color-interpolation-filters="sRGB" filterUnits="userSpaceOnUse"><feFlood flood-opacity="0" result="BackgroundImageFix"/><feBlend in="SourceGraphic" in2="BackgroundImageFix" result="shape"/><feGaussianBlur result="effect1_foregroundBlur_18_32303" stdDeviation=".2"/></filter></defs></g></svg>