<svg xmlns="http://www.w3.org/2000/svg" width="1em" height="1em" viewBox="0 0 32 32"><g fill="none"><path fill="#ff8c4c" d="m4.691 29.774l16.51-4.886c4.729-1.398 6.318-7.41 2.924-10.982l-5.269-5.544c-3.394-3.572-9.382-2.177-11.02 2.463L2.119 27.066c-.572 1.619.927 3.197 2.573 2.708"/><path fill="url(#f225id8)" d="m4.691 29.774l16.51-4.886c4.729-1.398 6.318-7.41 2.924-10.982l-5.269-5.544c-3.394-3.572-9.382-2.177-11.02 2.463L2.119 27.066c-.572 1.619.927 3.197 2.573 2.708"/><path fill="url(#f225id9)" d="m4.691 29.774l16.51-4.886c4.729-1.398 6.318-7.41 2.924-10.982l-5.269-5.544c-3.394-3.572-9.382-2.177-11.02 2.463L2.119 27.066c-.572 1.619.927 3.197 2.573 2.708"/><path fill="url(#f225id0)" d="m4.691 29.774l16.51-4.886c4.729-1.398 6.318-7.41 2.924-10.982l-5.269-5.544c-3.394-3.572-9.382-2.177-11.02 2.463L2.119 27.066c-.572 1.619.927 3.197 2.573 2.708"/><path fill="url(#f225id1)" d="m4.691 29.774l16.51-4.886c4.729-1.398 6.318-7.41 2.924-10.982l-5.269-5.544c-3.394-3.572-9.382-2.177-11.02 2.463L2.119 27.066c-.572 1.619.927 3.197 2.573 2.708"/><path fill="url(#f225ida)" d="M13.006 19.082a1.312 1.312 0 0 0 .047-1.85L7.6 11.496l-.975 2.763l4.53 4.766a1.303 1.303 0 0 0 1.85.057" opacity="0.5"/><path fill="url(#f225idb)" d="M8.955 23.713a1.312 1.312 0 0 0-.047 1.851l2.199 2.314l2.81-.834l-3.121-3.284a1.3 1.3 0 0 0-1.84-.047" opacity="0.5"/><path fill="url(#f225idc)" d="M17.098 16.887a1.312 1.312 0 0 0-.047 1.851l5.38 5.662a6.446 6.446 0 0 0 2.02-1.666l-5.502-5.79a1.303 1.303 0 0 0-1.85-.057" opacity="0.5"/><path fill="#aad248" d="M18.132 3.02c-1.792 1.468-1.301 3.516-.616 4.283a518.299 518.299 0 0 0 3.75 3.744c.381.26.655.208.887.161c.172-.035.327-.168.454-.38c.106-.177.006-3.01.24-5.589c.175-1.923-2.675-3.891-4.715-2.22"/><path fill="url(#f225id2)" d="M18.132 3.02c-1.792 1.468-1.301 3.516-.616 4.283a518.299 518.299 0 0 0 3.75 3.744c.381.26.655.208.887.161c.172-.035.327-.168.454-.38c.106-.177.006-3.01.24-5.589c.175-1.923-2.675-3.891-4.715-2.22"/><path fill="url(#f225id3)" d="M18.132 3.02c-1.792 1.468-1.301 3.516-.616 4.283a518.299 518.299 0 0 0 3.75 3.744c.381.26.655.208.887.161c.172-.035.327-.168.454-.38c.106-.177.006-3.01.24-5.589c.175-1.923-2.675-3.891-4.715-2.22"/><path fill="#aad248" d="M29.312 14.437c-1.51 1.757-3.546 1.22-4.296.516a1112.93 1112.93 0 0 0-3.328-3.422c-.25-.387-.194-.66-.141-.89c.039-.172.175-.324.39-.446c.18-.101 2.683-.35 5.266-.523c1.927-.13 3.828 2.765 2.11 4.765"/><path fill="url(#f225id4)" d="M29.312 14.437c-1.51 1.757-3.546 1.22-4.296.516a1112.93 1112.93 0 0 0-3.328-3.422c-.25-.387-.194-.66-.141-.89c.039-.172.175-.324.39-.446c.18-.101 2.683-.35 5.266-.523c1.927-.13 3.828 2.765 2.11 4.765"/><path fill="url(#f225id5)" d="M29.312 14.437c-1.51 1.757-3.546 1.22-4.296.516a1112.93 1112.93 0 0 0-3.328-3.422c-.25-.387-.194-.66-.141-.89c.039-.172.175-.324.39-.446c.18-.101 2.683-.35 5.266-.523c1.927-.13 3.828 2.765 2.11 4.765"/><path fill="url(#f225idd)" d="M29.312 14.437c-1.51 1.757-3.546 1.22-4.296.516a1112.93 1112.93 0 0 0-3.328-3.422c-.25-.387-.194-.66-.141-.89c.039-.172.175-.324.39-.446c.18-.101 2.683-.35 5.266-.523c1.927-.13 3.828 2.765 2.11 4.765"/><path fill="#aad248" d="M28.094 3.766c2.533 1.856 1.218 5.5-.891 5.906c-1.505.29-5.07.437-5.07.437s.288-3.583.695-4.797c.984-2.937 3.688-2.703 5.266-1.546"/><path fill="url(#f225id6)" d="M28.094 3.766c2.533 1.856 1.218 5.5-.891 5.906c-1.505.29-5.07.437-5.07.437s.288-3.583.695-4.797c.984-2.937 3.688-2.703 5.266-1.546"/><path fill="url(#f225id7)" d="M28.094 3.766c2.533 1.856 1.218 5.5-.891 5.906c-1.505.29-5.07.437-5.07.437s.288-3.583.695-4.797c.984-2.937 3.688-2.703 5.266-1.546"/><defs><radialGradient id="f225id0" cx="0" cy="0" r="1" gradientTransform="matrix(-5 5.75001 -11.56102 -10.05303 21.625 14.875)" gradientUnits="userSpaceOnUse"><stop stop-color="#ffd769"/><stop offset=".53" stop-color="#ffa427"/><stop offset="1" stop-color="#fca328" stop-opacity="0"/></radialGradient><radialGradient id="f225id1" cx="0" cy="0" r="1" gradientTransform="rotate(139.81 -.109 13.566)scale(22.663 22.6004)" gradientUnits="userSpaceOnUse"><stop offset=".053" stop-color="#ff9243" stop-opacity="0"/><stop offset=".773" stop-color="#f28b3a" stop-opacity="0"/><stop offset=".849" stop-color="#cb751f"/></radialGradient><radialGradient id="f225id2" cx="0" cy="0" r="1" gradientTransform="matrix(-2.125 1.12499 -1.05603 -1.99475 21.313 4.625)" gradientUnits="userSpaceOnUse"><stop stop-color="#c1f26b"/><stop offset="1" stop-color="#bcef62" stop-opacity="0"/></radialGradient><radialGradient id="f225id3" cx="0" cy="0" r="1" gradientTransform="matrix(-4.91602 .81252 -1.14761 -6.94343 21.688 6.25)" gradientUnits="userSpaceOnUse"><stop stop-color="#afdc52" stop-opacity="0"/><stop offset=".713" stop-color="#8bc028"/><stop offset="1" stop-color="#81aa56"/></radialGradient><radialGradient id="f225id4" cx="0" cy="0" r="1" gradientTransform="rotate(139.268 12.038 11.153)scale(2.96924 2.78724)" gradientUnits="userSpaceOnUse"><stop stop-color="#c1f26b"/><stop offset="1" stop-color="#bcef62" stop-opacity="0"/></radialGradient><radialGradient id="f225id5" cx="0" cy="0" r="1" gradientTransform="matrix(1.03086 4.5 -11.77996 2.69856 25.782 11.563)" gradientUnits="userSpaceOnUse"><stop stop-color="#a7d029" stop-opacity="0"/><stop offset="1" stop-color="#b3ba74"/></radialGradient><radialGradient id="f225id6" cx="0" cy="0" r="1" gradientTransform="matrix(-1.0336 2.55837 -1.9571 -.79068 27.545 4.857)" gradientUnits="userSpaceOnUse"><stop stop-color="#c1f26b"/><stop offset="1" stop-color="#bcef62" stop-opacity="0"/></radialGradient><radialGradient id="f225id7" cx="0" cy="0" r="1" gradientTransform="matrix(-7.87498 7.87498 -3.78308 -3.78308 27.126 5.938)" gradientUnits="userSpaceOnUse"><stop stop-color="#afdc52" stop-opacity="0"/><stop offset=".847" stop-color="#6fb909"/></radialGradient><linearGradient id="f225id8" x1="-2.5" x2="11.563" y1="12.5" y2="20.313" gradientUnits="userSpaceOnUse"><stop offset=".541" stop-color="#b3734c"/><stop offset=".769" stop-color="#ea842a"/><stop offset="1" stop-color="#fd9434"/></linearGradient><linearGradient id="f225id9" x1="20.5" x2="15.063" y1="32.375" y2="18.563" gradientUnits="userSpaceOnUse"><stop offset=".404" stop-color="#ff7cb4"/><stop offset="1" stop-color="#ff717b" stop-opacity="0"/></linearGradient><linearGradient id="f225ida" x1="7.188" x2="12.938" y1="13.688" y2="19.125" gradientUnits="userSpaceOnUse"><stop offset=".1" stop-color="#6e482a"/><stop offset="1" stop-color="#ac5e3b"/></linearGradient><linearGradient id="f225idb" x1="8.947" x2="11.585" y1="24.012" y2="28.797" gradientUnits="userSpaceOnUse"><stop offset=".1" stop-color="#9e5044"/><stop offset="1" stop-color="#c95d82"/></linearGradient><linearGradient id="f225idc" x1="17.25" x2="22.278" y1="17.688" y2="24.414" gradientUnits="userSpaceOnUse"><stop offset=".1" stop-color="#aa6147"/><stop offset="1" stop-color="#cb747c"/></linearGradient><linearGradient id="f225idd" x1="27.719" x2="27.625" y1="9.125" y2="10.688" gradientUnits="userSpaceOnUse"><stop offset=".276" stop-color="#8ace17"/><stop offset="1" stop-color="#91d212" stop-opacity="0"/></linearGradient></defs></g></svg>