<svg xmlns="http://www.w3.org/2000/svg" width="1em" height="1em" viewBox="0 0 32 32"><g fill="none"><path fill="url(#f241id0)" d="M19.702 3.259C9.847 5.12 7.508 13.87 7.594 17.164l1.867-.059c.172-3.19 1.368-5.759 2.97-7.66l.006-.007c.493-.585.834-.99 1.333-.223l5.918 9.094l1.671-.894l-6.05-9.318c-.493-.765-.325-.964.277-1.36a11.718 11.718 0 0 1 2.419-1.134c.694-.224.862.128.935.302c1.76 4.226 3.826 5.872 5.004 6.356c1.83.692 3.193.927 5.623.1c.234-.08.316-.345.129-.647c0 0-1.64-2.567-3.236-5.421c0 0-1.822-3.807-6.758-3.034"/><g filter="url(#f241id6)"><path stroke="url(#f241ida)" stroke-width="0.5" d="M8.438 17.743s0-10.207 10.1-13.232"/></g><g filter="url(#f241id7)"><path fill="url(#f241idb)" d="M21.23 18.638a.25.25 0 0 0 .42-.273zM14.807 7.863a.25.25 0 1 0-.419.273zm6.844 10.502L14.806 7.864l-.419.272l6.844 10.502z"/></g><g filter="url(#f241id8)"><path fill="url(#f241id1)" d="M14.597 5.281c1.422-.85 3.116-1.519 5.126-1.899c2.43-.38 4.084.366 5.131 1.202c.526.419.9.861 1.143 1.2a5.035 5.035 0 0 1 .346.554l.004.007v.002l.004.007a118.793 118.793 0 0 0 3.166 5.311l.055.087l.018.029c.081.13.094.239.077.312a.203.203 0 0 1-.14.15c-1.205.41-2.137.554-2.99.513c-.854-.041-1.638-.268-2.547-.612c-1.138-.467-3.184-2.082-4.935-6.287a.71.71 0 0 0-.286-.36c-.18-.106-.436-.131-.803-.013c-.196.065-.395.137-.595.216c-.608.242-1.232.551-1.85.93l-.004.002l-.002.001z"/></g><path fill="url(#f241id2)" d="M8.5 30a6.5 6.5 0 1 0 0-13a6.5 6.5 0 0 0 0 13"/><path fill="url(#f241id3)" d="M8.5 30a6.5 6.5 0 1 0 0-13a6.5 6.5 0 0 0 0 13"/><path fill="url(#f241id4)" d="M23.53 30a6.5 6.5 0 1 0 0-13a6.5 6.5 0 0 0 0 13"/><path fill="url(#f241id5)" d="M23.53 30a6.5 6.5 0 1 0 0-13a6.5 6.5 0 0 0 0 13"/><g filter="url(#f241id9)"><path fill="url(#f241idc)" fill-opacity="0.2" d="M24.52 5.014c-1.538-1.436-2.664-.902-3.096-.531c-.433.37-1.516 2.512 1.213 5.198c2.729 2.686 5.969 1.982 5.969 1.982S26.059 6.45 24.52 5.014"/></g><defs><radialGradient id="f241id0" cx="0" cy="0" r="1" gradientTransform="rotate(149.036 12.273 6.493)scale(21.9358 32.3879)" gradientUnits="userSpaceOnUse"><stop stop-color="#86bc09"/><stop offset="1" stop-color="#79b024"/></radialGradient><radialGradient id="f241id1" cx="0" cy="0" r="1" gradientTransform="rotate(118.501 14.538 10.522)scale(9.85467 14.5503)" gradientUnits="userSpaceOnUse"><stop offset=".492" stop-color="#b8ff2c"/><stop offset="1" stop-color="#a7dc3e" stop-opacity="0"/></radialGradient><radialGradient id="f241id2" cx="0" cy="0" r="1" gradientTransform="rotate(134.7 .642 12.912)scale(9.09441)" gradientUnits="userSpaceOnUse"><stop stop-color="#ff7495"/><stop offset=".505" stop-color="#ff1d61"/><stop offset="1" stop-color="#cf1d75"/></radialGradient><radialGradient id="f241id3" cx="0" cy="0" r="1" gradientTransform="rotate(34.38 -32.276 12.79)scale(10.8514)" gradientUnits="userSpaceOnUse"><stop stop-color="#902429"/><stop offset="1" stop-color="#d11146" stop-opacity="0"/></radialGradient><radialGradient id="f241id4" cx="0" cy="0" r="1" gradientTransform="rotate(134.7 8.157 16.048)scale(9.09441)" gradientUnits="userSpaceOnUse"><stop stop-color="#ff7495"/><stop offset=".505" stop-color="#ff1d61"/><stop offset="1" stop-color="#cf1d75"/></radialGradient><radialGradient id="f241id5" cx="0" cy="0" r="1" gradientTransform="rotate(34.38 -24.761 37.082)scale(10.8514)" gradientUnits="userSpaceOnUse"><stop stop-color="#902429"/><stop offset="1" stop-color="#d11146" stop-opacity="0"/></radialGradient><filter id="f241id6" width="11.621" height="14.672" x="7.588" y="3.671" color-interpolation-filters="sRGB" filterUnits="userSpaceOnUse"><feFlood flood-opacity="0" result="BackgroundImageFix"/><feBlend in="SourceGraphic" in2="BackgroundImageFix" result="shape"/><feGaussianBlur result="effect1_foregroundBlur_18_32153" stdDeviation=".3"/></filter><filter id="f241id7" width="8.344" height="12.002" x="13.847" y="7.25" color-interpolation-filters="sRGB" filterUnits="userSpaceOnUse"><feFlood flood-opacity="0" result="BackgroundImageFix"/><feBlend in="SourceGraphic" in2="BackgroundImageFix" result="shape"/><feGaussianBlur result="effect1_foregroundBlur_18_32153" stdDeviation=".25"/></filter><filter id="f241id8" width="15.477" height="9.882" x="14.397" y="3.08" color-interpolation-filters="sRGB" filterUnits="userSpaceOnUse"><feFlood flood-opacity="0" result="BackgroundImageFix"/><feBlend in="SourceGraphic" in2="BackgroundImageFix" result="shape"/><feGaussianBlur result="effect1_foregroundBlur_18_32153" stdDeviation=".1"/></filter><filter id="f241id9" width="9.161" height="9.075" x="20.144" y="3.371" color-interpolation-filters="sRGB" filterUnits="userSpaceOnUse"><feFlood flood-opacity="0" result="BackgroundImageFix"/><feBlend in="SourceGraphic" in2="BackgroundImageFix" result="shape"/><feGaussianBlur result="effect1_foregroundBlur_18_32153" stdDeviation=".35"/></filter><linearGradient id="f241ida" x1="18.538" x2="8.438" y1="4.187" y2="17.149" gradientUnits="userSpaceOnUse"><stop stop-color="#a7d050" stop-opacity="0"/><stop offset=".526" stop-color="#a7d050" stop-opacity="0.75"/></linearGradient><linearGradient id="f241idb" x1="14.597" x2="21.076" y1="8" y2="17.905" gradientUnits="userSpaceOnUse"><stop stop-color="#a7d050" stop-opacity="0"/><stop offset=".276" stop-color="#a7d050" stop-opacity="0.6"/></linearGradient><linearGradient id="f241idc" x1="25.937" x2="22.102" y1="5.429" y2="9.534" gradientUnits="userSpaceOnUse"><stop stop-color="#bdf45b"/><stop offset=".833" stop-color="#bdf45b" stop-opacity="0"/></linearGradient></defs></g></svg>