<svg xmlns="http://www.w3.org/2000/svg" width="1em" height="1em" viewBox="0 0 32 32"><g fill="none"><rect width="24" height="22" x="3.969" y="5" fill="url(#f394id0)" rx="4"/><rect width="24" height="22" x="3.969" y="5" fill="url(#f394id1)" rx="4"/><rect width="24" height="22" x="3.969" y="5" fill="url(#f394id2)" rx="4"/><rect width="24" height="22" x="3.969" y="5" fill="url(#f394id3)" rx="4"/><rect width="24" height="22" x="3.969" y="5" fill="url(#f394id4)" rx="4"/><rect width="24" height="22" x="3.969" y="5" fill="url(#f394idq)" rx="4"/><rect width="24" height="22" x="3.969" y="5" fill="url(#f394idr)" rx="4"/><rect width="24" height="22" x="3.969" y="5" fill="url(#f394ids)" rx="4"/><rect width="24" height="22" x="3.969" y="5" fill="url(#f394idt)" rx="4"/><rect width="24" height="22" x="3.969" y="5" fill="url(#f394id5)" rx="4"/><g filter="url(#f394id13)"><path fill="url(#f394id6)" fill-opacity="0.75" d="M24.688 10.319h2.218v12.047a1.11 1.11 0 0 1-2.219 0z"/></g><g filter="url(#f394id14)"><path fill="#d89475" d="m26.219 21.475l-6.747-13.96a1.25 1.25 0 0 1 1.216-1.79l2.338.17a4.5 4.5 0 0 1 4.157 4.891z"/></g><path fill="url(#f394idu)" d="M24.031 21.844c0-4.475-4.312-5.875-8-5.875c-4.125 0-8.062 1.562-8.062 5.875c0 3.95 4.312 7.343 8.062 7.343c4.5 0 8-4.656 8-7.343"/><path fill="url(#f394idv)" d="M24.031 21.844c0-4.475-4.312-5.875-8-5.875c-4.125 0-8.062 1.562-8.062 5.875c0 3.95 4.312 7.343 8.062 7.343c4.5 0 8-4.656 8-7.343"/><path fill="url(#f394idw)" d="M24.031 21.844c0-4.475-4.312-5.875-8-5.875c-4.125 0-8.062 1.562-8.062 5.875c0 3.95 4.312 7.343 8.062 7.343c4.5 0 8-4.656 8-7.343"/><g filter="url(#f394id15)"><path fill="url(#f394id7)" d="m12.96 24.656l3.009-2.25l3.008 2.25V27c0 1.657-1.351 3-3.008 3a3.007 3.007 0 0 1-3.008-3z"/></g><g filter="url(#f394id16)"><path fill="url(#f394id8)" d="M15.594 22.406v7.422c2.567-.125 3.219-2.265 3.219-3.094V24.47c-1.891-.375-2.934-1.532-3.22-2.063"/></g><g filter="url(#f394id17)"><path fill="#bd1836" d="m16.623 22.896l-.654-.49l-.669.5c-.394.983-1.216 1.167-1.937 1.315v.89c.96-.093 2.021-.453 2.6-1.59c.583 1.14 1.65 1.5 2.611 1.59v-.888c-.726-.145-1.557-.333-1.95-1.327"/></g><path fill="url(#f394idx)" d="M12.5 23.984a.5.5 0 1 0 0 1zm3.969-3.468a.5.5 0 0 0-1 0zM12.5 24.984c1.709 0 3.969-1.484 3.969-4.468h-1c0 2.39-1.771 3.468-2.969 3.468z"/><path fill="url(#f394id9)" d="M12.5 23.984a.5.5 0 1 0 0 1zm3.969-3.468a.5.5 0 0 0-1 0zM12.5 24.984c1.709 0 3.969-1.484 3.969-4.468h-1c0 2.39-1.771 3.468-2.969 3.468z"/><path stroke="url(#f394idy)" stroke-linecap="round" d="M19.426 24.484c-1.453 0-3.469-1.28-3.469-3.968"/><path stroke="url(#f394ida)" stroke-linecap="round" d="M19.426 24.484c-1.453 0-3.469-1.28-3.469-3.968"/><path fill="url(#f394idz)" d="M16.474 20.516a.5.5 0 0 0-.5-.5h-.011a.5.5 0 0 0-.5.5c0 .082.002.163.005.243c-.116 2.221-1.806 3.225-2.962 3.225a.5.5 0 1 0 0 1c1.21 0 2.699-.746 3.463-2.242c.764 1.496 2.252 2.242 3.463 2.242a.5.5 0 0 0 0-1c-1.156 0-2.847-1.004-2.963-3.225a5.75 5.75 0 0 0 .005-.243"/><path fill="url(#f394idb)" d="m4.395 16.362l7.3-10.295a1.25 1.25 0 0 0-1.02-1.973h-4.05a4.5 4.5 0 0 0-4.5 4.5v7.045c0 1.218 1.565 1.717 2.27.723"/><path fill="url(#f394idc)" d="m4.395 16.362l7.3-10.295a1.25 1.25 0 0 0-1.02-1.973h-4.05a4.5 4.5 0 0 0-4.5 4.5v7.045c0 1.218 1.565 1.717 2.27.723"/><path fill="url(#f394idd)" d="m4.395 16.362l7.3-10.295a1.25 1.25 0 0 0-1.02-1.973h-4.05a4.5 4.5 0 0 0-4.5 4.5v7.045c0 1.218 1.565 1.717 2.27.723"/><path fill="url(#f394ide)" d="m4.395 16.362l7.3-10.295a1.25 1.25 0 0 0-1.02-1.973h-4.05a4.5 4.5 0 0 0-4.5 4.5v7.045c0 1.218 1.565 1.717 2.27.723"/><path fill="url(#f394id10)" d="m4.395 16.362l7.3-10.295a1.25 1.25 0 0 0-1.02-1.973h-4.05a4.5 4.5 0 0 0-4.5 4.5v7.045c0 1.218 1.565 1.717 2.27.723"/><path fill="url(#f394idf)" d="m27.512 16.362l-7.3-10.295a1.25 1.25 0 0 1 1.02-1.973h4.05a4.5 4.5 0 0 1 4.5 4.5v7.045c0 1.218-1.566 1.717-2.27.723"/><path fill="url(#f394idg)" d="m27.512 16.362l-7.3-10.295a1.25 1.25 0 0 1 1.02-1.973h4.05a4.5 4.5 0 0 1 4.5 4.5v7.045c0 1.218-1.566 1.717-2.27.723"/><path fill="url(#f394idh)" d="m27.512 16.362l-7.3-10.295a1.25 1.25 0 0 1 1.02-1.973h4.05a4.5 4.5 0 0 1 4.5 4.5v7.045c0 1.218-1.566 1.717-2.27.723"/><path fill="url(#f394id11)" d="m27.512 16.362l-7.3-10.295a1.25 1.25 0 0 1 1.02-1.973h4.05a4.5 4.5 0 0 1 4.5 4.5v7.045c0 1.218-1.566 1.717-2.27.723"/><g filter="url(#f394id18)"><rect width="1.477" height="2.977" x="11.761" y="12.229" fill="#dc9868" rx=".738"/></g><rect width="1.477" height="2.977" x="12.227" y="12.01" fill="url(#f394idi)" rx=".738"/><rect width="1.477" height="2.977" x="12.227" y="12.01" fill="url(#f394idj)" rx=".738"/><g filter="url(#f394id19)"><path stroke="#725f62" stroke-linecap="round" stroke-width="0.2" d="M13.221 12.463v1.594"/></g><rect width="1.477" height="2.977" x="18.211" y="12.01" fill="url(#f394idk)" rx=".738"/><rect width="1.477" height="2.977" x="18.211" y="12.01" fill="url(#f394idl)" rx=".738"/><g filter="url(#f394id1a)"><path stroke="#725f62" stroke-linecap="round" stroke-width="0.2" d="M19.205 12.463v1.594"/></g><path fill="url(#f394idm)" d="M16.97 16.998h-1.907a.8.8 0 0 0-.617 1.31l.675.816a1.2 1.2 0 0 0 1.883-.043l.605-.801a.8.8 0 0 0-.64-1.282"/><path fill="url(#f394id12)" d="M16.97 16.998h-1.907a.8.8 0 0 0-.617 1.31l.675.816a1.2 1.2 0 0 0 1.883-.043l.605-.801a.8.8 0 0 0-.64-1.282"/><path fill="url(#f394idn)" d="M16.97 16.998h-1.907a.8.8 0 0 0-.617 1.31l.675.816a1.2 1.2 0 0 0 1.883-.043l.605-.801a.8.8 0 0 0-.64-1.282"/><g filter="url(#f394id1b)"><ellipse cx="17.112" cy="17.647" fill="#786366" rx=".216" ry=".37" transform="rotate(-41.998 17.112 17.647)"/></g><g filter="url(#f394id1c)"><path stroke="url(#f394ido)" stroke-width="0.2" d="M28.875 7.287v8.25"/></g><g filter="url(#f394id1d)"><path stroke="url(#f394idp)" stroke-width="0.2" d="M11.281 5.475L7.703 10.63"/></g><defs><linearGradient id="f394id0" x1="15.969" x2="15.969" y1="6.037" y2="31.443" gradientUnits="userSpaceOnUse"><stop stop-color="#f7c5a1"/><stop offset="1" stop-color="#e28454"/></linearGradient><linearGradient id="f394id1" x1="2.844" x2="7.656" y1="27" y2="27" gradientUnits="userSpaceOnUse"><stop stop-color="#bd8465"/><stop offset="1" stop-color="#bd8465" stop-opacity="0"/></linearGradient><linearGradient id="f394id2" x1="31.781" x2="24.156" y1="27" y2="27" gradientUnits="userSpaceOnUse"><stop stop-color="#ffc390"/><stop offset="1" stop-color="#ffc390" stop-opacity="0"/></linearGradient><linearGradient id="f394id3" x1="15.969" x2="15.969" y1="21.287" y2="31.475" gradientUnits="userSpaceOnUse"><stop stop-color="#89254f" stop-opacity="0"/><stop offset="1" stop-color="#98335e"/></linearGradient><linearGradient id="f394id4" x1="15.969" x2="15.969" y1="26.537" y2="27.319" gradientUnits="userSpaceOnUse"><stop stop-color="#e273a2" stop-opacity="0"/><stop offset="1" stop-color="#e273a2"/></linearGradient><linearGradient id="f394id5" x1="15.171" x2="15.171" y1="3.733" y2="6.415" gradientUnits="userSpaceOnUse"><stop stop-color="#ffe0c6"/><stop offset="1" stop-color="#ffc390" stop-opacity="0"/></linearGradient><linearGradient id="f394id6" x1="27.375" x2="27.775" y1="21.723" y2="4.745" gradientUnits="userSpaceOnUse"><stop stop-color="#ffc390"/><stop offset="1" stop-color="#ffc390" stop-opacity="0"/></linearGradient><linearGradient id="f394id7" x1="14.219" x2="14.219" y1="21.225" y2="28.412" gradientUnits="userSpaceOnUse"><stop stop-color="#b41d4e"/><stop offset="1" stop-color="#c9297c"/></linearGradient><linearGradient id="f394id8" x1="20.253" x2="15.594" y1="29.594" y2="29.693" gradientUnits="userSpaceOnUse"><stop offset=".438" stop-color="#f26d9e"/><stop offset=".948" stop-color="#ef6a9a" stop-opacity="0"/></linearGradient><linearGradient id="f394id9" x1="12.5" x2="14.345" y1="24.256" y2="23.838" gradientUnits="userSpaceOnUse"><stop stop-color="#4a3435"/><stop offset="1" stop-color="#473132" stop-opacity="0"/></linearGradient><linearGradient id="f394ida" x1="16.156" x2="16.596" y1="19.522" y2="21.124" gradientUnits="userSpaceOnUse"><stop stop-color="#65484a"/><stop offset="1" stop-color="#65484a" stop-opacity="0"/></linearGradient><linearGradient id="f394idb" x1="7.609" x2="2.813" y1="4.094" y2="15.6" gradientUnits="userSpaceOnUse"><stop stop-color="#9f6c5b"/><stop offset="1" stop-color="#683c44"/></linearGradient><linearGradient id="f394idc" x1=".719" x2="4.406" y1="11.35" y2="11.35" gradientUnits="userSpaceOnUse"><stop stop-color="#5f333b"/><stop offset="1" stop-color="#683c44" stop-opacity="0"/></linearGradient><linearGradient id="f394idd" x1="7.969" x2="6.875" y1="12.537" y2="11.694" gradientUnits="userSpaceOnUse"><stop offset=".208" stop-color="#5f333b"/><stop offset="1" stop-color="#683c44" stop-opacity="0"/></linearGradient><linearGradient id="f394ide" x1="3.75" x2="5.063" y1="18.35" y2="12.662" gradientUnits="userSpaceOnUse"><stop stop-color="#50212a"/><stop offset="1" stop-color="#683c44" stop-opacity="0"/></linearGradient><linearGradient id="f394idf" x1="24.297" x2="29.094" y1="4.094" y2="15.6" gradientUnits="userSpaceOnUse"><stop stop-color="#9f6c5b"/><stop offset="1" stop-color="#683c44"/></linearGradient><linearGradient id="f394idg" x1="22.719" x2="25.969" y1="13.537" y2="11.35" gradientUnits="userSpaceOnUse"><stop stop-color="#5f333b"/><stop offset="1" stop-color="#683c44" stop-opacity="0"/></linearGradient><linearGradient id="f394idh" x1="28.156" x2="26.844" y1="18.35" y2="12.662" gradientUnits="userSpaceOnUse"><stop stop-color="#50212a"/><stop offset="1" stop-color="#683c44" stop-opacity="0"/></linearGradient><linearGradient id="f394idi" x1="14.202" x2="11.995" y1="13.498" y2="13.498" gradientUnits="userSpaceOnUse"><stop offset=".006" stop-color="#5f5254"/><stop offset="1" stop-color="#2e2127"/></linearGradient><linearGradient id="f394idj" x1="11.995" x2="11.995" y1="15.092" y2="14.254" gradientUnits="userSpaceOnUse"><stop offset=".006" stop-color="#34222c"/><stop offset="1" stop-color="#34222c" stop-opacity="0"/></linearGradient><linearGradient id="f394idk" x1="20.186" x2="17.98" y1="13.498" y2="13.498" gradientUnits="userSpaceOnUse"><stop offset=".006" stop-color="#5f5254"/><stop offset="1" stop-color="#2e2127"/></linearGradient><linearGradient id="f394idl" x1="17.98" x2="17.98" y1="15.092" y2="14.254" gradientUnits="userSpaceOnUse"><stop offset=".006" stop-color="#34222c"/><stop offset="1" stop-color="#34222c" stop-opacity="0"/></linearGradient><linearGradient id="f394idm" x1="17.406" x2="14.469" y1="16.725" y2="19.662" gradientUnits="userSpaceOnUse"><stop offset=".191" stop-color="#5f5254"/><stop offset="1" stop-color="#2e2127"/></linearGradient><linearGradient id="f394idn" x1="16.375" x2="16.375" y1="18.147" y2="16.428" gradientUnits="userSpaceOnUse"><stop offset=".147" stop-color="#34222c" stop-opacity="0"/><stop offset=".873" stop-color="#34222c"/></linearGradient><linearGradient id="f394ido" x1="30.75" x2="30.75" y1="8.881" y2="16.381" gradientUnits="userSpaceOnUse"><stop stop-color="#b3887f"/><stop offset="1" stop-color="#b3887f" stop-opacity="0"/></linearGradient><linearGradient id="f394idp" x1="11.266" x2="7.391" y1="6.459" y2="12.209" gradientUnits="userSpaceOnUse"><stop stop-color="#d3b4ae"/><stop offset="1" stop-color="#d3b4ae" stop-opacity="0"/></linearGradient><radialGradient id="f394idq" cx="0" cy="0" r="1" gradientTransform="matrix(1.93745 7.8125 -6.98186 1.73146 2.032 12.163)" gradientUnits="userSpaceOnUse"><stop stop-color="#bd8465"/><stop offset="1" stop-color="#bd8465" stop-opacity="0"/></radialGradient><radialGradient id="f394idr" cx="0" cy="0" r="1" gradientTransform="matrix(-10.8125 0 0 -8.28742 15.969 23.037)" gradientUnits="userSpaceOnUse"><stop stop-color="#ad5c30"/><stop offset="1" stop-color="#ad5c30" stop-opacity="0"/></radialGradient><radialGradient id="f394ids" cx="0" cy="0" r="1" gradientTransform="rotate(87.745 -5.404 20.051)scale(7.94365 6.9459)" gradientUnits="userSpaceOnUse"><stop stop-color="#ad5c30"/><stop offset="1" stop-color="#ad5c30" stop-opacity="0"/></radialGradient><radialGradient id="f394idt" cx="0" cy="0" r="1" gradientTransform="matrix(2.70183 7.73596 -17.76422 6.20428 12.469 5)" gradientUnits="userSpaceOnUse"><stop stop-color="#ffd6b3"/><stop offset="1" stop-color="#ffc390" stop-opacity="0"/></radialGradient><radialGradient id="f394idu" cx="0" cy="0" r="1" gradientTransform="matrix(0 11.625 -24.0312 0 16 18.537)" gradientUnits="userSpaceOnUse"><stop stop-color="#ffe3b6"/><stop offset=".318" stop-color="#f5c19b"/><stop offset=".896" stop-color="#be625b"/></radialGradient><radialGradient id="f394idv" cx="0" cy="0" r="1" gradientTransform="matrix(-10.49999 8.6251 -8.8256 -10.74409 18.469 19.975)" gradientUnits="userSpaceOnUse"><stop offset=".595" stop-color="#be625b" stop-opacity="0"/><stop offset="1" stop-color="#be625b"/></radialGradient><radialGradient id="f394idw" cx="0" cy="0" r="1" gradientTransform="matrix(-3.0625 4.25 -5.54527 -3.99585 23.094 16.975)" gradientUnits="userSpaceOnUse"><stop stop-color="#ffe9be"/><stop offset="1" stop-color="#ffe9be" stop-opacity="0"/></radialGradient><radialGradient id="f394idx" cx="0" cy="0" r="1" gradientTransform="matrix(1.125 1.25 -2.83974 2.55574 14.235 22.756)" gradientUnits="userSpaceOnUse"><stop stop-color="#261317"/><stop offset=".653" stop-color="#65484a"/><stop offset="1" stop-color="#3c1534"/></radialGradient><radialGradient id="f394idy" cx="0" cy="0" r="1" gradientTransform="rotate(132.556 3.954 15.215)scale(1.81361 4.34755)" gradientUnits="userSpaceOnUse"><stop stop-color="#261317"/><stop offset=".508" stop-color="#65484a"/><stop offset=".902" stop-color="#3c1534"/></radialGradient><radialGradient id="f394idz" cx="0" cy="0" r="1" gradientTransform="matrix(-2.625 2.71874 -1.36643 -1.31931 14.75 21.178)" gradientUnits="userSpaceOnUse"><stop stop-color="#392930"/><stop offset="1" stop-color="#392930" stop-opacity="0"/></radialGradient><radialGradient id="f394id10" cx="0" cy="0" r="1" gradientTransform="rotate(125.218 5.357 3.394)scale(9.10379 9.64599)" gradientUnits="userSpaceOnUse"><stop stop-color="#bf867c"/><stop offset="1" stop-color="#bf867c" stop-opacity="0"/></radialGradient><radialGradient id="f394id11" cx="0" cy="0" r="1" gradientTransform="rotate(-173.904 16.768 4.453)scale(6.47411 6.85969)" gradientUnits="userSpaceOnUse"><stop stop-color="#bf867c"/><stop offset="1" stop-color="#bf867c" stop-opacity="0"/></radialGradient><radialGradient id="f394id12" cx="0" cy="0" r="1" gradientTransform="rotate(135.864 4.598 12.128)scale(2.19891 4.04729)" gradientUnits="userSpaceOnUse"><stop offset=".463" stop-color="#34222c" stop-opacity="0"/><stop offset=".956" stop-color="#34222c"/></radialGradient><filter id="f394id13" width="7.219" height="18.156" x="22.188" y="7.819" color-interpolation-filters="sRGB" filterUnits="userSpaceOnUse"><feFlood flood-opacity="0" result="BackgroundImageFix"/><feBlend in="SourceGraphic" in2="BackgroundImageFix" result="shape"/><feGaussianBlur result="effect1_foregroundBlur_28327_1654" stdDeviation="1.25"/></filter><filter id="f394id14" width="11.855" height="19.753" x="17.346" y="3.721" color-interpolation-filters="sRGB" filterUnits="userSpaceOnUse"><feFlood flood-opacity="0" result="BackgroundImageFix"/><feBlend in="SourceGraphic" in2="BackgroundImageFix" result="shape"/><feGaussianBlur result="effect1_foregroundBlur_28327_1654" stdDeviation="1"/></filter><filter id="f394id15" width="6.016" height="8.094" x="12.961" y="21.906" color-interpolation-filters="sRGB" filterUnits="userSpaceOnUse"><feFlood flood-opacity="0" result="BackgroundImageFix"/><feBlend in="SourceGraphic" in2="BackgroundImageFix" result="shape"/><feColorMatrix in="SourceAlpha" result="hardAlpha" values="0 0 0 0 0 0 0 0 0 0 0 0 0 0 0 0 0 0 127 0"/><feOffset dy="-.5"/><feGaussianBlur stdDeviation=".25"/><feComposite in2="hardAlpha" k2="-1" k3="1" operator="arithmetic"/><feColorMatrix values="0 0 0 0 0.841667 0 0 0 0 0.164826 0 0 0 0 0.552771 0 0 0 1 0"/><feBlend in2="shape" result="effect1_innerShadow_28327_1654"/></filter><filter id="f394id16" width="4.019" height="8.222" x="15.194" y="22.006" color-interpolation-filters="sRGB" filterUnits="userSpaceOnUse"><feFlood flood-opacity="0" result="BackgroundImageFix"/><feBlend in="SourceGraphic" in2="BackgroundImageFix" result="shape"/><feGaussianBlur result="effect1_foregroundBlur_28327_1654" stdDeviation=".2"/></filter><filter id="f394id17" width="6.211" height="3.705" x="12.863" y="21.906" color-interpolation-filters="sRGB" filterUnits="userSpaceOnUse"><feFlood flood-opacity="0" result="BackgroundImageFix"/><feBlend in="SourceGraphic" in2="BackgroundImageFix" result="shape"/><feGaussianBlur result="effect1_foregroundBlur_28327_1654" stdDeviation=".25"/></filter><filter id="f394id18" width="3.077" height="4.577" x="10.961" y="11.428" color-interpolation-filters="sRGB" filterUnits="userSpaceOnUse"><feFlood flood-opacity="0" result="BackgroundImageFix"/><feBlend in="SourceGraphic" in2="BackgroundImageFix" result="shape"/><feGaussianBlur result="effect1_foregroundBlur_28327_1654" stdDeviation=".4"/></filter><filter id="f394id19" width=".8" height="2.393" x="12.821" y="12.063" color-interpolation-filters="sRGB" filterUnits="userSpaceOnUse"><feFlood flood-opacity="0" result="BackgroundImageFix"/><feBlend in="SourceGraphic" in2="BackgroundImageFix" result="shape"/><feGaussianBlur result="effect1_foregroundBlur_28327_1654" stdDeviation=".15"/></filter><filter id="f394id1a" width=".8" height="2.393" x="18.805" y="12.063" color-interpolation-filters="sRGB" filterUnits="userSpaceOnUse"><feFlood flood-opacity="0" result="BackgroundImageFix"/><feBlend in="SourceGraphic" in2="BackgroundImageFix" result="shape"/><feGaussianBlur result="effect1_foregroundBlur_28327_1654" stdDeviation=".15"/></filter><filter id="f394id1b" width="1.591" height="1.622" x="16.317" y="16.836" color-interpolation-filters="sRGB" filterUnits="userSpaceOnUse"><feFlood flood-opacity="0" result="BackgroundImageFix"/><feBlend in="SourceGraphic" in2="BackgroundImageFix" result="shape"/><feGaussianBlur result="effect1_foregroundBlur_28327_1654" stdDeviation=".25"/></filter><filter id="f394id1c" width="1.7" height="9.75" x="28.025" y="6.537" color-interpolation-filters="sRGB" filterUnits="userSpaceOnUse"><feFlood flood-opacity="0" result="BackgroundImageFix"/><feBlend in="SourceGraphic" in2="BackgroundImageFix" result="shape"/><feGaussianBlur result="effect1_foregroundBlur_28327_1654" stdDeviation=".375"/></filter><filter id="f394id1d" width="4.742" height="6.271" x="7.121" y="4.918" color-interpolation-filters="sRGB" filterUnits="userSpaceOnUse"><feFlood flood-opacity="0" result="BackgroundImageFix"/><feBlend in="SourceGraphic" in2="BackgroundImageFix" result="shape"/><feGaussianBlur result="effect1_foregroundBlur_28327_1654" stdDeviation=".25"/></filter></defs></g></svg>