<svg xmlns="http://www.w3.org/2000/svg" width="1em" height="1em" viewBox="0 0 32 32"><g fill="none"><path fill="url(#f427ide)" d="m12.159 23.92l2.43 1.38c.82.47 1.84.37 2.55-.25c.38-.33.64-.78.73-1.28c.17-.93-.27-1.86-1.08-2.33l-2.43-1.38"/><rect width="5.967" height="9.039" x="8.209" y="20.466" fill="#226523" rx="2.983" transform="rotate(39.69 8.209 20.466)"/><rect width="5.967" height="9.039" x="8.209" y="20.466" fill="url(#f427id0)" rx="2.983" transform="rotate(39.69 8.209 20.466)"/><rect width="10.171" height="5.865" x="7.506" y="15.512" fill="#985b00" rx="2.932" transform="rotate(39.148 7.506 15.512)"/><path fill="#c07f00" d="M8.77 12.423A2.932 2.932 0 0 1 12.894 12l3.025 2.463a2.932 2.932 0 0 1 .423 4.125l-.214.263a2.933 2.933 0 0 1-4.125.423L8.978 16.81a2.932 2.932 0 0 1-.422-4.126z"/><path fill="url(#f427id1)" d="M8.77 12.423A2.932 2.932 0 0 1 12.894 12l3.025 2.463a2.932 2.932 0 0 1 .423 4.125l-.214.263a2.933 2.933 0 0 1-4.125.423L8.978 16.81a2.932 2.932 0 0 1-.422-4.126z"/><path fill="#cba21c" d="M6.951 18.872a2.932 2.932 0 0 1 4.126-.423l3.34 2.719a2.933 2.933 0 0 1-3.703 4.548l-3.34-2.718a2.932 2.932 0 0 1-.423-4.126"/><path fill="url(#f427idf)" d="M6.951 18.872a2.932 2.932 0 0 1 4.126-.423l3.34 2.719a2.933 2.933 0 0 1-3.703 4.548l-3.34-2.718a2.932 2.932 0 0 1-.423-4.126"/><path fill="#dfbb38" d="M13.551 16.35a2.933 2.933 0 0 1 4.126-.423l2.979 2.425a2.932 2.932 0 0 1 .422 4.126l-.15.183a2.932 2.932 0 0 1-4.125.423l-2.979-2.424a2.932 2.932 0 0 1-.422-4.126z"/><path fill="#c68401" d="M16.917 4.124a2.836 2.836 0 0 1 3.99-.409l3.101 2.524a2.836 2.836 0 0 1-3.581 4.4l-3.101-2.524a2.836 2.836 0 0 1-.409-3.99"/><path fill="url(#f427id2)" d="M16.917 4.124a2.836 2.836 0 0 1 3.99-.409l3.101 2.524a2.836 2.836 0 0 1-3.581 4.4l-3.101-2.524a2.836 2.836 0 0 1-.409-3.99"/><path fill="#c07f00" d="M12.548 7.84a2.932 2.932 0 0 1 4.126-.422l2.951 2.403a2.932 2.932 0 0 1 .423 4.125l-.158.194a2.932 2.932 0 0 1-4.125.423l-2.952-2.403a2.933 2.933 0 0 1-.423-4.125z"/><path fill="url(#f427id3)" d="M12.548 7.84a2.932 2.932 0 0 1 4.126-.422l2.951 2.403a2.932 2.932 0 0 1 .423 4.125l-.158.194a2.932 2.932 0 0 1-4.125.423l-2.952-2.403a2.933 2.933 0 0 1-.423-4.125z"/><path fill="#e29300" d="M20.098 6.81a2.854 2.854 0 0 1 4.015-.412L27.186 8.9a2.854 2.854 0 0 1-3.604 4.427l-3.073-2.502a2.854 2.854 0 0 1-.411-4.015"/><path fill="url(#f427id4)" d="M20.098 6.81a2.854 2.854 0 0 1 4.015-.412L27.186 8.9a2.854 2.854 0 0 1-3.604 4.427l-3.073-2.502a2.854 2.854 0 0 1-.411-4.015"/><path fill="#e29300" d="M17.113 11.731a2.932 2.932 0 0 1 4.126-.423l2.965 2.414a2.932 2.932 0 0 1 .423 4.126l-.066.081a2.932 2.932 0 0 1-4.126.423l-2.965-2.414a2.933 2.933 0 0 1-.423-4.125z"/><path fill="url(#f427id5)" d="M17.113 11.731a2.932 2.932 0 0 1 4.126-.423l2.965 2.414a2.932 2.932 0 0 1 .423 4.126l-.066.081a2.932 2.932 0 0 1-4.126.423l-2.965-2.414a2.933 2.933 0 0 1-.423-4.125z"/><path fill="#cba21c" d="M10.88 14.202a2.932 2.932 0 0 1 4.125-.423l2.979 2.425a2.932 2.932 0 0 1 .423 4.125l-.15.184a2.933 2.933 0 0 1-4.125.423l-2.98-2.425a2.932 2.932 0 0 1-.422-4.125z"/><path fill="url(#f427idg)" d="M10.88 14.202a2.932 2.932 0 0 1 4.125-.423l2.979 2.425a2.932 2.932 0 0 1 .423 4.125l-.15.184a2.933 2.933 0 0 1-4.125.423l-2.98-2.425a2.932 2.932 0 0 1-.422-4.125z"/><path fill="#cba21c" d="M14.688 9.705a2.932 2.932 0 0 1 4.125-.423l2.952 2.403a2.932 2.932 0 0 1 .423 4.125l-.075.093a2.933 2.933 0 0 1-4.126.423l-2.952-2.403a2.932 2.932 0 0 1-.422-4.126z"/><path fill="url(#f427idh)" d="M14.688 9.705a2.932 2.932 0 0 1 4.125-.423l2.952 2.403a2.932 2.932 0 0 1 .423 4.125l-.075.093a2.933 2.933 0 0 1-4.126.423l-2.952-2.403a2.932 2.932 0 0 1-.422-4.126z"/><path fill="#cba21c" d="M18.343 5.325a2.854 2.854 0 0 1 4.016-.411l3.073 2.501a2.854 2.854 0 0 1-3.604 4.427l-3.073-2.501a2.854 2.854 0 0 1-.412-4.016"/><path fill="url(#f427idi)" d="M18.343 5.325a2.854 2.854 0 0 1 4.016-.411l3.073 2.501a2.854 2.854 0 0 1-3.604 4.427l-3.073-2.501a2.854 2.854 0 0 1-.412-4.016"/><path fill="#d98d00" d="M22 2.675c.57-.7 1.601-.806 2.302-.236l.908.739a1.636 1.636 0 1 1-2.066 2.538l-.908-.74a1.636 1.636 0 0 1-.236-2.3"/><path fill="url(#f427id6)" d="M22 2.675c.57-.7 1.601-.806 2.302-.236l.908.739a1.636 1.636 0 1 1-2.066 2.538l-.908-.74a1.636 1.636 0 0 1-.236-2.3"/><rect width="4.697" height="3.272" x="25.408" y="3.359" fill="#f7a001" rx="1.636" transform="rotate(39.148 25.408 3.36)"/><rect width="4.697" height="3.272" x="25.408" y="3.359" fill="url(#f427id7)" rx="1.636" transform="rotate(39.148 25.408 3.36)"/><path fill="#f3bb30" d="M28.078 4.072c0 .439-.138.845-.374 1.178c-2.079.984-3.79-.242-3.141-2.585a2.04 2.04 0 0 1 3.515 1.407"/><path fill="url(#f427id8)" d="M28.078 4.072c0 .439-.138.845-.374 1.178c-2.079.984-3.79-.242-3.141-2.585a2.04 2.04 0 0 1 3.515 1.407"/><rect width="4.443" height="3.272" x="24.167" y="2.328" fill="#cba21c" rx="1.636" transform="rotate(39.148 24.167 2.328)"/><rect width="4.443" height="3.272" x="24.167" y="2.328" fill="url(#f427idj)" rx="1.636" transform="rotate(39.148 24.167 2.328)"/><g filter="url(#f427idr)"><path fill="url(#f427idk)" d="M13.448 13.807c.784.146 4.465 3.309 4.802 3.753c.336.444-.103 1.647-.103 1.647l-6.145-4.943s.66-.603 1.446-.457"/></g><g filter="url(#f427ids)"><path fill="url(#f427idl)" d="M17.19 9.315c.786.146 4.466 3.309 4.803 3.753c.336.444-.102 1.647-.102 1.647l-6.146-4.943s.66-.602 1.446-.457"/></g><g filter="url(#f427idt)"><path fill="url(#f427idm)" d="M20.844 5.075c.772.1 4.454 3.014 4.794 3.434c.34.42-.058 1.632-.058 1.632l-6.138-4.533s.63-.633 1.402-.533"/></g><g filter="url(#f427idu)"><path fill="url(#f427idn)" d="M24.533 3.199c.397-.063 1.89 1.21 2.003 1.425c.113.215-.198 1.133-.198 1.133l-2.75-2.078s.549-.418.945-.48"/></g><path fill="#1b7c1e" d="M8.25 10.5c-1.016-.078-1.29 1.42-2.984 4.516c-1.694 3.095-2 7.968 1.048 11.037l2.358-3.881c2.906-5.14.594-11.594-.422-11.672"/><path fill="url(#f427id9)" d="M8.25 10.5c-1.016-.078-1.29 1.42-2.984 4.516c-1.694 3.095-2 7.968 1.048 11.037l2.358-3.881c2.906-5.14.594-11.594-.422-11.672"/><path fill="url(#f427ida)" d="M8.25 10.5c-1.016-.078-1.29 1.42-2.984 4.516c-1.694 3.095-2 7.968 1.048 11.037l2.358-3.881c2.906-5.14.594-11.594-.422-11.672"/><g filter="url(#f427idv)"><path fill="url(#f427ido)" d="M5.144 24.746c4.708-4.565 4.906-11.342 3.176-13.834c.123 3.48-.02 4.998-.4 6.867c-.47 2.306-2.776 6.967-2.776 6.967"/></g><path fill="url(#f427idp)" d="M26.938 22.766c-.012-1.786-7.579-6.5-12.641-3.782c-5.063 2.72-9.326 4.17-9.203 5.328c.29 2.746 7.937 6.516 12.89 3.547c4.953-2.968 8.965-3.308 8.953-5.093"/><path fill="url(#f427idb)" d="M26.938 22.766c-.012-1.786-7.579-6.5-12.641-3.782c-5.063 2.72-9.326 4.17-9.203 5.328c.29 2.746 7.937 6.516 12.89 3.547c4.953-2.968 8.965-3.308 8.953-5.093"/><path fill="url(#f427idc)" d="M26.938 22.766c-.012-1.786-7.579-6.5-12.641-3.782c-5.063 2.72-9.326 4.17-9.203 5.328c.29 2.746 7.937 6.516 12.89 3.547c4.953-2.968 8.965-3.308 8.953-5.093"/><path fill="url(#f427idd)" d="M26.938 22.766c-.012-1.786-7.579-6.5-12.641-3.782c-5.063 2.72-9.326 4.17-9.203 5.328c.29 2.746 7.937 6.516 12.89 3.547c4.953-2.968 8.965-3.308 8.953-5.093"/><g filter="url(#f427idw)"><path fill="url(#f427idq)" d="M20.344 21.563c2.937-.22 4.938.593 6.14 1.093c-5.541 0-9.015.969-11.817 1.657c-1.077.264-.624-1.247-.233-1.47c.623-.353 2.972-1.062 5.91-1.28"/></g><defs><radialGradient id="f427id0" cx="0" cy="0" r="1" gradientTransform="rotate(161.622 5.41 14.261)scale(6.10496 4.02993)" gradientUnits="userSpaceOnUse"><stop offset=".093" stop-color="#467f82"/><stop offset=".543" stop-color="#1c6d4c"/><stop offset="1" stop-color="#1e7249" stop-opacity="0"/></radialGradient><radialGradient id="f427id1" cx="0" cy="0" r="1" gradientTransform="matrix(.59373 5.34376 -7.36519 .81833 10.532 12.781)" gradientUnits="userSpaceOnUse"><stop stop-color="#f0bf2c"/><stop offset=".732" stop-color="#925600"/><stop offset=".915" stop-color="#955800"/></radialGradient><radialGradient id="f427id2" cx="0" cy="0" r="1" gradientTransform="matrix(-.03125 4.625 -6.43788 -.0435 19.063 4)" gradientUnits="userSpaceOnUse"><stop stop-color="#fcc62f"/><stop offset="1" stop-color="#f6c130" stop-opacity="0"/></radialGradient><radialGradient id="f427id3" cx="0" cy="0" r="1" gradientTransform="matrix(.15625 4.4375 -6.12074 .21552 14.531 8.375)" gradientUnits="userSpaceOnUse"><stop stop-color="#f0bf2c"/><stop offset="1" stop-color="#f6c130" stop-opacity="0"/></radialGradient><radialGradient id="f427id4" cx="0" cy="0" r="1" gradientTransform="rotate(154.455 12.553 8.398)scale(4.71046 5.38951)" gradientUnits="userSpaceOnUse"><stop stop-color="#ffed56"/><stop offset="1" stop-color="#ffe558" stop-opacity="0"/></radialGradient><radialGradient id="f427id5" cx="0" cy="0" r="1" gradientTransform="rotate(133.783 8.483 12.929)scale(4.51634 6.07486)" gradientUnits="userSpaceOnUse"><stop stop-color="#ffe352"/><stop offset=".877" stop-color="#ffe558" stop-opacity="0"/></radialGradient><radialGradient id="f427id6" cx="0" cy="0" r="1" gradientTransform="rotate(100.421 10.633 11)scale(2.76434 3.75305)" gradientUnits="userSpaceOnUse"><stop stop-color="#fcc62f"/><stop offset="1" stop-color="#f6c130" stop-opacity="0"/></radialGradient><radialGradient id="f427id7" cx="0" cy="0" r="1" gradientTransform="matrix(-.84266 2.03385 -2.91957 -1.20962 28.84 4.114)" gradientUnits="userSpaceOnUse"><stop stop-color="#ffe558"/><stop offset="1" stop-color="#ffe558" stop-opacity="0"/></radialGradient><radialGradient id="f427id8" cx="0" cy="0" r="1" gradientTransform="rotate(155.4 13.443 4.633)scale(2.85266 2.92947)" gradientUnits="userSpaceOnUse"><stop stop-color="#ffea55"/><stop offset=".924" stop-color="#ffeb56" stop-opacity="0"/></radialGradient><radialGradient id="f427id9" cx="0" cy="0" r="1" gradientTransform="matrix(-.3125 10.49995 -3.47431 -.1034 8.188 13.063)" gradientUnits="userSpaceOnUse"><stop offset=".037" stop-color="#20cc21"/><stop offset="1" stop-color="#56c857" stop-opacity="0"/></radialGradient><radialGradient id="f427ida" cx="0" cy="0" r="1" gradientTransform="matrix(3.9375 5.75 -4.6394 3.17699 3.625 23.375)" gradientUnits="userSpaceOnUse"><stop stop-color="#145637"/><stop offset="1" stop-color="#1c5a2d" stop-opacity="0"/></radialGradient><radialGradient id="f427idb" cx="0" cy="0" r="1" gradientTransform="matrix(-.75 8.5625 -11.95084 -1.04678 12.688 29.625)" gradientUnits="userSpaceOnUse"><stop stop-color="#175b51"/><stop offset="1" stop-color="#187350" stop-opacity="0"/></radialGradient><radialGradient id="f427idc" cx="0" cy="0" r="1" gradientTransform="matrix(.75 4.3125 -11.36018 1.97568 20.063 21.5)" gradientUnits="userSpaceOnUse"><stop stop-color="#2ac127"/><stop offset="1" stop-color="#26c025" stop-opacity="0"/></radialGradient><radialGradient id="f427idd" cx="0" cy="0" r="1" gradientTransform="matrix(2 5.125 -9.69307 3.78266 21.75 27.313)" gradientUnits="userSpaceOnUse"><stop stop-color="#248f4a"/><stop offset=".852" stop-color="#26904d" stop-opacity="0"/></radialGradient><linearGradient id="f427ide" x1="15.618" x2="14.096" y1="25.745" y2="20.188" gradientUnits="userSpaceOnUse"><stop stop-color="#f8ec1d"/><stop offset=".863" stop-color="#f89c20"/><stop offset="1" stop-color="#f5891f"/></linearGradient><linearGradient id="f427idf" x1="12.813" x2="8.975" y1="19.375" y2="24.518" gradientUnits="userSpaceOnUse"><stop offset=".042" stop-color="#b17600"/><stop offset=".142" stop-color="#cf9f00"/><stop offset=".433" stop-color="#dfbe48"/><stop offset=".645" stop-color="#c49002"/></linearGradient><linearGradient id="f427idg" x1="17.625" x2="12.642" y1="13.188" y2="19.724" gradientUnits="userSpaceOnUse"><stop stop-color="#f0b301"/><stop offset=".548" stop-color="#fbcb34"/><stop offset="1" stop-color="#c49002"/></linearGradient><linearGradient id="f427idh" x1="21.75" x2="15.492" y1="8.313" y2="16.369" gradientUnits="userSpaceOnUse"><stop offset=".187" stop-color="#f0b301"/><stop offset=".468" stop-color="#fbcb34"/><stop offset=".821" stop-color="#e5a906"/><stop offset="1" stop-color="#c49002"/></linearGradient><linearGradient id="f427idi" x1="25.28" x2="19.302" y1="4.087" y2="11.766" gradientUnits="userSpaceOnUse"><stop offset=".187" stop-color="#f0b301"/><stop offset=".468" stop-color="#fbcb34"/><stop offset=".821" stop-color="#e5a906"/><stop offset="1" stop-color="#c49002"/></linearGradient><linearGradient id="f427idj" x1="26.279" x2="26.431" y1=".903" y2="6.479" gradientUnits="userSpaceOnUse"><stop offset=".187" stop-color="#f0b301"/><stop offset=".468" stop-color="#fbcb34"/><stop offset=".821" stop-color="#e5a906"/><stop offset="1" stop-color="#c49002"/></linearGradient><linearGradient id="f427idk" x1="16.982" x2="12.465" y1="17.29" y2="14.002" gradientUnits="userSpaceOnUse"><stop stop-color="#ffe458"/><stop offset=".471" stop-color="#ffda57"/><stop offset="1" stop-color="#ffd856" stop-opacity="0"/></linearGradient><linearGradient id="f427idl" x1="20.725" x2="16.208" y1="12.798" y2="9.511" gradientUnits="userSpaceOnUse"><stop stop-color="#ffe458"/><stop offset=".471" stop-color="#ffda57"/><stop offset="1" stop-color="#ffd856" stop-opacity="0"/></linearGradient><linearGradient id="f427idm" x1="24.391" x2="19.895" y1="8.314" y2="5.312" gradientUnits="userSpaceOnUse"><stop stop-color="#ffe458"/><stop offset=".471" stop-color="#ffda57"/><stop offset="1" stop-color="#ffd856" stop-opacity="0"/></linearGradient><linearGradient id="f427idn" x1="25.9" x2="24.046" y1="4.704" y2="3.421" gradientUnits="userSpaceOnUse"><stop stop-color="#ffe458"/><stop offset=".471" stop-color="#ffda57"/><stop offset="1" stop-color="#ffd856" stop-opacity="0"/></linearGradient><linearGradient id="f427ido" x1="8.024" x2="9.377" y1="11.422" y2="23.721" gradientUnits="userSpaceOnUse"><stop stop-color="#59d159"/><stop offset=".352" stop-color="#56c957"/><stop offset="1" stop-color="#146444"/></linearGradient><linearGradient id="f427idp" x1="2.063" x2="26.563" y1="23.125" y2="22.813" gradientUnits="userSpaceOnUse"><stop offset=".11" stop-color="#256c27"/><stop offset=".582" stop-color="#1fb720"/><stop offset="1" stop-color="#41c342"/></linearGradient><linearGradient id="f427idq" x1="26.084" x2="15.141" y1="22.375" y2="23.088" gradientUnits="userSpaceOnUse"><stop stop-color="#57c958"/><stop offset=".52" stop-color="#59ca5a"/><stop offset="1" stop-color="#58ca59" stop-opacity="0.32"/></linearGradient><filter id="f427idr" width="8.375" height="7.423" x="11.002" y="12.784" color-interpolation-filters="sRGB" filterUnits="userSpaceOnUse"><feFlood flood-opacity="0" result="BackgroundImageFix"/><feBlend in="SourceGraphic" in2="BackgroundImageFix" result="shape"/><feGaussianBlur result="effect1_foregroundBlur_18_31130" stdDeviation=".5"/></filter><filter id="f427ids" width="8.375" height="7.423" x="14.745" y="8.293" color-interpolation-filters="sRGB" filterUnits="userSpaceOnUse"><feFlood flood-opacity="0" result="BackgroundImageFix"/><feBlend in="SourceGraphic" in2="BackgroundImageFix" result="shape"/><feGaussianBlur result="effect1_foregroundBlur_18_31130" stdDeviation=".5"/></filter><filter id="f427idt" width="8.334" height="7.077" x="18.442" y="4.064" color-interpolation-filters="sRGB" filterUnits="userSpaceOnUse"><feFlood flood-opacity="0" result="BackgroundImageFix"/><feBlend in="SourceGraphic" in2="BackgroundImageFix" result="shape"/><feGaussianBlur result="effect1_foregroundBlur_18_31130" stdDeviation=".5"/></filter><filter id="f427idu" width="4.973" height="4.561" x="22.588" y="2.196" color-interpolation-filters="sRGB" filterUnits="userSpaceOnUse"><feFlood flood-opacity="0" result="BackgroundImageFix"/><feBlend in="SourceGraphic" in2="BackgroundImageFix" result="shape"/><feGaussianBlur result="effect1_foregroundBlur_18_31130" stdDeviation=".5"/></filter><filter id="f427idv" width="5.174" height="14.835" x="4.644" y="10.412" color-interpolation-filters="sRGB" filterUnits="userSpaceOnUse"><feFlood flood-opacity="0" result="BackgroundImageFix"/><feBlend in="SourceGraphic" in2="BackgroundImageFix" result="shape"/><feGaussianBlur result="effect1_foregroundBlur_18_31130" stdDeviation=".25"/></filter><filter id="f427idw" width="14.487" height="4.817" x="12.997" y="20.526" color-interpolation-filters="sRGB" filterUnits="userSpaceOnUse"><feFlood flood-opacity="0" result="BackgroundImageFix"/><feBlend in="SourceGraphic" in2="BackgroundImageFix" result="shape"/><feGaussianBlur result="effect1_foregroundBlur_18_31130" stdDeviation=".5"/></filter></defs></g></svg>