<svg xmlns="http://www.w3.org/2000/svg" width="1em" height="1em" viewBox="0 0 32 32"><g fill="none"><path fill="url(#f435id0)" d="M19.5 30c-15.019 0-17-11.5-17-21h10c1 3 2.262 7.623 9 6.5c6-1 8.5 3.727 8.5 6.5c0 2-.5 8-10.5 8"/><path fill="#2ec262" d="M7.5 2A1.5 1.5 0 0 0 6 3.5v1.338l3-.135V3.5A1.5 1.5 0 0 0 7.5 2"/><path fill="url(#f435id1)" d="M7.5 2A1.5 1.5 0 0 0 6 3.5v1.338l3-.135V3.5A1.5 1.5 0 0 0 7.5 2"/><path fill="url(#f435id2)" d="M7.5 2A1.5 1.5 0 0 0 6 3.5v1.338l3-.135V3.5A1.5 1.5 0 0 0 7.5 2"/><path fill="url(#f435id3)" d="M7.5 2A1.5 1.5 0 0 0 6 3.5v1.338l3-.135V3.5A1.5 1.5 0 0 0 7.5 2"/><path fill="#28a964" d="M6 4.271c-2.32.74-4 2.914-4 5.479V10c0 .552.495 1.018.919.664c.221-.184.401-.424.581-.664c.375-.5.75-1 1.5-1s1.125.5 1.5 1s.75 1 1.5 1s1.125-.5 1.5-1s.75-1 1.5-1c.738 0 1.089.484 1.445.976l.16.218c.349.46.895.133.895-.444c0-2.746-1.925-4.908-4.5-5.479c0 0-.719-.146-1.5-.146S6 4.271 6 4.271"/><path fill="url(#f435id4)" d="M6 4.271c-2.32.74-4 2.914-4 5.479V10c0 .552.495 1.018.919.664c.221-.184.401-.424.581-.664c.375-.5.75-1 1.5-1s1.125.5 1.5 1s.75 1 1.5 1s1.125-.5 1.5-1s.75-1 1.5-1c.738 0 1.089.484 1.445.976l.16.218c.349.46.895.133.895-.444c0-2.746-1.925-4.908-4.5-5.479c0 0-.719-.146-1.5-.146S6 4.271 6 4.271"/><g filter="url(#f435id5)"><ellipse cx="26.446" cy="20.724" fill="#b685ff" rx="1.885" ry="1.393" transform="rotate(-50.773 26.446 20.724)"/></g><defs><radialGradient id="f435id0" cx="0" cy="0" r="1" gradientTransform="rotate(106.422 6.193 14.133)scale(18.5701 24.318)" gradientUnits="userSpaceOnUse"><stop offset=".138" stop-color="#8a59e8"/><stop offset=".302" stop-color="#7e2ef2"/><stop offset=".446" stop-color="#894aff"/><stop offset=".506" stop-color="#8a4cff"/><stop offset=".767" stop-color="#6a26ff"/><stop offset="1" stop-color="#542bff"/></radialGradient><radialGradient id="f435id1" cx="0" cy="0" r="1" gradientTransform="matrix(0 3.01849 -2.375 0 8.625 3.419)" gradientUnits="userSpaceOnUse"><stop stop-color="#3ef797"/><stop offset="1" stop-color="#3ff693" stop-opacity="0"/></radialGradient><radialGradient id="f435id2" cx="0" cy="0" r="1" gradientTransform="matrix(0 2 -1.25 0 7.938 3.656)" gradientUnits="userSpaceOnUse"><stop stop-color="#47f99c"/><stop offset="1" stop-color="#42f799" stop-opacity="0"/></radialGradient><radialGradient id="f435id3" cx="0" cy="0" r="1" gradientTransform="rotate(138.424 3.473 2.99)scale(.6475 .66909)" gradientUnits="userSpaceOnUse"><stop stop-color="#5afea6"/><stop offset="1" stop-color="#8cffc2" stop-opacity="0"/></radialGradient><radialGradient id="f435id4" cx="0" cy="0" r="1" gradientTransform="matrix(-5.81249 6.75001 -6.66228 -5.73694 11.375 6.25)" gradientUnits="userSpaceOnUse"><stop offset=".231" stop-color="#46ffa1"/><stop offset=".937" stop-color="#35ff99" stop-opacity="0"/></radialGradient><filter id="f435id5" width="9.216" height="9.411" x="21.838" y="16.018" color-interpolation-filters="sRGB" filterUnits="userSpaceOnUse"><feFlood flood-opacity="0" result="BackgroundImageFix"/><feBlend in="SourceGraphic" in2="BackgroundImageFix" result="shape"/><feGaussianBlur result="effect1_foregroundBlur_18_31099" stdDeviation="1.5"/></filter></defs></g></svg>