<svg xmlns="http://www.w3.org/2000/svg" width="1em" height="1em" viewBox="0 0 32 32"><mask id="f613id0" width="10" height="9" x="17" y="21" maskUnits="userSpaceOnUse" style="mask-type:alpha"><circle cx="21.957" cy="25.828" r="4.099"/></mask><mask id="f613id1" width="9" height="9" x="19" y="15" maskUnits="userSpaceOnUse" style="mask-type:alpha"><circle cx="23.099" cy="19.503" r="4.099"/></mask><mask id="f613id2" width="10" height="9" x="12" y="18" maskUnits="userSpaceOnUse" style="mask-type:alpha"><circle cx="16.934" cy="22.491" r="4.099"/></mask><mask id="f613id3" width="9" height="9" x="7" y="14" maskUnits="userSpaceOnUse" style="mask-type:alpha"><circle cx="11.746" cy="18.373" r="4.099"/></mask><mask id="f613id4" width="9" height="9" x="19" y="9" maskUnits="userSpaceOnUse" style="mask-type:alpha"><circle cx="23.099" cy="13.188" r="4.099"/></mask><g fill="none"><path fill="url(#f613idy)" d="M2.143 10.067L7.62 8.056a5.835 5.835 0 0 1 7.488 3.467l-5.477 2.01a5.835 5.835 0 0 1-7.488-3.466"/><path fill="url(#f613idz)" d="M2.143 10.067L7.62 8.056a5.835 5.835 0 0 1 7.488 3.467l-5.477 2.01a5.835 5.835 0 0 1-7.488-3.466"/><path fill="url(#f613id10)" d="M2.143 10.067L7.62 8.056a5.835 5.835 0 0 1 7.488 3.467l-5.477 2.01a5.835 5.835 0 0 1-7.488-3.466"/><g filter="url(#f613idm)"><path fill="url(#f613id11)" d="M7.793 8.525a5.335 5.335 0 0 1 6.652 2.709l-4.986 1.83a5.335 5.335 0 0 1-6.653-2.708z"/></g><g filter="url(#f613idn)"><path fill="url(#f613id12)" d="M14.111 10.86a5.335 5.335 0 0 0-6.74-2.482l-.311.126a5.685 5.685 0 0 1 6.484 2.586z"/></g><path fill="url(#f613id13)" fill-rule="evenodd" d="M16.495 2.182a1 1 0 0 1 .543 1.306c-.673 1.63-1.488 6.038.834 10.096a1 1 0 1 1-1.736.993c-2.716-4.746-1.78-9.835-.947-11.852a1 1 0 0 1 1.306-.543" clip-rule="evenodd"/><g filter="url(#f613ido)"><path stroke="url(#f613id14)" stroke-linecap="round" stroke-linejoin="round" d="M16.134 3.101c-1.747 4.915 0 9.086 0 9.086"/></g><g stroke-linecap="round" stroke-linejoin="round" stroke-width="0.5" filter="url(#f613idp)"><path stroke="url(#f613id15)" d="M16.375 2.692c-1.747 4.915.16 9.388.16 9.388"/><path stroke="url(#f613id16)" d="M16.375 2.692c-1.747 4.915.16 9.388.16 9.388"/></g><circle cx="21.957" cy="25.828" r="4.099" fill="url(#f613id5)"/><circle cx="21.957" cy="25.828" r="4.099" fill="url(#f613id6)"/><circle cx="21.957" cy="25.828" r="4.099" fill="url(#f613id7)"/><g mask="url(#f613id0)"><g filter="url(#f613idq)"><circle cx="16.934" cy="22.491" r="4.099" fill="#000" fill-opacity="0.8"/></g><g filter="url(#f613idr)"><circle cx="23.099" cy="19.503" r="4.099" fill="#000" fill-opacity="0.6"/></g></g><circle cx="23.099" cy="19.503" r="4.099" fill="url(#f613id8)"/><circle cx="23.099" cy="19.503" r="4.099" fill="url(#f613id9)"/><circle cx="23.099" cy="19.503" r="4.099" fill="url(#f613ida)"/><g mask="url(#f613id1)"><g filter="url(#f613ids)"><circle cx="17.34" cy="15.405" r="4.099" fill="#000" fill-opacity="0.8"/></g><g filter="url(#f613idt)"><circle cx="23.099" cy="13.188" r="4.099" fill="#000" fill-opacity="0.8"/></g></g><circle cx="16.934" cy="22.491" r="4.099" fill="url(#f613idb)"/><circle cx="16.934" cy="22.491" r="4.099" fill="url(#f613idc)"/><circle cx="16.934" cy="22.491" r="4.099" fill="url(#f613idd)"/><g mask="url(#f613id2)"><g filter="url(#f613idu)"><circle cx="11.746" cy="18.373" r="4.099" fill="#000" fill-opacity="0.6"/></g><g filter="url(#f613idv)"><circle cx="17.34" cy="15.405" r="4.099" fill="#000" fill-opacity="0.8"/></g></g><circle cx="11.746" cy="18.373" r="4.099" fill="url(#f613ide)"/><circle cx="11.746" cy="18.373" r="4.099" fill="url(#f613idf)"/><circle cx="11.746" cy="18.373" r="4.099" fill="url(#f613idg)"/><g filter="url(#f613idw)" mask="url(#f613id3)"><circle cx="17.34" cy="15.405" r="4.099" fill="#000"/></g><circle cx="23.099" cy="13.188" r="4.099" fill="url(#f613idh)"/><circle cx="23.099" cy="13.188" r="4.099" fill="url(#f613idi)"/><circle cx="23.099" cy="13.188" r="4.099" fill="url(#f613idj)"/><g filter="url(#f613idx)" mask="url(#f613id4)"><circle cx="17.34" cy="15.405" r="4.099" fill="#000" fill-opacity="0.6"/></g><circle cx="17.34" cy="15.405" r="4.099" fill="url(#f613idk)"/><circle cx="17.34" cy="15.405" r="4.099" fill="url(#f613idl)"/><defs><radialGradient id="f613id5" cx="0" cy="0" r="1" gradientTransform="rotate(142.712 7.315 16.104)scale(5.4775)" gradientUnits="userSpaceOnUse"><stop stop-color="#764fbe"/><stop offset=".474" stop-color="#7542b7"/><stop offset="1" stop-color="#57198e"/></radialGradient><radialGradient id="f613id6" cx="0" cy="0" r="1" gradientTransform="rotate(49.505 -15.257 36.781)scale(3.13336)" gradientUnits="userSpaceOnUse"><stop stop-color="#997ed0" stop-opacity="0.6"/><stop offset="1" stop-color="#997ed0" stop-opacity="0"/></radialGradient><radialGradient id="f613id7" cx="0" cy="0" r="1" gradientTransform="rotate(-2.426 611.74 -375.032)scale(6.25215)" gradientUnits="userSpaceOnUse"><stop stop-opacity="0.5"/><stop offset="1" stop-opacity="0"/></radialGradient><radialGradient id="f613id8" cx="0" cy="0" r="1" gradientTransform="rotate(142.712 8.953 13.134)scale(5.4775)" gradientUnits="userSpaceOnUse"><stop stop-color="#764fbe"/><stop offset=".474" stop-color="#7542b7"/><stop offset="1" stop-color="#57198e"/></radialGradient><radialGradient id="f613id9" cx="0" cy="0" r="1" gradientTransform="rotate(49.505 -7.827 34.857)scale(3.13336)" gradientUnits="userSpaceOnUse"><stop stop-color="#997ed0" stop-opacity="0.6"/><stop offset="1" stop-color="#997ed0" stop-opacity="0"/></radialGradient><radialGradient id="f613ida" cx="0" cy="0" r="1" gradientTransform="rotate(-2.426 462.977 -405.155)scale(6.25215)" gradientUnits="userSpaceOnUse"><stop stop-opacity="0.5"/><stop offset="1" stop-opacity="0"/></radialGradient><radialGradient id="f613idb" cx="0" cy="0" r="1" gradientTransform="rotate(142.712 5.367 13.589)scale(5.4775)" gradientUnits="userSpaceOnUse"><stop stop-color="#764fbe"/><stop offset=".474" stop-color="#7542b7"/><stop offset="1" stop-color="#57198e"/></radialGradient><radialGradient id="f613idc" cx="0" cy="0" r="1" gradientTransform="rotate(49.505 -14.15 29.666)scale(3.13336)" gradientUnits="userSpaceOnUse"><stop stop-color="#997ed0" stop-opacity="0.6"/><stop offset="1" stop-color="#997ed0" stop-opacity="0"/></radialGradient><radialGradient id="f613idd" cx="0" cy="0" r="1" gradientTransform="rotate(-2.426 530.446 -258.114)scale(6.25215)" gradientUnits="userSpaceOnUse"><stop stop-opacity="0.5"/><stop offset="1" stop-opacity="0"/></radialGradient><radialGradient id="f613ide" cx="0" cy="0" r="1" gradientTransform="rotate(142.712 3.467 10.654)scale(5.4775)" gradientUnits="userSpaceOnUse"><stop stop-color="#764fbe"/><stop offset=".474" stop-color="#7542b7"/><stop offset="1" stop-color="#57198e"/></radialGradient><radialGradient id="f613idf" cx="0" cy="0" r="1" gradientTransform="rotate(49.505 -12.278 21.98)scale(3.13336)" gradientUnits="userSpaceOnUse"><stop stop-color="#997ed0" stop-opacity="0.2"/><stop offset="1" stop-color="#997ed0" stop-opacity="0"/></radialGradient><radialGradient id="f613idg" cx="0" cy="0" r="1" gradientTransform="rotate(-2.426 430.624 -137.687)scale(6.25215)" gradientUnits="userSpaceOnUse"><stop stop-opacity="0.5"/><stop offset="1" stop-opacity="0"/></radialGradient><radialGradient id="f613idh" cx="0" cy="0" r="1" gradientTransform="rotate(142.712 10.018 9.977)scale(5.4775)" gradientUnits="userSpaceOnUse"><stop stop-color="#764fbe"/><stop offset=".474" stop-color="#7542b7"/><stop offset="1" stop-color="#57198e"/></radialGradient><radialGradient id="f613idi" cx="0" cy="0" r="1" gradientTransform="rotate(49.505 -.978 31.7)scale(3.13336)" gradientUnits="userSpaceOnUse"><stop stop-color="#997ed0" stop-opacity="0.6"/><stop offset="1" stop-color="#997ed0" stop-opacity="0"/></radialGradient><radialGradient id="f613idj" cx="0" cy="0" r="1" gradientTransform="rotate(-2.426 313.865 -408.313)scale(6.25215)" gradientUnits="userSpaceOnUse"><stop stop-opacity="0.5"/><stop offset="1" stop-opacity="0"/></radialGradient><radialGradient id="f613idk" cx="0" cy="0" r="1" gradientTransform="rotate(142.712 6.765 10.114)scale(5.4775)" gradientUnits="userSpaceOnUse"><stop stop-color="#764fbe"/><stop offset=".474" stop-color="#7542b7"/><stop offset="1" stop-color="#57198e"/></radialGradient><radialGradient id="f613idl" cx="0" cy="0" r="1" gradientTransform="rotate(49.505 -6.261 26.563)scale(3.13336)" gradientUnits="userSpaceOnUse"><stop stop-color="#997ed0"/><stop offset="1" stop-color="#997ed0" stop-opacity="0"/></radialGradient><filter id="f613idm" width="13.639" height="7.195" x="1.806" y="7.197" color-interpolation-filters="sRGB" filterUnits="userSpaceOnUse"><feFlood flood-opacity="0" result="BackgroundImageFix"/><feBlend in="SourceGraphic" in2="BackgroundImageFix" result="shape"/><feGaussianBlur result="effect1_foregroundBlur_18_30687" stdDeviation=".5"/></filter><filter id="f613idn" width="8.551" height="4.606" x="6.31" y="7.234" color-interpolation-filters="sRGB" filterUnits="userSpaceOnUse"><feFlood flood-opacity="0" result="BackgroundImageFix"/><feBlend in="SourceGraphic" in2="BackgroundImageFix" result="shape"/><feGaussianBlur result="effect1_foregroundBlur_18_30687" stdDeviation=".375"/></filter><filter id="f613ido" width="2.576" height="10.886" x="14.457" y="2.201" color-interpolation-filters="sRGB" filterUnits="userSpaceOnUse"><feFlood flood-opacity="0" result="BackgroundImageFix"/><feBlend in="SourceGraphic" in2="BackgroundImageFix" result="shape"/><feGaussianBlur result="effect1_foregroundBlur_18_30687" stdDeviation=".2"/></filter><filter id="f613idp" width="2.398" height="10.888" x="14.888" y="1.942" color-interpolation-filters="sRGB" filterUnits="userSpaceOnUse"><feFlood flood-opacity="0" result="BackgroundImageFix"/><feBlend in="SourceGraphic" in2="BackgroundImageFix" result="shape"/><feGaussianBlur result="effect1_foregroundBlur_18_30687" stdDeviation=".25"/></filter><filter id="f613idq" width="16.197" height="16.197" x="8.835" y="14.393" color-interpolation-filters="sRGB" filterUnits="userSpaceOnUse"><feFlood flood-opacity="0" result="BackgroundImageFix"/><feBlend in="SourceGraphic" in2="BackgroundImageFix" result="shape"/><feGaussianBlur result="effect1_foregroundBlur_18_30687" stdDeviation="2"/></filter><filter id="f613idr" width="16.197" height="16.197" x="15" y="11.405" color-interpolation-filters="sRGB" filterUnits="userSpaceOnUse"><feFlood flood-opacity="0" result="BackgroundImageFix"/><feBlend in="SourceGraphic" in2="BackgroundImageFix" result="shape"/><feGaussianBlur result="effect1_foregroundBlur_18_30687" stdDeviation="2"/></filter><filter id="f613ids" width="16.197" height="16.197" x="9.241" y="7.306" color-interpolation-filters="sRGB" filterUnits="userSpaceOnUse"><feFlood flood-opacity="0" result="BackgroundImageFix"/><feBlend in="SourceGraphic" in2="BackgroundImageFix" result="shape"/><feGaussianBlur result="effect1_foregroundBlur_18_30687" stdDeviation="2"/></filter><filter id="f613idt" width="14.197" height="14.197" x="16" y="6.089" color-interpolation-filters="sRGB" filterUnits="userSpaceOnUse"><feFlood flood-opacity="0" result="BackgroundImageFix"/><feBlend in="SourceGraphic" in2="BackgroundImageFix" result="shape"/><feGaussianBlur result="effect1_foregroundBlur_18_30687" stdDeviation="1.5"/></filter><filter id="f613idu" width="16.197" height="16.197" x="3.648" y="10.275" color-interpolation-filters="sRGB" filterUnits="userSpaceOnUse"><feFlood flood-opacity="0" result="BackgroundImageFix"/><feBlend in="SourceGraphic" in2="BackgroundImageFix" result="shape"/><feGaussianBlur result="effect1_foregroundBlur_18_30687" stdDeviation="2"/></filter><filter id="f613idv" width="12.197" height="12.197" x="11.242" y="9.306" color-interpolation-filters="sRGB" filterUnits="userSpaceOnUse"><feFlood flood-opacity="0" result="BackgroundImageFix"/><feBlend in="SourceGraphic" in2="BackgroundImageFix" result="shape"/><feGaussianBlur result="effect1_foregroundBlur_18_30687" stdDeviation="1"/></filter><filter id="f613idw" width="16.197" height="16.197" x="9.241" y="7.306" color-interpolation-filters="sRGB" filterUnits="userSpaceOnUse"><feFlood flood-opacity="0" result="BackgroundImageFix"/><feBlend in="SourceGraphic" in2="BackgroundImageFix" result="shape"/><feGaussianBlur result="effect1_foregroundBlur_18_30687" stdDeviation="2"/></filter><filter id="f613idx" width="16.197" height="16.197" x="9.241" y="7.306" color-interpolation-filters="sRGB" filterUnits="userSpaceOnUse"><feFlood flood-opacity="0" result="BackgroundImageFix"/><feBlend in="SourceGraphic" in2="BackgroundImageFix" result="shape"/><feGaussianBlur result="effect1_foregroundBlur_18_30687" stdDeviation="2"/></filter><linearGradient id="f613idy" x1="2.143" x2="15.108" y1="9.991" y2="11.618" gradientUnits="userSpaceOnUse"><stop stop-color="#81b719"/><stop offset="1" stop-color="#82ca24"/></linearGradient><linearGradient id="f613idz" x1="6.553" x2="5.44" y1="10.795" y2="13.522" gradientUnits="userSpaceOnUse"><stop stop-opacity="0"/><stop offset="1" stop-opacity="0.12"/></linearGradient><linearGradient id="f613id10" x1="12.008" x2="15.108" y1="10.334" y2="11.333" gradientUnits="userSpaceOnUse"><stop stop-opacity="0"/><stop offset="1" stop-opacity="0.3"/></linearGradient><linearGradient id="f613id11" x1="2.143" x2="15.108" y1="9.991" y2="11.618" gradientUnits="userSpaceOnUse"><stop stop-color="#89bb1b"/><stop offset=".354" stop-color="#8fc21e"/><stop offset="1" stop-color="#97c345"/></linearGradient><linearGradient id="f613id12" x1="7.057" x2="14.109" y1="8.421" y2="10.796" gradientUnits="userSpaceOnUse"><stop stop-color="#b9e572" stop-opacity="0.3"/><stop offset=".521" stop-color="#b9e572" stop-opacity="0.8"/><stop offset="1" stop-color="#b9e572" stop-opacity="0.3"/></linearGradient><linearGradient id="f613id13" x1="16.168" x2="16.168" y1="2.106" y2="11.601" gradientUnits="userSpaceOnUse"><stop stop-color="#7cb82b"/><stop offset="1" stop-color="#91c627"/></linearGradient><linearGradient id="f613id14" x1="15.746" x2="15.746" y1="3.101" y2="12.187" gradientUnits="userSpaceOnUse"><stop stop-color="#86bf1e"/><stop offset="1" stop-color="#92d72d"/></linearGradient><linearGradient id="f613id15" x1="15.746" x2="15.746" y1="3.101" y2="12.187" gradientUnits="userSpaceOnUse"><stop stop-color="#c8f584" stop-opacity="0.8"/><stop offset=".307" stop-color="#c8f584" stop-opacity="0"/></linearGradient><linearGradient id="f613id16" x1="16.112" x2="16.112" y1="2.951" y2="12.08" gradientUnits="userSpaceOnUse"><stop offset=".297" stop-color="#b1e465" stop-opacity="0"/><stop offset="1" stop-color="#b1e465"/></linearGradient></defs></g></svg>