<?xml version="1.0" encoding="utf-8"?>
<!-- Uploaded to: SVG Repo, www.svgrepo.com, Generator: SVG Repo Mixer Tools -->
<svg fill="#000000" width="800px" height="800px" viewBox="-3.5 0 32 32" version="1.1" xmlns="http://www.w3.org/2000/svg">
<title>exchange</title>
<path d="M21.75 20.469h2.531c0.75 0 0.875 0.438 0.344 0.938l-3.688 3.719c-0.313 0.344-0.906 0.344-1.25 0l-3.719-3.719c-0.5-0.5-0.375-0.938 0.375-0.938h2.531v-9.188c-0.125-1.281-1.188-2.25-2.5-2.25-1.344 0-2.438 1.031-2.5 2.344v9.25c-0.094 1.938-1.25 3.656-2.875 4.531-0.75 0.375-1.563 0.563-2.469 0.563s-1.688-0.188-2.438-0.563c-1.656-0.875-2.844-2.594-2.906-4.563v-9.063h-2.5c-0.75 0-0.906-0.406-0.375-0.906l3.688-3.719c0.344-0.344 0.938-0.344 1.25 0l3.719 3.719c0.531 0.5 0.375 0.906-0.375 0.906h-2.5v9.094c0.063 1.313 1.094 2.375 2.438 2.375s2.469-1.125 2.469-2.469v-9.156c0.094-1.969 1.219-3.625 2.875-4.5 0.75-0.375 1.594-0.594 2.5-0.594s1.719 0.219 2.5 0.594c1.594 0.844 2.719 2.469 2.875 4.375v9.219z"></path>
</svg>