<svg xmlns="http://www.w3.org/2000/svg" version="1.1" width="360px" height="360px" style="shape-rendering:geometricPrecision; text-rendering:geometricPrecision; image-rendering:optimizeQuality; fill-rule:evenodd; clip-rule:evenodd" xmlns:xlink="http://www.w3.org/1999/xlink">
    <g><path style="opacity:0.992" fill="#01db83" d="M 289.5,273.5 C 286.833,274.167 285.167,275.833 284.5,278.5C 283.833,279.833 282.833,280.833 281.5,281.5C 279.804,281.685 278.471,282.519 277.5,284C 277.728,284.399 278.062,284.565 278.5,284.5C 236.975,319.762 189.975,329.262 137.5,313C 121.019,307.182 106.185,298.682 93,287.5C 92.3333,286.833 92.3333,286.167 93,285.5C 106.346,271.322 119.846,257.322 133.5,243.5C 163.579,265.271 194.912,267.105 227.5,249C 258.57,226.997 270.404,197.163 263,159.5C 252.296,125.058 229.13,104.892 193.5,99C 172.084,97.0619 152.584,102.229 135,114.5C 120.211,101.38 105.711,87.8799 91.5,74C 132.024,40.4945 177.69,31.1611 228.5,46C 280.373,64.9109 311.873,101.411 323,155.5C 329.727,200.127 318.56,239.46 289.5,273.5 Z"/></g>
    <g><path style="opacity:0.985" fill="#00db82" d="M 168.5,181.5 C 165.167,182.833 162.833,185.167 161.5,188.5C 133.562,215.938 105.728,243.605 78,271.5C 63.0287,257.529 48.362,243.196 34,228.5C 33.3333,227.5 33.3333,226.5 34,225.5C 38.0356,221.296 42.2022,217.296 46.5,213.5C 57.2464,204.257 67.5797,194.424 77.5,184C 77.2716,183.601 76.9382,183.435 76.5,183.5C 76.9528,182.542 77.6195,181.708 78.5,181C 63.6667,166.167 48.8333,151.333 34,136.5C 33.3083,135.563 33.475,134.897 34.5,134.5C 38.5698,131.94 42.2365,128.773 45.5,125C 45.2716,124.601 44.9382,124.435 44.5,124.5C 55.6877,113.63 66.8543,102.63 78,91.5C 108.673,121.007 138.84,151.007 168.5,181.5 Z"/></g>
    <g><path style="opacity:0.875" fill="#00dc82" d="M 44.5,124.5 C 44.9382,124.435 45.2716,124.601 45.5,125C 42.2365,128.773 38.5698,131.94 34.5,134.5C 37.5,130.833 40.8333,127.5 44.5,124.5 Z"/></g>
    <g><path style="opacity:0.471" fill="#00d885" d="M 168.5,181.5 C 166.5,184.167 164.167,186.5 161.5,188.5C 162.833,185.167 165.167,182.833 168.5,181.5 Z"/></g>
    <g><path style="opacity:0.875" fill="#00dc82" d="M 76.5,183.5 C 76.9382,183.435 77.2716,183.601 77.5,184C 67.5797,194.424 57.2464,204.257 46.5,213.5C 56.1667,203.167 66.1667,193.167 76.5,183.5 Z"/></g>
    <g><path style="opacity:0.465" fill="#00d885" d="M 289.5,273.5 C 288.167,275.5 286.5,277.167 284.5,278.5C 285.167,275.833 286.833,274.167 289.5,273.5 Z"/></g>
    <g><path style="opacity:0.5" fill="#00d885" d="M 281.5,281.5 C 280.833,282.833 279.833,283.833 278.5,284.5C 278.062,284.565 277.728,284.399 277.5,284C 278.471,282.519 279.804,281.685 281.5,281.5 Z"/></g>
</svg>
