<svg width="18" height="18" viewBox="0 0 18 18" fill="none" xmlns="http://www.w3.org/2000/svg">
<path fill-rule="evenodd" clip-rule="evenodd" d="M15.0993 17.7597C15.7949 18.2098 16.7235 18.0108 17.1736 17.3152C17.6236 16.6197 17.4246 15.6911 16.7291 15.241C13.3079 13.0273 10.8209 10.9959 8.92251 9.03739C9.09742 8.84982 9.27291 8.66571 9.44888 8.48534C11.8864 5.98692 14.2472 4.38066 16.2944 3.97122C17.1067 3.80875 17.6335 3.01852 17.4711 2.20618C17.3086 1.39384 16.5184 0.867013 15.706 1.02948C12.7532 1.62005 9.86406 3.76379 7.30154 6.39037C7.18151 6.5134 7.06181 6.63789 6.94249 6.76375C5.42001 4.80433 4.37058 2.87632 3.42591 0.863164C3.07399 0.113202 2.18073 -0.209475 1.43077 0.142445C0.680809 0.494365 0.358132 1.38762 0.710051 2.13758C1.82088 4.50481 3.07899 6.76511 4.92932 9.05306C3.22206 11.1341 1.62669 13.4328 0.222723 15.7142C-0.211453 16.4197 0.00852752 17.3437 0.714064 17.7778C1.4196 18.212 2.34352 17.992 2.7777 17.2865C4.04819 15.222 5.46405 13.1726 6.95559 11.3168C8.985 13.3765 11.5959 15.4928 15.0993 17.7597Z" fill="#33322E"/>
</svg>
