<svg width="24" height="18" viewBox="0 0 24 18" fill="none" xmlns="http://www.w3.org/2000/svg">
<path d="M2.36317 9.67506C1.55939 9.47449 0.745204 9.96348 0.544629 10.7673C0.344054 11.571 0.833047 12.3852 1.63683 12.5858L2.36317 9.67506ZM8.15873 16L6.78041 16.5918C7.03098 17.1754 7.62195 17.5379 8.25575 17.4969C8.88954 17.4558 9.42877 17.02 9.60191 16.4089L8.15873 16ZM22.3261 3.46413C23.1347 3.28406 23.6442 2.48257 23.4641 1.67395C23.2841 0.865328 22.4826 0.355791 21.6739 0.535866L22.3261 3.46413ZM1.63683 12.5858C2.02764 12.6833 3.12299 13.151 4.2778 13.9426C5.43988 14.7393 6.38906 15.6803 6.78041 16.5918L9.53705 15.4082C8.81094 13.7171 7.30157 12.3783 5.97406 11.4682C4.63927 10.5532 3.21399 9.88738 2.36317 9.67506L1.63683 12.5858ZM9.60191 16.4089C10.1359 14.5244 11.4948 11.6585 13.6727 9.06395C15.8445 6.47675 18.7417 4.26235 22.3261 3.46413L21.6739 0.535866C17.2583 1.5192 13.8275 4.21342 11.3749 7.13514C8.92852 10.0495 7.36674 13.2929 6.71555 15.5911L9.60191 16.4089Z" fill="#33322E"/>
</svg>
