<svg xmlns="http://www.w3.org/2000/svg" viewBox="0 0 206.65 54.11"><defs><style>.cls-1{fill:#f8d966;}.cls-2{fill:#33322e;}.cls-3{fill:#fff;}</style></defs><g id="图层_2" data-name="图层 2"><g id="main"><g id="_1" data-name="1"><polygon class="cls-1" points="22.16 51.21 32.63 50.08 28.89 15.55 39.27 14.43 38.17 4.25 32.27 1.07 11.22 3.36 15.91 48.09 22.16 51.21"/><path class="cls-2" d="M22,52.24l-7-3.5L10.12,2.47,32.47,0,39.1,3.61l1.27,11.7L30,16.43,33.73,51Zm-5.12-4.8,5.49,2.75,9.19-1L27.79,14.66l10.38-1.12-.94-8.66L32.07,2.09,12.32,4.25Z"/><polygon class="cls-3" points="15.9 48.07 12.17 13.54 2.2 14.61 1.1 4.43 31.91 1.1 33.01 11.28 22.64 12.4 26.37 46.94 15.9 48.07"/><path class="cls-2" d="M15,49.17,11.28,14.64l-10,1.07L0,3.54,32.8,0l1.31,12.17L23.74,13.29l3.73,34.53Zm-2-36.74L16.79,47l8.48-.92L21.54,11.52,31.91,10.4,31,2.2,2.2,5.32l.89,8.19Z"/></g><g id="_2" data-name="2"><path class="cls-1" d="M67.05,51a22.46,22.46,0,0,1-11.54-3.1,23.18,23.18,0,0,1-8.36-8.36,22.95,22.95,0,0,1,0-23,23.46,23.46,0,0,1,8.38-8.47,22.6,22.6,0,0,1,23,0A23.86,23.86,0,0,1,87,16.51a22.52,22.52,0,0,1,0,23,23.61,23.61,0,0,1-8.44,8.35A22.47,22.47,0,0,1,67.05,51Zm0-34.27a10.13,10.13,0,0,0-5.37,1.47,11,11,0,0,0-3.86,4.05A11.78,11.78,0,0,0,56.45,28a11.18,11.18,0,0,0,1.45,5.62,10.94,10.94,0,0,0,3.93,4.06,10.57,10.57,0,0,0,5.5,1.48,9.81,9.81,0,0,0,5.27-1.47,10.49,10.49,0,0,0,3.78-4A11.84,11.84,0,0,0,77.76,28a11.68,11.68,0,0,0-1.43-5.75,10.81,10.81,0,0,0-3.86-4.05A10.08,10.08,0,0,0,67.1,16.73Z"/><path class="cls-2" d="M67.05,5.89a21.21,21.21,0,0,1,11,3A22.8,22.8,0,0,1,86.13,17a21.52,21.52,0,0,1,0,22,22.69,22.69,0,0,1-8.08,8,22,22,0,0,1-22,0,22.23,22.23,0,0,1-8-8,21.92,21.92,0,0,1,0-22,22.38,22.38,0,0,1,8-8.12,21.25,21.25,0,0,1,11-3m.28,34.27a10.82,10.82,0,0,0,5.8-1.62,11.6,11.6,0,0,0,4.13-4.38A12.85,12.85,0,0,0,78.76,28a12.55,12.55,0,0,0-1.56-6.23A11.8,11.8,0,0,0,73,17.34a11.58,11.58,0,0,0-11.78,0A11.87,11.87,0,0,0,57,21.77,12.65,12.65,0,0,0,55.45,28,12.39,12.39,0,0,0,57,34.12a12,12,0,0,0,4.3,4.42,11.54,11.54,0,0,0,6,1.62M67.05,3.89a23.28,23.28,0,0,0-12,3.3A24.39,24.39,0,0,0,46.28,16a23.93,23.93,0,0,0,0,24A24.24,24.24,0,0,0,55,48.76a24,24,0,0,0,24.06,0,24.64,24.64,0,0,0,8.79-8.69,23.56,23.56,0,0,0,0-24.07,25,25,0,0,0-8.78-8.81,23.22,23.22,0,0,0-12-3.3Zm.28,34.27a9.48,9.48,0,0,1-5-1.34,9.91,9.91,0,0,1-3.58-3.69A10.26,10.26,0,0,1,57.45,28a10.6,10.6,0,0,1,1.3-5.26,9.88,9.88,0,0,1,3.51-3.69,9.55,9.55,0,0,1,9.69,0,9.88,9.88,0,0,1,3.51,3.69A10.71,10.71,0,0,1,76.76,28a10.91,10.91,0,0,1-1.26,5.21,9.63,9.63,0,0,1-3.42,3.63,8.85,8.85,0,0,1-4.75,1.32Z"/><path class="cls-3" d="M72.48,53.09A22.49,22.49,0,0,1,60.94,50a23.21,23.21,0,0,1-8.35-8.35,22.89,22.89,0,0,1,0-23A23.46,23.46,0,0,1,61,10.14a22.54,22.54,0,0,1,23.05,0,23.86,23.86,0,0,1,8.42,8.46,22.52,22.52,0,0,1,0,23A23.61,23.61,0,0,1,84,50,22.58,22.58,0,0,1,72.48,53.09Zm.06-34.28a10.19,10.19,0,0,0-5.37,1.47,11,11,0,0,0-3.86,4.06,11.65,11.65,0,0,0-1.43,5.75,11.28,11.28,0,0,0,1.45,5.62,11,11,0,0,0,3.94,4.06,10.51,10.51,0,0,0,5.49,1.48A9.9,9.9,0,0,0,78,39.78a10.54,10.54,0,0,0,3.77-4,12.37,12.37,0,0,0,0-11.43,11,11,0,0,0-3.86-4.06A10.19,10.19,0,0,0,72.54,18.81Z"/><path class="cls-2" d="M72.48,8a21.2,21.2,0,0,1,11,3,22.91,22.91,0,0,1,8.08,8.11,21.52,21.52,0,0,1,0,22,22.58,22.58,0,0,1-8.08,8,21.93,21.93,0,0,1-22,0,22.07,22.07,0,0,1-8-8,21.87,21.87,0,0,1,0-22,22.43,22.43,0,0,1,8-8.11,21.22,21.22,0,0,1,11-3m.28,34.28a10.92,10.92,0,0,0,5.81-1.62,11.57,11.57,0,0,0,4.12-4.38,13.29,13.29,0,0,0,0-12.4,11.92,11.92,0,0,0-4.21-4.42,11.52,11.52,0,0,0-11.78,0,11.84,11.84,0,0,0-4.21,4.42,12.73,12.73,0,0,0-1.56,6.24,12.23,12.23,0,0,0,1.58,6.11,12,12,0,0,0,4.29,4.43,11.59,11.59,0,0,0,6,1.62M72.48,6a23.23,23.23,0,0,0-12,3.31,24.39,24.39,0,0,0-8.73,8.83,23.88,23.88,0,0,0,0,24,24.14,24.14,0,0,0,8.72,8.72,24,24,0,0,0,24.06,0,24.54,24.54,0,0,0,8.78-8.69,23.5,23.5,0,0,0,0-24.07,24.92,24.92,0,0,0-8.77-8.81A23.29,23.29,0,0,0,72.48,6Zm.28,34.28a9.53,9.53,0,0,1-5-1.34,10,10,0,0,1-3.58-3.69,10.37,10.37,0,0,1-1.32-5.13,10.67,10.67,0,0,1,1.31-5.27,9.83,9.83,0,0,1,3.5-3.68,9.51,9.51,0,0,1,9.7,0,9.9,9.9,0,0,1,3.5,3.68,11.27,11.27,0,0,1,0,10.47,9.5,9.5,0,0,1-3.42,3.64,8.92,8.92,0,0,1-4.75,1.32Z"/></g><g id="_3" data-name="3"><path class="cls-1" d="M102.73,48.27l5-43.67,5.5-2.83,13.43,2.48c5.51,1,9.95,3,13.18,5.82a20.47,20.47,0,0,1,6.47,10.09,25.7,25.7,0,0,1,.44,11.52,21.5,21.5,0,0,1-5.14,10.77,20.88,20.88,0,0,1-9.57,6.07,59.2,59.2,0,0,1-14.74,2.22h-.1Zm18.5-11.09a18.68,18.68,0,0,0,3.31.32,11.06,11.06,0,0,0,5.75-1.44c2.32-1.39,3.76-3.74,4.39-7.18a11.51,11.51,0,0,0-.44-6.88A9,9,0,0,0,131,18a11.41,11.41,0,0,0-4.11-1.75l-4.53-.83-3.92,21.23Z"/><path class="cls-2" d="M113.4,2.81l13.1,2.42c5.33,1,9.61,2.87,12.7,5.59a19.58,19.58,0,0,1,6.17,9.6,24.92,24.92,0,0,1,.42,11.08,20.6,20.6,0,0,1-4.9,10.28,19.88,19.88,0,0,1-9.12,5.78,58,58,0,0,1-14.47,2.18l-13.47-2.3,4.85-42.2,4.72-2.43M124.54,38.5a12,12,0,0,0,6.26-1.59c2.58-1.54,4.17-4.11,4.86-7.84a12.48,12.48,0,0,0-.51-7.49,10,10,0,0,0-3.58-4.4,12.44,12.44,0,0,0-4.48-1.89l-5.51-1-4.28,23.2,3.75.69a18.89,18.89,0,0,0,3.49.34M113.09.72l-.6.32-4.72,2.42-1,.49L106.69,5l-4.84,42.21-.22,1.88,1.87.32L117,51.71l.19,0h.19a60,60,0,0,0,15-2.27,21.84,21.84,0,0,0,10-6.35,22.61,22.61,0,0,0,5.38-11.25,27,27,0,0,0-.46-12,21.48,21.48,0,0,0-6.78-10.58c-3.37-3-8-5-13.66-6.06L113.76.85l-.67-.13Zm6.54,35.15,3.55-19.27,3.55.66a10.36,10.36,0,0,1,3.75,1.6,8.09,8.09,0,0,1,2.85,3.56,10.59,10.59,0,0,1,.37,6.28c-.59,3.19-1.84,5.25-3.92,6.5a10.16,10.16,0,0,1-5.24,1.3,17.58,17.58,0,0,1-3.13-.3l-1.78-.33Z"/><path class="cls-3" d="M120.09,52.59a26.44,26.44,0,0,1-4.73-.44l-16.06-3,8.2-44.47,14.08,2.6c5.52,1,10,3,13.18,5.82a20.61,20.61,0,0,1,6.48,10.09,25.75,25.75,0,0,1,.43,11.53,21.65,21.65,0,0,1-5.13,10.77A21,21,0,0,1,127,51.59,23.64,23.64,0,0,1,120.09,52.59Zm-4-12.34a17.92,17.92,0,0,0,3.31.33,11.06,11.06,0,0,0,5.75-1.45c2.32-1.39,3.76-3.73,4.39-7.17a11.55,11.55,0,0,0-.44-6.89,9.12,9.12,0,0,0-3.21-4,11.49,11.49,0,0,0-4.12-1.74l-4.53-.84-3.92,21.23Z"/><path class="cls-2" d="M108.3,5.89,121.4,8.3c5.33,1,9.61,2.87,12.7,5.6a19.42,19.42,0,0,1,6.17,9.6,24.76,24.76,0,0,1,.42,11.08,20.66,20.66,0,0,1-4.89,10.28,20,20,0,0,1-9.13,5.77,22.68,22.68,0,0,1-6.58,1,25.43,25.43,0,0,1-4.55-.42l-15.08-2.78,7.84-42.5m11.14,35.69A12,12,0,0,0,125.7,40c2.59-1.54,4.18-4.11,4.87-7.85a12.51,12.51,0,0,0-.52-7.48,10.08,10.08,0,0,0-3.58-4.41A12.55,12.55,0,0,0,122,18.36l-5.51-1L112.2,40.55l3.75.69a19.88,19.88,0,0,0,3.49.34m-12.74-38-.36,2L98.49,48l-.36,2,2,.36,15.08,2.79a27.51,27.51,0,0,0,4.91.45,25,25,0,0,0,7.16-1,21.92,21.92,0,0,0,10-6.35,22.64,22.64,0,0,0,5.38-11.26,26.83,26.83,0,0,0-.46-12,21.58,21.58,0,0,0-6.77-10.58c-3.38-3-8-5-13.66-6.05l-13.1-2.42-2-.36Zm7.83,35.38,3.55-19.27,3.55.66a10.64,10.64,0,0,1,3.75,1.6,8.09,8.09,0,0,1,2.85,3.56,10.54,10.54,0,0,1,.37,6.29C128,35,126.77,37,124.68,38.27a10,10,0,0,1-5.24,1.31,17.72,17.72,0,0,1-3.13-.31l-1.78-.33Z"/></g><g id="_4" data-name="4"><path class="cls-1" d="M182.63,53.11a22.19,22.19,0,0,1-9.7-2.23,23.85,23.85,0,0,1-9.14-7.68,22.51,22.51,0,0,1-2-23,23.53,23.53,0,0,1,7.67-9.06,22.57,22.57,0,0,1,11.18-4.11C181.32,7,182,7,182.74,7a22.41,22.41,0,0,1,9.64,2.16,23.34,23.34,0,0,1,9.07,7.59,22.89,22.89,0,0,1,2,22.93,23.38,23.38,0,0,1-7.59,9.17A22.26,22.26,0,0,1,184.69,53C184,53.08,183.31,53.11,182.63,53.11Zm-.21-34.25c-.34,0-.69,0-1,0a9.9,9.9,0,0,0-5.13,1.93,10.59,10.59,0,0,0-3.4,4.33,11.75,11.75,0,0,0-.87,5.78,11.55,11.55,0,0,0,1.93,5.6,10.91,10.91,0,0,0,4.2,3.7,10.06,10.06,0,0,0,4.48,1c.33,0,.66,0,1,0a10.24,10.24,0,0,0,5.22-1.94,10.87,10.87,0,0,0,3.48-4.38,11.67,11.67,0,0,0,.91-5.85,11.26,11.26,0,0,0-1.93-5.48A11,11,0,0,0,187,19.89,10.34,10.34,0,0,0,182.42,18.86Z"/><path class="cls-2" d="M182.74,8A21.31,21.31,0,0,1,192,10.06a22.2,22.2,0,0,1,8.67,7.26,21.91,21.91,0,0,1,2,21.92A22.52,22.52,0,0,1,195.3,48a21.23,21.23,0,0,1-10.7,4c-.66.06-1.32.09-2,.09A21.29,21.29,0,0,1,173.36,50a23,23,0,0,1-8.76-7.36,21.56,21.56,0,0,1-1.94-21.94A22.76,22.76,0,0,1,170,12a21.69,21.69,0,0,1,10.7-3.92c.69-.06,1.36-.09,2-.09m-.15,34.28a10.05,10.05,0,0,0,1.09-.05,11.05,11.05,0,0,0,5.72-2.13,11.87,11.87,0,0,0,3.8-4.77,12.63,12.63,0,0,0,1-6.35A12.16,12.16,0,0,0,192.09,23a11.94,11.94,0,0,0-4.67-4,11.37,11.37,0,0,0-5-1.13A11.43,11.43,0,0,0,175.66,20a11.49,11.49,0,0,0-3.73,4.73A12.77,12.77,0,0,0,171,31a12.68,12.68,0,0,0,2.1,6.07,11.83,11.83,0,0,0,4.58,4,11,11,0,0,0,4.93,1.14M182.74,6h0c-.73,0-1.48,0-2.21.1a23.53,23.53,0,0,0-11.68,4.28,24.59,24.59,0,0,0-8,9.44,23.57,23.57,0,0,0,2.12,24,24.89,24.89,0,0,0,9.52,8,23.2,23.2,0,0,0,10.13,2.33c.71,0,1.43,0,2.15-.1a23.11,23.11,0,0,0,11.69-4.36,24.34,24.34,0,0,0,7.92-9.56,23.92,23.92,0,0,0-2.13-23.93,24.17,24.17,0,0,0-9.45-7.91A23.37,23.37,0,0,0,182.74,6Zm-.15,34.28a9,9,0,0,1-4-.93A9.86,9.86,0,0,1,174.73,36a11.33,11.33,0,0,1-1-10.43,9.59,9.59,0,0,1,3.08-3.92,8.84,8.84,0,0,1,4.62-1.73c.32,0,.64,0,.95,0a9.39,9.39,0,0,1,4.13.93,9.92,9.92,0,0,1,3.89,3.36,10.38,10.38,0,0,1,1.77,5,10.71,10.71,0,0,1-.83,5.35,9.86,9.86,0,0,1-3.17,4,9.1,9.1,0,0,1-4.71,1.75c-.31,0-.61,0-.91,0Z"/><path class="cls-3" d="M176,53.1a22.29,22.29,0,0,1-9.7-2.22,23.86,23.86,0,0,1-9.14-7.68,22.53,22.53,0,0,1-2-23,23.48,23.48,0,0,1,7.66-9A22.41,22.41,0,0,1,174,7.08C174.69,7,175.4,7,176.1,7a22.31,22.31,0,0,1,9.65,2.16,23.16,23.16,0,0,1,9.06,7.59,22.91,22.91,0,0,1,2,22.92,23.45,23.45,0,0,1-7.6,9.18A22.21,22.21,0,0,1,178.05,53C177.37,53.07,176.68,53.1,176,53.1Zm-.21-34.25c-.35,0-.69,0-1,0a10,10,0,0,0-5.12,1.92,10.57,10.57,0,0,0-3.4,4.33,12.32,12.32,0,0,0,1.05,11.39,10.87,10.87,0,0,0,4.2,3.69,10,10,0,0,0,4.48,1c.33,0,.66,0,1-.05a10,10,0,0,0,5.22-1.94,10.77,10.77,0,0,0,3.48-4.37,11.6,11.6,0,0,0,.92-5.86,11.27,11.27,0,0,0-1.94-5.47,11,11,0,0,0-4.28-3.69A10.3,10.3,0,0,0,175.79,18.85Z"/><path class="cls-2" d="M176.1,8a21.28,21.28,0,0,1,9.22,2.07A22.23,22.23,0,0,1,194,17.32a21.94,21.94,0,0,1,1.94,21.92A22.41,22.41,0,0,1,188.67,48,21.27,21.27,0,0,1,178,52c-.66,0-1.31.08-2,.08A21.25,21.25,0,0,1,166.73,50,23,23,0,0,1,158,42.62,21.6,21.6,0,0,1,156,20.68,22.55,22.55,0,0,1,163.37,12a21.42,21.42,0,0,1,10.7-3.92c.68-.06,1.36-.09,2-.09M176,42.27c.36,0,.72,0,1.09-.05a11.14,11.14,0,0,0,5.72-2.13,11.78,11.78,0,0,0,3.81-4.78,12.7,12.7,0,0,0,1-6.34,12.34,12.34,0,0,0-2.12-6,11.82,11.82,0,0,0-4.66-4,11.31,11.31,0,0,0-5-1.14c-.38,0-.75,0-1.13,0A10.89,10.89,0,0,0,169,20a11.58,11.58,0,0,0-3.72,4.74,13.3,13.3,0,0,0,1.14,12.34,11.94,11.94,0,0,0,4.59,4A10.94,10.94,0,0,0,176,42.27M176.1,6h0c-.73,0-1.47,0-2.21.09a23.58,23.58,0,0,0-11.68,4.29,24.6,24.6,0,0,0-8,9.44,23.55,23.55,0,0,0,2.12,24,25,25,0,0,0,9.52,8A23.26,23.26,0,0,0,176,54.1c.7,0,1.43,0,2.14-.09a23.23,23.23,0,0,0,11.7-4.36,24.4,24.4,0,0,0,7.91-9.56,23.86,23.86,0,0,0-2.13-23.93,24.22,24.22,0,0,0-9.44-7.91A23.38,23.38,0,0,0,176.1,6ZM176,40.27a8.94,8.94,0,0,1-4-.93A10,10,0,0,1,168.1,36a10.7,10.7,0,0,1-1.76-5.13,10.88,10.88,0,0,1,.79-5.3,9.55,9.55,0,0,1,3.09-3.92,8.9,8.9,0,0,1,4.61-1.74c.32,0,.64,0,1,0a9.32,9.32,0,0,1,4.12.94,9.78,9.78,0,0,1,3.89,3.36,10.21,10.21,0,0,1,1.77,5,10.76,10.76,0,0,1-.83,5.36,9.78,9.78,0,0,1-3.17,4,9.15,9.15,0,0,1-4.71,1.75c-.3,0-.61,0-.91,0Z"/></g></g></g></svg>