<svg xmlns="http://www.w3.org/2000/svg" width="1em" height="1em" viewBox="0 0 32 32"><g fill="none"><path fill="url(#f579idl)" d="M16.064 28.513h-1.72l-.02-6h-1.5l.02 6h-1.29c-.73 0-1.33.52-1.47 1.21c-.03.15.09.29.25.29h6.96c.16 0 .28-.14.25-.29c-.14-.69-.75-1.21-1.48-1.21"/><path fill="url(#f579idm)" d="M16.064 28.513h-1.72l-.02-6h-1.5l.02 6h-1.29c-.73 0-1.33.52-1.47 1.21c-.03.15.09.29.25.29h6.96c.16 0 .28-.14.25-.29c-.14-.69-.75-1.21-1.48-1.21"/><path fill="url(#f579id0)" fill-opacity="0.75" d="M16.064 28.513h-1.72l-.02-6h-1.5l.02 6h-1.29c-.73 0-1.33.52-1.47 1.21c-.03.15.09.29.25.29h6.96c.16 0 .28-.14.25-.29c-.14-.69-.75-1.21-1.48-1.21"/><path fill="url(#f579idn)" d="M16.064 28.513h-1.72l-.02-6h-1.5l.02 6h-1.29c-.73 0-1.33.52-1.47 1.21c-.03.15.09.29.25.29h6.96c.16 0 .28-.14.25-.29c-.14-.69-.75-1.21-1.48-1.21"/><path fill="url(#f579ido)" d="M16.064 28.513h-1.72l-.02-6h-1.5l.02 6h-1.29c-.73 0-1.33.52-1.47 1.21c-.03.15.09.29.25.29h6.96c.16 0 .28-.14.25-.29c-.14-.69-.75-1.21-1.48-1.21"/><path fill="url(#f579idp)" d="M20.614 28.513h-1.27l-.02-6h-1.5l.02 6h-1.8c-.73 0-1.33.52-1.47 1.21c-.03.15.09.29.24.29h7.02c.16 0 .28-.14.25-.29c-.13-.69-.74-1.21-1.47-1.21"/><path fill="url(#f579idq)" d="M20.614 28.513h-1.27l-.02-6h-1.5l.02 6h-1.8c-.73 0-1.33.52-1.47 1.21c-.03.15.09.29.24.29h7.02c.16 0 .28-.14.25-.29c-.13-.69-.74-1.21-1.47-1.21"/><path fill="url(#f579id1)" d="M20.614 28.513h-1.27l-.02-6h-1.5l.02 6h-1.8c-.73 0-1.33.52-1.47 1.21c-.03.15.09.29.24.29h7.02c.16 0 .28-.14.25-.29c-.13-.69-.74-1.21-1.47-1.21"/><path fill="url(#f579idr)" d="M20.614 28.513h-1.27l-.02-6h-1.5l.02 6h-1.8c-.73 0-1.33.52-1.47 1.21c-.03.15.09.29.24.29h7.02c.16 0 .28-.14.25-.29c-.13-.69-.74-1.21-1.47-1.21"/><path fill="url(#f579ids)" d="M20.614 28.513h-1.27l-.02-6h-1.5l.02 6h-1.8c-.73 0-1.33.52-1.47 1.21c-.03.15.09.29.24.29h7.02c.16 0 .28-.14.25-.29c-.13-.69-.74-1.21-1.47-1.21"/><path fill="url(#f579id2)" d="M10.544 11.013a6.692 6.692 0 0 1 1.02 3.6c-.04 3.59-2.97 6.51-6.55 6.55a6.6 6.6 0 0 1-2.23-.36a1 1 0 0 1-.39-1.65z"/><path fill="url(#f579idt)" d="M10.544 11.013a6.692 6.692 0 0 1 1.02 3.6c-.04 3.59-2.97 6.51-6.55 6.55a6.6 6.6 0 0 1-2.23-.36a1 1 0 0 1-.39-1.65z"/><path fill="url(#f579id3)" d="M10.544 11.013a6.692 6.692 0 0 1 1.02 3.6c-.04 3.59-2.97 6.51-6.55 6.55a6.6 6.6 0 0 1-2.23-.36a1 1 0 0 1-.39-1.65z"/><path fill="url(#f579id4)" d="M10.544 11.013a6.692 6.692 0 0 1 1.02 3.6c-.04 3.59-2.97 6.51-6.55 6.55a6.6 6.6 0 0 1-2.23-.36a1 1 0 0 1-.39-1.65z"/><path fill="url(#f579idu)" d="M21.634 11.013a6.616 6.616 0 0 0-1.02 3.61c.04 3.59 2.97 6.51 6.55 6.55a6.6 6.6 0 0 0 2.23-.36a1 1 0 0 0 .39-1.65z"/><path fill="url(#f579id5)" d="M21.634 11.013a6.616 6.616 0 0 0-1.02 3.61c.04 3.59 2.97 6.51 6.55 6.55a6.6 6.6 0 0 0 2.23-.36a1 1 0 0 0 .39-1.65z"/><path fill="url(#f579id6)" d="M21.634 11.013a6.616 6.616 0 0 0-1.02 3.61c.04 3.59 2.97 6.51 6.55 6.55a6.6 6.6 0 0 0 2.23-.36a1 1 0 0 0 .39-1.65z"/><path fill="url(#f579idv)" d="M21.634 11.013a6.616 6.616 0 0 0-1.02 3.61c.04 3.59 2.97 6.51 6.55 6.55a6.6 6.6 0 0 0 2.23-.36a1 1 0 0 0 .39-1.65z"/><path fill="url(#f579id7)" d="M21.634 11.013a6.616 6.616 0 0 0-1.02 3.61c.04 3.59 2.97 6.51 6.55 6.55a6.6 6.6 0 0 0 2.23-.36a1 1 0 0 0 .39-1.65z"/><path fill="url(#f579idw)" d="M23.284 12.623c-.13-.18-.2-.39-.2-.61a7 7 0 0 0-7.65-6.97c-3.56.33-6.35 3.33-6.35 6.97c0 .22-.07.43-.2.61a8.934 8.934 0 0 0-1.8 5.39a9 9 0 0 0 18 0c0-2.02-.67-3.89-1.8-5.39"/><path fill="url(#f579id8)" d="M23.284 12.623c-.13-.18-.2-.39-.2-.61a7 7 0 0 0-7.65-6.97c-3.56.33-6.35 3.33-6.35 6.97c0 .22-.07.43-.2.61a8.934 8.934 0 0 0-1.8 5.39a9 9 0 0 0 18 0c0-2.02-.67-3.89-1.8-5.39"/><path fill="url(#f579id9)" d="M23.284 12.623c-.13-.18-.2-.39-.2-.61a7 7 0 0 0-7.65-6.97c-3.56.33-6.35 3.33-6.35 6.97c0 .22-.07.43-.2.61a8.934 8.934 0 0 0-1.8 5.39a9 9 0 0 0 18 0c0-2.02-.67-3.89-1.8-5.39"/><path fill="url(#f579ida)" d="M23.284 12.623c-.13-.18-.2-.39-.2-.61a7 7 0 0 0-7.65-6.97c-3.56.33-6.35 3.33-6.35 6.97c0 .22-.07.43-.2.61a8.934 8.934 0 0 0-1.8 5.39a9 9 0 0 0 18 0c0-2.02-.67-3.89-1.8-5.39"/><path fill="url(#f579idb)" d="M23.284 12.623c-.13-.18-.2-.39-.2-.61a7 7 0 0 0-7.65-6.97c-3.56.33-6.35 3.33-6.35 6.97c0 .22-.07.43-.2.61a8.934 8.934 0 0 0-1.8 5.39a9 9 0 0 0 18 0c0-2.02-.67-3.89-1.8-5.39"/><path fill="url(#f579idc)" d="M23.284 12.623c-.13-.18-.2-.39-.2-.61a7 7 0 0 0-7.65-6.97c-3.56.33-6.35 3.33-6.35 6.97c0 .22-.07.43-.2.61a8.934 8.934 0 0 0-1.8 5.39a9 9 0 0 0 18 0c0-2.02-.67-3.89-1.8-5.39"/><path fill="url(#f579idd)" d="M23.284 12.623c-.13-.18-.2-.39-.2-.61a7 7 0 0 0-7.65-6.97c-3.56.33-6.35 3.33-6.35 6.97c0 .22-.07.43-.2.61a8.934 8.934 0 0 0-1.8 5.39a9 9 0 0 0 18 0c0-2.02-.67-3.89-1.8-5.39"/><g filter="url(#f579id12)"><ellipse cx="15.173" cy="12.661" fill="url(#f579idx)" fill-opacity="0.5" rx="1.447" ry="2.883" transform="rotate(71.8 15.173 12.66)"/></g><g filter="url(#f579id13)"><ellipse cx="18.426" cy="9.774" fill="url(#f579idy)" rx="3.101" ry="4.383" transform="rotate(-39.64 18.426 9.774)"/></g><path fill="url(#f579ide)" d="M19.824 11.013a.5.5 0 1 0 0-1a.5.5 0 0 0 0 1"/><path fill="url(#f579idf)" d="M19.824 11.013a.5.5 0 1 0 0-1a.5.5 0 0 0 0 1"/><path fill="url(#f579idz)" d="M19.824 11.013a.5.5 0 1 0 0-1a.5.5 0 0 0 0 1"/><path fill="url(#f579idg)" d="M12.334 11.013a.5.5 0 1 0 0-1a.5.5 0 0 0 0 1"/><path fill="url(#f579idh)" d="M12.334 11.013a.5.5 0 1 0 0-1a.5.5 0 0 0 0 1"/><path fill="url(#f579id10)" d="M12.334 11.013a.5.5 0 1 0 0-1a.5.5 0 0 0 0 1"/><path fill="#ed6c32" d="M16.084 10.013c-1.1 0-2 .9-2 2h4c0-1.1-.9-2-2-2"/><path fill="url(#f579idi)" d="M16.084 10.013c-1.1 0-2 .9-2 2h4c0-1.1-.9-2-2-2"/><path fill="url(#f579id11)" d="M16.084 10.013c-1.1 0-2 .9-2 2h4c0-1.1-.9-2-2-2"/><path fill="url(#f579idj)" d="M16.084 10.013c-1.1 0-2 .9-2 2h4c0-1.1-.9-2-2-2"/><g filter="url(#f579id14)"><path fill="url(#f579idk)" d="M22.186 13.483c-1.535 1.34-4.128 1.757-5.686 1.83c-.276.013-.502.237-.483.513c.294 4.13 4.212 5.95 7.457 4.166a.47.47 0 0 0 .23-.309c.622-2.77-.062-4.992-.772-6.141c-.16-.26-.516-.26-.746-.059"/></g><defs><radialGradient id="f579id0" cx="0" cy="0" r="1" gradientTransform="matrix(-4.75 0 0 -.45312 15.906 29.45)" gradientUnits="userSpaceOnUse"><stop stop-color="#ffa56b"/><stop offset="1" stop-color="#ffa56b" stop-opacity="0"/></radialGradient><radialGradient id="f579id1" cx="0" cy="0" r="1" gradientTransform="matrix(-1.52481 -1.39718 1.1334 -1.23693 21.594 30.347)" gradientUnits="userSpaceOnUse"><stop stop-color="#ffa56b"/><stop offset="1" stop-color="#ffa56b" stop-opacity="0"/></radialGradient><radialGradient id="f579id2" cx="0" cy="0" r="1" gradientTransform="matrix(9.98979 -6.90056 3.35041 4.85032 2.104 21.163)" gradientUnits="userSpaceOnUse"><stop stop-color="#e8b744"/><stop offset="1" stop-color="#b96d1e"/></radialGradient><radialGradient id="f579id3" cx="0" cy="0" r="1" gradientTransform="matrix(-5.625 -2.31249 2.15177 -5.23407 8.906 20.637)" gradientUnits="userSpaceOnUse"><stop stop-color="#e7756b"/><stop offset="1" stop-color="#ea8980" stop-opacity="0"/><stop offset="1" stop-color="#e7756b" stop-opacity="0"/></radialGradient><radialGradient id="f579id4" cx="0" cy="0" r="1" gradientTransform="rotate(-34.251 33.732 12.56)scale(7.48564 5.45763)" gradientUnits="userSpaceOnUse"><stop stop-color="#f9c958"/><stop offset=".805" stop-color="#f9c958" stop-opacity="0"/></radialGradient><radialGradient id="f579id5" cx="0" cy="0" r="1" gradientTransform="rotate(-134.859 23.185 5.213)scale(17.9871 1.33238)" gradientUnits="userSpaceOnUse"><stop stop-color="#f8ec1d"/><stop offset="1" stop-color="#f8ec1d" stop-opacity="0"/></radialGradient><radialGradient id="f579id6" cx="0" cy="0" r="1" gradientTransform="matrix(-3.8125 -1.8125 .91027 -1.9147 31 19.419)" gradientUnits="userSpaceOnUse"><stop stop-color="#f8ec1d"/><stop offset=".513" stop-color="#f8ec1d" stop-opacity="0"/></radialGradient><radialGradient id="f579id7" cx="0" cy="0" r="1" gradientTransform="matrix(3.53125 -1.78125 1.65842 3.28775 23.875 21.012)" gradientUnits="userSpaceOnUse"><stop stop-color="#e7756b"/><stop offset="1" stop-color="#ea8980" stop-opacity="0"/><stop offset="1" stop-color="#e7756b" stop-opacity="0"/></radialGradient><radialGradient id="f579id8" cx="0" cy="0" r="1" gradientTransform="matrix(14.06252 -6.24986 5.50518 12.38695 3.219 25.137)" gradientUnits="userSpaceOnUse"><stop stop-color="#f5891f"/><stop offset="1" stop-color="#f5891f" stop-opacity="0"/></radialGradient><radialGradient id="f579id9" cx="0" cy="0" r="1" gradientTransform="matrix(15.06247 4.68749 -4.12894 13.26768 .188 9.875)" gradientUnits="userSpaceOnUse"><stop stop-color="#f5891f"/><stop offset="1" stop-color="#f5891f" stop-opacity="0"/></radialGradient><radialGradient id="f579ida" cx="0" cy="0" r="1" gradientTransform="matrix(0 18.9837 -12.9275 0 16.069 8.79)" gradientUnits="userSpaceOnUse"><stop offset=".908" stop-color="#e7756b" stop-opacity="0"/><stop offset="1" stop-color="#e7756b"/></radialGradient><radialGradient id="f579idb" cx="0" cy="0" r="1" gradientTransform="matrix(0 -10.1875 9 0 16.084 28.7)" gradientUnits="userSpaceOnUse"><stop stop-color="#e7756b"/><stop offset="1" stop-color="#ea8980" stop-opacity="0"/><stop offset="1" stop-color="#e7756b" stop-opacity="0"/></radialGradient><radialGradient id="f579idc" cx="0" cy="0" r="1" gradientTransform="matrix(0 3.75 -5.81447 0 16.084 14.825)" gradientUnits="userSpaceOnUse"><stop stop-color="#ffb14f"/><stop offset="1" stop-color="#ffb14f" stop-opacity="0"/></radialGradient><radialGradient id="f579idd" cx="0" cy="0" r="1" gradientTransform="matrix(-21.23424 -22.16299 19.06875 -18.26967 25.486 28.84)" gradientUnits="userSpaceOnUse"><stop offset=".716" stop-color="#bba553" stop-opacity="0"/><stop offset="1" stop-color="#bba553"/></radialGradient><radialGradient id="f579ide" cx="0" cy="0" r="1" gradientTransform="matrix(-.40625 .5625 -.5015 -.3622 19.973 10.352)" gradientUnits="userSpaceOnUse"><stop offset=".006" stop-color="#433437"/><stop offset="1" stop-color="#3b2838"/></radialGradient><radialGradient id="f579idf" cx="0" cy="0" r="1" gradientTransform="rotate(137.643 7.993 9.07)scale(.35946 .31624)" gradientUnits="userSpaceOnUse"><stop stop-color="#5c5051"/><stop offset="1" stop-color="#5c5051" stop-opacity="0"/></radialGradient><radialGradient id="f579idg" cx="0" cy="0" r="1" gradientTransform="matrix(-.40625 .5625 -.5015 -.3622 12.483 10.351)" gradientUnits="userSpaceOnUse"><stop offset=".006" stop-color="#433437"/><stop offset="1" stop-color="#3b2838"/></radialGradient><radialGradient id="f579idh" cx="0" cy="0" r="1" gradientTransform="rotate(137.643 4.248 7.62)scale(.35946 .31624)" gradientUnits="userSpaceOnUse"><stop stop-color="#5c5051"/><stop offset="1" stop-color="#5c5051" stop-opacity="0"/></radialGradient><radialGradient id="f579idi" cx="0" cy="0" r="1" gradientTransform="matrix(0 -1.20443 1.75325 0 16.983 11.854)" gradientUnits="userSpaceOnUse"><stop stop-color="#ff8e64"/><stop offset="1" stop-color="#ff8e64" stop-opacity="0"/></radialGradient><radialGradient id="f579idj" cx="0" cy="0" r="1" gradientTransform="matrix(.25974 -1.52473 .32257 .05495 14.613 12.537)" gradientUnits="userSpaceOnUse"><stop offset=".166" stop-color="#ff8e64"/><stop offset="1" stop-color="#ff8e64" stop-opacity="0"/></radialGradient><radialGradient id="f579idk" cx="0" cy="0" r="1" gradientTransform="rotate(71.686 1.759 19.769)scale(11.521 7.02339)" gradientUnits="userSpaceOnUse"><stop stop-color="#ffdf58"/><stop offset=".972" stop-color="#ffdf58" stop-opacity="0"/></radialGradient><linearGradient id="f579idl" x1="13.14" x2="14.966" y1="29.305" y2="22.869" gradientUnits="userSpaceOnUse"><stop stop-color="#e46d33"/><stop offset="1" stop-color="#db592a"/></linearGradient><linearGradient id="f579idm" x1="17.266" x2="8.328" y1="29.18" y2="29.18" gradientUnits="userSpaceOnUse"><stop stop-color="#f67f41"/><stop offset="1" stop-color="#f67f41" stop-opacity="0"/></linearGradient><linearGradient id="f579idn" x1="13.814" x2="13.814" y1="30.499" y2="29.199" gradientUnits="userSpaceOnUse"><stop stop-color="#f15cc7"/><stop offset=".828" stop-color="#f15cc7" stop-opacity="0"/></linearGradient><linearGradient id="f579ido" x1="13.814" x2="13.814" y1="26.012" y2="27.669" gradientUnits="userSpaceOnUse"><stop stop-color="#ea582f"/><stop offset="1" stop-color="#ea582f" stop-opacity="0"/></linearGradient><linearGradient id="f579idp" x1="17.651" x2="19.466" y1="29.305" y2="22.862" gradientUnits="userSpaceOnUse"><stop stop-color="#e46d33"/><stop offset="1" stop-color="#db592a"/></linearGradient><linearGradient id="f579idq" x1="21.804" x2="12.806" y1="29.18" y2="29.18" gradientUnits="userSpaceOnUse"><stop stop-color="#f67f41"/><stop offset="1" stop-color="#f67f41" stop-opacity="0"/></linearGradient><linearGradient id="f579idr" x1="18.329" x2="18.329" y1="30.499" y2="29.199" gradientUnits="userSpaceOnUse"><stop stop-color="#f15cc7"/><stop offset=".828" stop-color="#f15cc7" stop-opacity="0"/></linearGradient><linearGradient id="f579ids" x1="18.329" x2="18.329" y1="26.012" y2="27.669" gradientUnits="userSpaceOnUse"><stop stop-color="#ea582f"/><stop offset="1" stop-color="#ea582f" stop-opacity="0"/></linearGradient><linearGradient id="f579idt" x1="14.094" x2="6.159" y1="16.637" y2="21.754" gradientUnits="userSpaceOnUse"><stop stop-color="#cd7c10"/><stop offset="1" stop-color="#cd7c10" stop-opacity="0"/></linearGradient><linearGradient id="f579idu" x1="31.656" x2="20.301" y1="19.887" y2="18.215" gradientUnits="userSpaceOnUse"><stop stop-color="#f8ec1d"/><stop offset="1" stop-color="#f5891f"/></linearGradient><linearGradient id="f579idv" x1="21.781" x2="26.677" y1="19.325" y2="18.222" gradientUnits="userSpaceOnUse"><stop stop-color="#d39344"/><stop offset=".844" stop-color="#df9d4c" stop-opacity="0"/></linearGradient><linearGradient id="f579idw" x1="21.844" x2="16.08" y1="4.262" y2="30.772" gradientUnits="userSpaceOnUse"><stop stop-color="#f8ec1d"/><stop offset="1" stop-color="#f5891f"/></linearGradient><linearGradient id="f579idx" x1="13.811" x2="14.005" y1="10.924" y2="14.568" gradientUnits="userSpaceOnUse"><stop stop-color="#e5951b"/><stop offset="1" stop-color="#e5951b" stop-opacity="0"/></linearGradient><linearGradient id="f579idy" x1="22.363" x2="15.701" y1="9.693" y2="9.09" gradientUnits="userSpaceOnUse"><stop stop-color="#fff558"/><stop offset="1" stop-color="#fff558" stop-opacity="0"/></linearGradient><linearGradient id="f579idz" x1="19.725" x2="19.382" y1="10.12" y2="9.901" gradientUnits="userSpaceOnUse"><stop stop-color="#5c5051" stop-opacity="0"/><stop offset="1" stop-color="#5c5051"/></linearGradient><linearGradient id="f579id10" x1="12.235" x2="11.892" y1="10.12" y2="9.901" gradientUnits="userSpaceOnUse"><stop stop-color="#5c5051" stop-opacity="0"/><stop offset="1" stop-color="#5c5051"/></linearGradient><linearGradient id="f579id11" x1="16.084" x2="16.084" y1="12.098" y2="11.658" gradientUnits="userSpaceOnUse"><stop stop-color="#c1411b"/><stop offset=".787" stop-color="#ea6038" stop-opacity="0"/></linearGradient><filter id="f579id12" width="7.553" height="5.287" x="11.396" y="10.017" color-interpolation-filters="sRGB" filterUnits="userSpaceOnUse"><feFlood flood-opacity="0" result="BackgroundImageFix"/><feBlend in="SourceGraphic" in2="BackgroundImageFix" result="shape"/><feGaussianBlur result="effect1_foregroundBlur_28327_4807" stdDeviation=".5"/></filter><filter id="f579id13" width="10.355" height="10.826" x="13.249" y="4.361" color-interpolation-filters="sRGB" filterUnits="userSpaceOnUse"><feFlood flood-opacity="0" result="BackgroundImageFix"/><feBlend in="SourceGraphic" in2="BackgroundImageFix" result="shape"/><feGaussianBlur result="effect1_foregroundBlur_28327_4807" stdDeviation=".75"/></filter><filter id="f579id14" width="10.931" height="10.335" x="14.516" y="11.84" color-interpolation-filters="sRGB" filterUnits="userSpaceOnUse"><feFlood flood-opacity="0" result="BackgroundImageFix"/><feBlend in="SourceGraphic" in2="BackgroundImageFix" result="shape"/><feGaussianBlur result="effect1_foregroundBlur_28327_4807" stdDeviation=".75"/></filter></defs></g></svg>