<svg xmlns="http://www.w3.org/2000/svg" width="1em" height="1em" viewBox="0 0 32 32"><g fill="none"><circle cx="11.359" cy="19.211" r="1.406" fill="url(#f190id0)"/><circle cx="11.359" cy="19.211" r="1.406" fill="url(#f190id1)"/><circle cx="11.359" cy="19.211" r="1.406" fill="url(#f190id2)"/><circle cx="11.359" cy="19.211" r="1.406" fill="url(#f190idv)"/><circle cx="12.773" cy="23.352" r="1.406" fill="url(#f190id3)"/><circle cx="12.773" cy="23.352" r="1.406" fill="url(#f190id4)"/><circle cx="12.773" cy="23.352" r="1.406" fill="url(#f190id5)"/><circle cx="12.773" cy="23.352" r="1.406" fill="url(#f190idw)"/><circle cx="16" cy="26.934" r="1.406" fill="url(#f190id6)"/><circle cx="16" cy="26.934" r="1.406" fill="url(#f190id7)"/><circle cx="16" cy="26.934" r="1.406" fill="url(#f190id8)"/><circle cx="20.5" cy="27.906" r="1.406" fill="url(#f190id9)"/><circle cx="20.5" cy="27.906" r="1.406" fill="url(#f190ida)"/><circle cx="20.5" cy="27.906" r="1.406" fill="url(#f190idb)"/><circle cx="25.195" cy="27.906" r="1.406" fill="url(#f190idc)"/><circle cx="25.195" cy="27.906" r="1.406" fill="url(#f190idd)"/><g stroke-linecap="round" stroke-linejoin="round" stroke-width="1.5" filter="url(#f190id16)"><path stroke="#298367" d="M12.266 3.125c-.615.11-2.235.883-3.032 2.14c-.55.868-.859 2.282-.859 3.329"/><path stroke="url(#f190ide)" d="M12.266 3.125c-.615.11-2.235.883-3.032 2.14c-.55.868-.859 2.282-.859 3.329"/><path stroke="url(#f190idf)" d="M12.266 3.125c-.615.11-2.235.883-3.032 2.14c-.55.868-.859 2.282-.859 3.329"/></g><g filter="url(#f190id17)"><path stroke="url(#f190idx)" stroke-linecap="round" stroke-linejoin="round" stroke-width="0.5" d="M12.266 3.125c-.615.11-2.235.883-3.032 2.14c-.55.868-.859 2.282-.859 3.329"/></g><path stroke="#2b8981" stroke-linecap="round" stroke-linejoin="round" stroke-width="1.5" d="M2.781 3.063c.275.078.82.32 1.35.57c.895.423 1.68 1.09 1.94 2.045c.181.666.304 1.49.304 2.416"/><path stroke="url(#f190idg)" stroke-linecap="round" stroke-linejoin="round" stroke-width="1.5" d="M2.781 3.063c.275.078.82.32 1.35.57c.895.423 1.68 1.09 1.94 2.045c.181.666.304 1.49.304 2.416"/><path stroke="url(#f190idh)" stroke-linecap="round" stroke-linejoin="round" stroke-width="1.5" d="M2.781 3.063c.275.078.82.32 1.35.57c.895.423 1.68 1.09 1.94 2.045c.181.666.304 1.49.304 2.416"/><path stroke="url(#f190idy)" stroke-linecap="round" stroke-linejoin="round" stroke-width="1.5" d="M2.781 3.063c.275.078.82.32 1.35.57c.895.423 1.68 1.09 1.94 2.045c.181.666.304 1.49.304 2.416"/><path fill="url(#f190idz)" fill-rule="evenodd" d="M2.076 11.402a4 4 0 0 1 4-4h4.55a8 8 0 0 1 7.67 5.722l1.803 6.071a1.6 1.6 0 0 0 1.534 1.145h4.29a4 4 0 1 1 0 8H20.44a8 8 0 0 1-7.67-5.722l-1.761-6.062a1.6 1.6 0 0 0-1.536-1.154H6.076a4 4 0 0 1-4-4" clip-rule="evenodd"/><path fill="url(#f190id10)" fill-rule="evenodd" d="M2.076 11.402a4 4 0 0 1 4-4h4.55a8 8 0 0 1 7.67 5.722l1.803 6.071a1.6 1.6 0 0 0 1.534 1.145h4.29a4 4 0 1 1 0 8H20.44a8 8 0 0 1-7.67-5.722l-1.761-6.062a1.6 1.6 0 0 0-1.536-1.154H6.076a4 4 0 0 1-4-4" clip-rule="evenodd"/><path fill="url(#f190idi)" fill-rule="evenodd" d="M2.076 11.402a4 4 0 0 1 4-4h4.55a8 8 0 0 1 7.67 5.722l1.803 6.071a1.6 1.6 0 0 0 1.534 1.145h4.29a4 4 0 1 1 0 8H20.44a8 8 0 0 1-7.67-5.722l-1.761-6.062a1.6 1.6 0 0 0-1.536-1.154H6.076a4 4 0 0 1-4-4" clip-rule="evenodd"/><path fill="url(#f190idj)" fill-rule="evenodd" d="M2.076 11.402a4 4 0 0 1 4-4h4.55a8 8 0 0 1 7.67 5.722l1.803 6.071a1.6 1.6 0 0 0 1.534 1.145h4.29a4 4 0 1 1 0 8H20.44a8 8 0 0 1-7.67-5.722l-1.761-6.062a1.6 1.6 0 0 0-1.536-1.154H6.076a4 4 0 0 1-4-4" clip-rule="evenodd"/><path fill="url(#f190id11)" fill-rule="evenodd" d="M2.076 11.402a4 4 0 0 1 4-4h4.55a8 8 0 0 1 7.67 5.722l1.803 6.071a1.6 1.6 0 0 0 1.534 1.145h4.29a4 4 0 1 1 0 8H20.44a8 8 0 0 1-7.67-5.722l-1.761-6.062a1.6 1.6 0 0 0-1.536-1.154H6.076a4 4 0 0 1-4-4" clip-rule="evenodd"/><path fill="url(#f190idk)" fill-rule="evenodd" d="M2.076 11.402a4 4 0 0 1 4-4h4.55a8 8 0 0 1 7.67 5.722l1.803 6.071a1.6 1.6 0 0 0 1.534 1.145h4.29a4 4 0 1 1 0 8H20.44a8 8 0 0 1-7.67-5.722l-1.761-6.062a1.6 1.6 0 0 0-1.536-1.154H6.076a4 4 0 0 1-4-4" clip-rule="evenodd"/><path fill="url(#f190idl)" fill-rule="evenodd" d="M2.076 11.402a4 4 0 0 1 4-4h4.55a8 8 0 0 1 7.67 5.722l1.803 6.071a1.6 1.6 0 0 0 1.534 1.145h4.29a4 4 0 1 1 0 8H20.44a8 8 0 0 1-7.67-5.722l-1.761-6.062a1.6 1.6 0 0 0-1.536-1.154H6.076a4 4 0 0 1-4-4" clip-rule="evenodd"/><path fill="url(#f190idm)" fill-rule="evenodd" d="M2.076 11.402a4 4 0 0 1 4-4h4.55a8 8 0 0 1 7.67 5.722l1.803 6.071a1.6 1.6 0 0 0 1.534 1.145h4.29a4 4 0 1 1 0 8H20.44a8 8 0 0 1-7.67-5.722l-1.761-6.062a1.6 1.6 0 0 0-1.536-1.154H6.076a4 4 0 0 1-4-4" clip-rule="evenodd"/><path fill="url(#f190idn)" fill-rule="evenodd" d="M2.076 11.402a4 4 0 0 1 4-4h4.55a8 8 0 0 1 7.67 5.722l1.803 6.071a1.6 1.6 0 0 0 1.534 1.145h4.29a4 4 0 1 1 0 8H20.44a8 8 0 0 1-7.67-5.722l-1.761-6.062a1.6 1.6 0 0 0-1.536-1.154H6.076a4 4 0 0 1-4-4" clip-rule="evenodd"/><path fill="url(#f190ido)" fill-rule="evenodd" d="M2.076 11.402a4 4 0 0 1 4-4h4.55a8 8 0 0 1 7.67 5.722l1.803 6.071a1.6 1.6 0 0 0 1.534 1.145h4.29a4 4 0 1 1 0 8H20.44a8 8 0 0 1-7.67-5.722l-1.761-6.062a1.6 1.6 0 0 0-1.536-1.154H6.076a4 4 0 0 1-4-4" clip-rule="evenodd"/><path fill="url(#f190idp)" fill-rule="evenodd" d="M2.076 11.402a4 4 0 0 1 4-4h4.55a8 8 0 0 1 7.67 5.722l1.803 6.071a1.6 1.6 0 0 0 1.534 1.145h4.29a4 4 0 1 1 0 8H20.44a8 8 0 0 1-7.67-5.722l-1.761-6.062a1.6 1.6 0 0 0-1.536-1.154H6.076a4 4 0 0 1-4-4" clip-rule="evenodd"/><path fill="url(#f190idq)" fill-rule="evenodd" d="M2.076 11.402a4 4 0 0 1 4-4h4.55a8 8 0 0 1 7.67 5.722l1.803 6.071a1.6 1.6 0 0 0 1.534 1.145h4.29a4 4 0 1 1 0 8H20.44a8 8 0 0 1-7.67-5.722l-1.761-6.062a1.6 1.6 0 0 0-1.536-1.154H6.076a4 4 0 0 1-4-4" clip-rule="evenodd"/><path fill="url(#f190idr)" fill-rule="evenodd" d="M2.076 11.402a4 4 0 0 1 4-4h4.55a8 8 0 0 1 7.67 5.722l1.803 6.071a1.6 1.6 0 0 0 1.534 1.145h4.29a4 4 0 1 1 0 8H20.44a8 8 0 0 1-7.67-5.722l-1.761-6.062a1.6 1.6 0 0 0-1.536-1.154H6.076a4 4 0 0 1-4-4" clip-rule="evenodd"/><path fill="url(#f190ids)" fill-rule="evenodd" d="M2.076 11.402a4 4 0 0 1 4-4h4.55a8 8 0 0 1 7.67 5.722l1.803 6.071a1.6 1.6 0 0 0 1.534 1.145h4.29a4 4 0 1 1 0 8H20.44a8 8 0 0 1-7.67-5.722l-1.761-6.062a1.6 1.6 0 0 0-1.536-1.154H6.076a4 4 0 0 1-4-4" clip-rule="evenodd"/><path fill="url(#f190idt)" fill-rule="evenodd" d="M2.076 11.402a4 4 0 0 1 4-4h4.55a8 8 0 0 1 7.67 5.722l1.803 6.071a1.6 1.6 0 0 0 1.534 1.145h4.29a4 4 0 1 1 0 8H20.44a8 8 0 0 1-7.67-5.722l-1.761-6.062a1.6 1.6 0 0 0-1.536-1.154H6.076a4 4 0 0 1-4-4" clip-rule="evenodd"/><path fill="url(#f190id12)" fill-rule="evenodd" d="M2.076 11.402a4 4 0 0 1 4-4h4.55a8 8 0 0 1 7.67 5.722l1.803 6.071a1.6 1.6 0 0 0 1.534 1.145h4.29a4 4 0 1 1 0 8H20.44a8 8 0 0 1-7.67-5.722l-1.761-6.062a1.6 1.6 0 0 0-1.536-1.154H6.076a4 4 0 0 1-4-4" clip-rule="evenodd"/><rect width="1.508" height="2.992" x="5.273" y="9.352" fill="url(#f190id13)" rx=".754"/><rect width="1.508" height="2.992" x="5.273" y="9.352" fill="url(#f190id14)" rx=".754"/><rect width="1.508" height="2.992" x="5.273" y="9.352" fill="url(#f190idu)" rx=".754"/><g filter="url(#f190id18)"><path stroke="#72f7b4" stroke-linecap="round" stroke-linejoin="round" stroke-width="2" d="M9.313 9.719h1.674a5 5 0 0 1 4.757 3.461l2.384 7.37a2.5 2.5 0 0 0 2.378 1.731h1.119"/></g><g filter="url(#f190id19)"><path stroke="url(#f190id15)" stroke-linecap="round" stroke-linejoin="round" stroke-width="0.5" d="M3.031 2.89c.558.141 1.857.648 2.594 1.547c.737.9 1.005 2.136 1.047 2.641"/></g><defs><radialGradient id="f190id0" cx="0" cy="0" r="1" gradientTransform="matrix(-.35937 -2.4922 4.2338 -.61052 11.094 20.617)" gradientUnits="userSpaceOnUse"><stop stop-color="#4c63a1"/><stop offset="1" stop-color="#1a7060"/></radialGradient><radialGradient id="f190id1" cx="0" cy="0" r="1" gradientTransform="matrix(.3711 2.21485 -1.7903 .29996 11.215 18.402)" gradientUnits="userSpaceOnUse"><stop offset=".919" stop-color="#8a78ca" stop-opacity="0"/><stop offset="1" stop-color="#8a78ca"/></radialGradient><radialGradient id="f190id2" cx="0" cy="0" r="1" gradientTransform="matrix(-2.42968 .46094 -.40898 -2.15579 12.281 19.078)" gradientUnits="userSpaceOnUse"><stop offset=".777" stop-color="#799d9e" stop-opacity="0"/><stop offset="1" stop-color="#799d9e"/></radialGradient><radialGradient id="f190id3" cx="0" cy="0" r="1" gradientTransform="matrix(-.35937 -2.4922 4.2338 -.61052 12.508 24.758)" gradientUnits="userSpaceOnUse"><stop stop-color="#4c63a1"/><stop offset="1" stop-color="#1a7060"/></radialGradient><radialGradient id="f190id4" cx="0" cy="0" r="1" gradientTransform="matrix(.3711 2.21485 -1.7903 .29996 12.629 22.543)" gradientUnits="userSpaceOnUse"><stop offset=".919" stop-color="#8a78ca" stop-opacity="0"/><stop offset="1" stop-color="#8a78ca"/></radialGradient><radialGradient id="f190id5" cx="0" cy="0" r="1" gradientTransform="matrix(-2.125 -.51562 .4575 -1.88545 13.297 23.453)" gradientUnits="userSpaceOnUse"><stop offset=".767" stop-color="#799d9e" stop-opacity="0"/><stop offset="1" stop-color="#799d9e"/></radialGradient><radialGradient id="f190id6" cx="0" cy="0" r="1" gradientTransform="matrix(-.7344 -2.15234 4.6991 -1.60337 16.11 28)" gradientUnits="userSpaceOnUse"><stop stop-color="#4c63a1"/><stop offset="1" stop-color="#1a7060"/></radialGradient><radialGradient id="f190id7" cx="0" cy="0" r="1" gradientTransform="matrix(.3711 2.21485 -1.7903 .29996 15.855 26.125)" gradientUnits="userSpaceOnUse"><stop offset=".919" stop-color="#8a78ca" stop-opacity="0"/><stop offset="1" stop-color="#8a78ca"/></radialGradient><radialGradient id="f190id8" cx="0" cy="0" r="1" gradientTransform="matrix(-2.125 -.51562 .4575 -1.88545 16.523 27.035)" gradientUnits="userSpaceOnUse"><stop offset=".767" stop-color="#799d9e" stop-opacity="0"/><stop offset="1" stop-color="#799d9e"/></radialGradient><radialGradient id="f190id9" cx="0" cy="0" r="1" gradientTransform="rotate(-108.84 20.668 7.114)scale(2.27418 4.96512)" gradientUnits="userSpaceOnUse"><stop stop-color="#4c63a1"/><stop offset="1" stop-color="#1a7060"/></radialGradient><radialGradient id="f190ida" cx="0" cy="0" r="1" gradientTransform="matrix(0 2.23437 -1.80608 0 20.555 27.14)" gradientUnits="userSpaceOnUse"><stop offset=".919" stop-color="#8a78ca" stop-opacity="0"/><stop offset="1" stop-color="#8a78ca"/></radialGradient><radialGradient id="f190idb" cx="0" cy="0" r="1" gradientTransform="matrix(-2.125 -.51562 .4575 -1.88545 21.023 28.008)" gradientUnits="userSpaceOnUse"><stop offset=".673" stop-color="#799d9e" stop-opacity="0"/><stop offset="1" stop-color="#799d9e"/></radialGradient><radialGradient id="f190idc" cx="0" cy="0" r="1" gradientTransform="matrix(.54687 -1.20312 2.62673 1.19397 24.906 29.313)" gradientUnits="userSpaceOnUse"><stop stop-color="#4c63a1"/><stop offset="1" stop-color="#1a7060"/></radialGradient><radialGradient id="f190idd" cx="0" cy="0" r="1" gradientTransform="matrix(0 2.23437 -1.80608 0 25.25 27.14)" gradientUnits="userSpaceOnUse"><stop offset=".919" stop-color="#8a78ca" stop-opacity="0"/><stop offset="1" stop-color="#8a78ca"/></radialGradient><radialGradient id="f190ide" cx="0" cy="0" r="1" gradientTransform="matrix(1.03125 .04687 -.12985 2.85667 7.883 7.383)" gradientUnits="userSpaceOnUse"><stop stop-color="#177b52"/><stop offset="1" stop-color="#177b52" stop-opacity="0"/></radialGradient><radialGradient id="f190idf" cx="0" cy="0" r="1" gradientTransform="rotate(-112.122 7.508 -2.084)scale(1.0373 3.80824)" gradientUnits="userSpaceOnUse"><stop stop-color="#557eab"/><stop offset=".434" stop-color="#557eab" stop-opacity="0"/></radialGradient><radialGradient id="f190idg" cx="0" cy="0" r="1" gradientTransform="matrix(.8125 -1.96875 5.03589 2.0783 3.453 4.422)" gradientUnits="userSpaceOnUse"><stop stop-color="#557eab"/><stop offset=".379" stop-color="#557eab" stop-opacity="0"/></radialGradient><radialGradient id="f190idh" cx="0" cy="0" r="1" gradientTransform="matrix(0 -1.44531 2.30469 0 6.078 7.86)" gradientUnits="userSpaceOnUse"><stop stop-color="#1d835c"/><stop offset="1" stop-color="#1d835c" stop-opacity="0"/></radialGradient><radialGradient id="f190idi" cx="0" cy="0" r="1" gradientTransform="matrix(5.81249 -2.06253 3.97383 11.19875 11.063 22.031)" gradientUnits="userSpaceOnUse"><stop stop-color="#5eb4bf"/><stop offset="1" stop-color="#5eb4bf" stop-opacity="0"/></radialGradient><radialGradient id="f190idj" cx="0" cy="0" r="1" gradientTransform="matrix(0 -5.77734 6.9375 0 7.188 17.871)" gradientUnits="userSpaceOnUse"><stop stop-color="#5eb4bf"/><stop offset="1" stop-color="#5eb4bf" stop-opacity="0"/></radialGradient><radialGradient id="f190idk" cx="0" cy="0" r="1" gradientTransform="matrix(1.1875 -2.28125 15.14104 7.88163 16.563 27.813)" gradientUnits="userSpaceOnUse"><stop stop-color="#b3a1ff"/><stop offset=".452" stop-color="#b3a1ff" stop-opacity="0"/></radialGradient><radialGradient id="f190idl" cx="0" cy="0" r="1" gradientTransform="rotate(147.426 10.11 13.689)scale(8.01 6.32037)" gradientUnits="userSpaceOnUse"><stop stop-color="#52cb7d"/><stop offset="1" stop-color="#52cb7d" stop-opacity="0"/></radialGradient><radialGradient id="f190idm" cx="0" cy="0" r="1" gradientTransform="matrix(-5.9375 0 0 -11.1875 31.281 23.969)" gradientUnits="userSpaceOnUse"><stop stop-color="#52cb7d"/><stop offset="1" stop-color="#52cb7d" stop-opacity="0"/></radialGradient><radialGradient id="f190idn" cx="0" cy="0" r="1" gradientTransform="rotate(143.973 10.556 15.993)scale(3.40037 2.73408)" gradientUnits="userSpaceOnUse"><stop stop-color="#69e09b"/><stop offset="1" stop-color="#69e09b" stop-opacity="0"/></radialGradient><radialGradient id="f190ido" cx="0" cy="0" r="1" gradientTransform="rotate(45.277 -8.174 7.873)scale(2.28708 4.74509)" gradientUnits="userSpaceOnUse"><stop stop-color="#90f0b1"/><stop offset=".729" stop-color="#90f0b1" stop-opacity="0"/></radialGradient><radialGradient id="f190idp" cx="0" cy="0" r="1" gradientTransform="matrix(5.84375 -4.5 3.20505 4.16212 7.031 16.313)" gradientUnits="userSpaceOnUse"><stop stop-color="#6eb8db"/><stop offset="1" stop-color="#6eb8db" stop-opacity="0"/></radialGradient><radialGradient id="f190idq" cx="0" cy="0" r="1" gradientTransform="matrix(0 -2.125 14.664 0 7.172 15.516)" gradientUnits="userSpaceOnUse"><stop stop-color="#b3a1ff"/><stop offset=".27" stop-color="#b3a1ff" stop-opacity="0"/></radialGradient><radialGradient id="f190idr" cx="0" cy="0" r="1" gradientTransform="matrix(-41.4062 0 0 -22.6875 43.313 12.531)" gradientUnits="userSpaceOnUse"><stop offset=".971" stop-color="#90f0b1" stop-opacity="0"/><stop offset="1" stop-color="#90f0b1"/></radialGradient><radialGradient id="f190ids" cx="0" cy="0" r="1" gradientTransform="matrix(2.0625 -.5625 1.87428 6.87236 12.094 21.844)" gradientUnits="userSpaceOnUse"><stop stop-color="#8cd5be"/><stop offset="1" stop-color="#8ad4bd" stop-opacity="0"/></radialGradient><radialGradient id="f190idt" cx="0" cy="0" r="1" gradientTransform="matrix(1.375 5 -7.47476 2.05557 5.188 4.781)" gradientUnits="userSpaceOnUse"><stop stop-color="#55e695"/><stop offset="1" stop-color="#55e695" stop-opacity="0"/></radialGradient><radialGradient id="f190idu" cx="0" cy="0" r="1" gradientTransform="rotate(-104.895 7.355 3.162)scale(1.75199 1.89375)" gradientUnits="userSpaceOnUse"><stop offset=".814" stop-color="#594c4f" stop-opacity="0"/><stop offset="1" stop-color="#594c4f"/></radialGradient><linearGradient id="f190idv" x1="11.664" x2="11.313" y1="18.852" y2="19.008" gradientUnits="userSpaceOnUse"><stop stop-color="#196a65"/><stop offset="1" stop-color="#196a65" stop-opacity="0"/></linearGradient><linearGradient id="f190idw" x1="13.078" x2="12.727" y1="22.992" y2="23.148" gradientUnits="userSpaceOnUse"><stop stop-color="#196a65"/><stop offset="1" stop-color="#196a65" stop-opacity="0"/></linearGradient><linearGradient id="f190idx" x1="11.969" x2="10.203" y1="3.391" y2="8.297" gradientUnits="userSpaceOnUse"><stop stop-color="#529b8a"/><stop offset="1" stop-color="#529b8a" stop-opacity="0"/></linearGradient><linearGradient id="f190idy" x1="1.859" x2="3.734" y1="2.969" y2="3.563" gradientUnits="userSpaceOnUse"><stop stop-color="#298272"/><stop offset="1" stop-color="#298272" stop-opacity="0"/></linearGradient><linearGradient id="f190idz" x1="19.875" x2="17.063" y1="19.781" y2="24.969" gradientUnits="userSpaceOnUse"><stop stop-color="#4dd29a"/><stop offset="1" stop-color="#52c8b0"/></linearGradient><linearGradient id="f190id10" x1="19.688" x2="19.688" y1="28.719" y2="22.031" gradientUnits="userSpaceOnUse"><stop stop-color="#5eb4bf"/><stop offset="1" stop-color="#5eb4bf" stop-opacity="0"/></linearGradient><linearGradient id="f190id11" x1="18.549" x2="18.549" y1="28.469" y2="27.609" gradientUnits="userSpaceOnUse"><stop stop-color="#b3a1ff"/><stop offset="1" stop-color="#b3a1ff" stop-opacity="0"/></linearGradient><linearGradient id="f190id12" x1="16" x2="16" y1="7.402" y2="7.906" gradientUnits="userSpaceOnUse"><stop stop-color="#72dd98"/><stop offset="1" stop-color="#72dd98" stop-opacity="0"/></linearGradient><linearGradient id="f190id13" x1="6.781" x2="5.908" y1="10.661" y2="10.661" gradientUnits="userSpaceOnUse"><stop offset=".225" stop-color="#594c4f"/><stop offset="1" stop-color="#392833"/></linearGradient><linearGradient id="f190id14" x1="7.017" x2="7.017" y1="12.204" y2="10.778" gradientUnits="userSpaceOnUse"><stop stop-color="#492847"/><stop offset="1" stop-color="#552d52" stop-opacity="0"/></linearGradient><linearGradient id="f190id15" x1="3.703" x2="7.693" y1="2.797" y2="6.362" gradientUnits="userSpaceOnUse"><stop stop-color="#569c8f"/><stop offset="1" stop-color="#529b8a" stop-opacity="0"/></linearGradient><filter id="f190id16" width="5.541" height="7.119" x="7.625" y="2.375" color-interpolation-filters="sRGB" filterUnits="userSpaceOnUse"><feFlood flood-opacity="0" result="BackgroundImageFix"/><feBlend in="SourceGraphic" in2="BackgroundImageFix" result="shape"/><feColorMatrix in="SourceAlpha" result="hardAlpha" values="0 0 0 0 0 0 0 0 0 0 0 0 0 0 0 0 0 0 127 0"/><feOffset dx=".15" dy=".15"/><feGaussianBlur stdDeviation=".15"/><feComposite in2="hardAlpha" k2="-1" k3="1" operator="arithmetic"/><feColorMatrix values="0 0 0 0 0.415686 0 0 0 0 0.607843 0 0 0 0 0.513726 0 0 0 1 0"/><feBlend in2="shape" result="effect1_innerShadow_28327_6314"/></filter><filter id="f190id17" width="5.391" height="6.969" x="7.625" y="2.375" color-interpolation-filters="sRGB" filterUnits="userSpaceOnUse"><feFlood flood-opacity="0" result="BackgroundImageFix"/><feBlend in="SourceGraphic" in2="BackgroundImageFix" result="shape"/><feGaussianBlur result="effect1_foregroundBlur_28327_6314" stdDeviation=".25"/></filter><filter id="f190id18" width="20.313" height="20.563" x="5.313" y="5.719" color-interpolation-filters="sRGB" filterUnits="userSpaceOnUse"><feFlood flood-opacity="0" result="BackgroundImageFix"/><feBlend in="SourceGraphic" in2="BackgroundImageFix" result="shape"/><feGaussianBlur result="effect1_foregroundBlur_28327_6314" stdDeviation="1.5"/></filter><filter id="f190id19" width="4.941" height="5.487" x="2.381" y="2.241" color-interpolation-filters="sRGB" filterUnits="userSpaceOnUse"><feFlood flood-opacity="0" result="BackgroundImageFix"/><feBlend in="SourceGraphic" in2="BackgroundImageFix" result="shape"/><feGaussianBlur result="effect1_foregroundBlur_28327_6314" stdDeviation=".2"/></filter></defs></g></svg>