<svg xmlns="http://www.w3.org/2000/svg" width="1em" height="1em" viewBox="0 0 32 32"><g fill="none"><path fill="url(#f329id0)" d="M10 10H6.09C3.83 10 2 8.17 2 5.91V4.62c0-.34.28-.62.62-.62H5.9C8.17 4 10 5.83 10 8.09z"/><path fill="url(#f329id1)" d="M10 10H6.09C3.83 10 2 8.17 2 5.91V4.62c0-.34.28-.62.62-.62H5.9C8.17 4 10 5.83 10 8.09z"/><path fill="url(#f329ido)" d="M10 10H6.09C3.83 10 2 8.17 2 5.91V4.62c0-.34.28-.62.62-.62H5.9C8.17 4 10 5.83 10 8.09z"/><path fill="url(#f329idp)" d="M16 29.99a5.65 5.65 0 1 0 0-11.3a5.65 5.65 0 0 0 0 11.3"/><path fill="url(#f329id2)" d="M14.13 6.24a3.982 3.982 0 0 1-.15-3.7c.14-.31-.16-.63-.47-.51c-.25.1-.49.22-.72.38a4.012 4.012 0 0 0-1.34 5.18A3.994 3.994 0 0 0 17 9.2c.46-.27.85-.61 1.15-1c-1.57.22-3.18-.51-4.02-1.96"/><path fill="url(#f329id3)" d="M14.13 6.24a3.982 3.982 0 0 1-.15-3.7c.14-.31-.16-.63-.47-.51c-.25.1-.49.22-.72.38a4.012 4.012 0 0 0-1.34 5.18A3.994 3.994 0 0 0 17 9.2c.46-.27.85-.61 1.15-1c-1.57.22-3.18-.51-4.02-1.96"/><path fill="url(#f329idq)" fill-opacity="0.75" d="M14.13 6.24a3.982 3.982 0 0 1-.15-3.7c.14-.31-.16-.63-.47-.51c-.25.1-.49.22-.72.38a4.012 4.012 0 0 0-1.34 5.18A3.994 3.994 0 0 0 17 9.2c.46-.27.85-.61 1.15-1c-1.57.22-3.18-.51-4.02-1.96"/><g filter="url(#f329id12)"><path stroke="url(#f329id4)" stroke-linecap="round" stroke-width="0.25" d="M13.61 2.506c-.459.547-1.166 2.066-.329 3.766"/></g><path fill="url(#f329id5)" d="M18.87 6.24c.68-1.18.69-2.56.15-3.7c-.14-.31.16-.63.47-.51c.25.1.49.22.72.38a4.012 4.012 0 0 1 1.34 5.18A3.994 3.994 0 0 1 16 9.2c-.46-.27-.85-.61-1.15-1c1.57.22 3.18-.51 4.02-1.96"/><path fill="url(#f329id6)" d="M18.87 6.24c.68-1.18.69-2.56.15-3.7c-.14-.31.16-.63.47-.51c.25.1.49.22.72.38a4.012 4.012 0 0 1 1.34 5.18A3.994 3.994 0 0 1 16 9.2c-.46-.27-.85-.61-1.15-1c1.57.22 3.18-.51 4.02-1.96"/><g filter="url(#f329id13)"><path stroke="url(#f329id7)" stroke-linecap="round" stroke-width="0.25" d="M19.766 2.584c.64.297 1.828 2.313 1.312 3.875"/></g><path fill="url(#f329id8)" d="M19.724 6h-8.411C8.743 6 7 8.438 7 10.69v11.78h18V10.69C25 8.1 22.637 6 19.724 6"/><path fill="url(#f329id9)" d="M19.724 6h-8.411C8.743 6 7 8.438 7 10.69v11.78h18V10.69C25 8.1 22.637 6 19.724 6"/><path fill="url(#f329ida)" d="M19.724 6h-8.411C8.743 6 7 8.438 7 10.69v11.78h18V10.69C25 8.1 22.637 6 19.724 6"/><path fill="url(#f329idr)" d="M19.724 6h-8.411C8.743 6 7 8.438 7 10.69v11.78h18V10.69C25 8.1 22.637 6 19.724 6"/><path fill="url(#f329ids)" d="M5.91 5.5c1.17 0 2.17.78 2.48 1.85c-.34.34-.62.73-.85 1.15H6.09A2.59 2.59 0 0 1 3.5 5.91v-.2c0-.12.09-.21.21-.21z"/><path fill="url(#f329idt)" d="M5.91 5.5c1.17 0 2.17.78 2.48 1.85c-.34.34-.62.73-.85 1.15H6.09A2.59 2.59 0 0 1 3.5 5.91v-.2c0-.12.09-.21.21-.21z"/><path fill="url(#f329idb)" d="M22 10h3.91C28.17 10 30 8.17 30 5.91V4.62c0-.34-.28-.62-.63-.62h-3.28C23.83 4 22 5.83 22 8.09z"/><path fill="url(#f329idc)" d="M22 10h3.91C28.17 10 30 8.17 30 5.91V4.62c0-.34-.28-.62-.63-.62h-3.28C23.83 4 22 5.83 22 8.09z"/><path fill="url(#f329idu)" d="M22 10h3.91C28.17 10 30 8.17 30 5.91V4.62c0-.34-.28-.62-.63-.62h-3.28C23.83 4 22 5.83 22 8.09z"/><path fill="url(#f329idv)" d="M22.3 10h2.65c-.33-2.26-2.28-4-4.64-4H16l2.38 2.38A5.54 5.54 0 0 0 22.3 10"/><path fill="url(#f329idd)" d="M16 18.46v-4.51c0-3.276-3.77-7.495-6.52-7.495C8.363 6.995 7 8.502 7 10.51V20z"/><path fill="url(#f329ide)" d="M16 18.46v-4.51c0-3.276-3.77-7.495-6.52-7.495C8.363 6.995 7 8.502 7 10.51V20z"/><path fill="url(#f329idf)" d="M26 22.421c-.04-3.01-2.53-5.43-5.52-5.42h-8.87c-3.03-.06-5.57 2.39-5.61 5.42a5.502 5.502 0 0 0 5.5 5.58h9c3.06 0 5.54-2.5 5.5-5.58"/><path fill="url(#f329idw)" d="M26 22.421c-.04-3.01-2.53-5.43-5.52-5.42h-8.87c-3.03-.06-5.57 2.39-5.61 5.42a5.502 5.502 0 0 0 5.5 5.58h9c3.06 0 5.54-2.5 5.5-5.58"/><path fill="url(#f329idg)" d="M26 22.421c-.04-3.01-2.53-5.43-5.52-5.42h-8.87c-3.03-.06-5.57 2.39-5.61 5.42a5.502 5.502 0 0 0 5.5 5.58h9c3.06 0 5.54-2.5 5.5-5.58"/><path fill="url(#f329idh)" d="M26 22.421c-.04-3.01-2.53-5.43-5.52-5.42h-8.87c-3.03-.06-5.57 2.39-5.61 5.42a5.502 5.502 0 0 0 5.5 5.58h9c3.06 0 5.54-2.5 5.5-5.58"/><path fill="#f4b9a8" d="M26.09 5.5c-1.17 0-2.17.78-2.48 1.85c.34.33.63.72.85 1.15h1.45a2.59 2.59 0 0 0 2.59-2.59v-.2c0-.12-.09-.21-.21-.21z"/><g filter="url(#f329id14)"><path fill="url(#f329idx)" d="M26.09 5.5c-1.17 0-2.17.78-2.48 1.85c.34.33.63.72.85 1.15h1.45a2.59 2.59 0 0 0 2.59-2.59v-.2c0-.12-.09-.21-.21-.21z"/></g><path fill="url(#f329idy)" d="M13 22a1 1 0 1 0 0-2a1 1 0 0 0 0 2"/><path fill="url(#f329idz)" d="M19 22a1 1 0 1 0 0-2a1 1 0 0 0 0 2"/><g filter="url(#f329id15)"><rect width="1.655" height="2.689" x="11.095" y="13.155" fill="#4e4854" rx=".828"/></g><rect width="1.5" height="3" x="11.25" y="13" fill="url(#f329idi)" rx=".75"/><rect width="1.5" height="3" x="11.25" y="13" fill="url(#f329idj)" rx=".75"/><rect width="1.5" height="3" x="11.25" y="13" fill="url(#f329idk)" rx=".75"/><g filter="url(#f329id16)"><rect width="1.345" height="2.689" x="19.045" y="13.155" fill="#bbb1bb" rx=".672"/></g><rect width="1.5" height="3" x="19.25" y="13" fill="url(#f329idl)" rx=".75"/><rect width="1.5" height="3" x="19.25" y="13" fill="url(#f329idm)" rx=".75"/><rect width="1.5" height="3" x="19.25" y="13" fill="url(#f329idn)" rx=".75"/><rect width="1.5" height="3" x="19.25" y="13" fill="url(#f329id10)" rx=".75"/><g filter="url(#f329id17)"><ellipse cx="22.226" cy="21" fill="url(#f329id11)" rx="3.654" ry="2.988" transform="rotate(47.966 22.226 21)"/></g><defs><linearGradient id="f329id0" x1="4.781" x2="7.094" y1="8.287" y2="5.631" gradientUnits="userSpaceOnUse"><stop stop-color="#626061"/><stop offset="1" stop-color="#727273"/></linearGradient><linearGradient id="f329id1" x1="6.313" x2="6.313" y1="10.631" y2="7.569" gradientUnits="userSpaceOnUse"><stop stop-color="#5f4478"/><stop offset="1" stop-color="#5c4c69" stop-opacity="0"/></linearGradient><linearGradient id="f329id2" x1="17.776" x2="17.776" y1="2.004" y2="8.1" gradientUnits="userSpaceOnUse"><stop stop-color="#f6d4ad"/><stop offset="1" stop-color="#d9ae7f"/></linearGradient><linearGradient id="f329id3" x1="13.094" x2="14.219" y1="8.444" y2="5.873" gradientUnits="userSpaceOnUse"><stop stop-color="#cb9964"/><stop offset="1" stop-color="#cb9964" stop-opacity="0"/></linearGradient><linearGradient id="f329id4" x1="13.391" x2="13.609" y1="3.084" y2="8.553" gradientUnits="userSpaceOnUse"><stop stop-color="#fff5e8"/><stop offset="1" stop-color="#ffe3bf" stop-opacity="0"/></linearGradient><linearGradient id="f329id5" x1="21.625" x2="21.625" y1="-.15" y2="7.725" gradientUnits="userSpaceOnUse"><stop stop-color="#f6d4ad"/><stop offset="1" stop-color="#d9ae7f"/></linearGradient><linearGradient id="f329id6" x1="22.375" x2="20.469" y1="7.412" y2="5.873" gradientUnits="userSpaceOnUse"><stop stop-color="#cb9964"/><stop offset="1" stop-color="#cb9964" stop-opacity="0"/></linearGradient><linearGradient id="f329id7" x1="20.236" x2="20.017" y1="3.084" y2="8.553" gradientUnits="userSpaceOnUse"><stop stop-color="#fff5e8"/><stop offset="1" stop-color="#ffe3bf" stop-opacity="0"/></linearGradient><linearGradient id="f329id8" x1="11.625" x2="28.375" y1="18.787" y2="18.787" gradientUnits="userSpaceOnUse"><stop stop-color="#d4d1d7"/><stop offset="1" stop-color="#fbf6ff"/></linearGradient><linearGradient id="f329id9" x1="23" x2="25.75" y1="18.787" y2="18.787" gradientUnits="userSpaceOnUse"><stop stop-color="#d4d1d7" stop-opacity="0"/><stop offset="1" stop-color="#d4d1d7"/></linearGradient><linearGradient id="f329ida" x1="14.844" x2="12.406" y1="8.881" y2="5.475" gradientUnits="userSpaceOnUse"><stop stop-color="#c3c0c7" stop-opacity="0"/><stop offset="1" stop-color="#bcb7c0"/></linearGradient><linearGradient id="f329idb" x1="24.781" x2="27.094" y1="8.287" y2="5.631" gradientUnits="userSpaceOnUse"><stop stop-color="#626061"/><stop offset="1" stop-color="#727273"/></linearGradient><linearGradient id="f329idc" x1="26.313" x2="26.313" y1="10.381" y2="7.506" gradientUnits="userSpaceOnUse"><stop stop-color="#5c4c69"/><stop offset="1" stop-color="#5c4c69" stop-opacity="0"/></linearGradient><linearGradient id="f329idd" x1="16.375" x2="9.563" y1="11.705" y2="11.705" gradientUnits="userSpaceOnUse"><stop stop-color="#706973"/><stop offset="1" stop-color="#6b696d"/></linearGradient><linearGradient id="f329ide" x1="8.75" x2="5.438" y1="16.971" y2="16.971" gradientUnits="userSpaceOnUse"><stop stop-color="#828183" stop-opacity="0"/><stop offset=".896" stop-color="#828183"/><stop offset="1" stop-color="#828183"/></linearGradient><linearGradient id="f329idf" x1="6.563" x2="20.313" y1="21.1" y2="21.1" gradientUnits="userSpaceOnUse"><stop stop-color="#e7a8a9"/><stop offset="1" stop-color="#f3b9ad"/></linearGradient><linearGradient id="f329idg" x1="16.563" x2="16.563" y1="23.975" y2="29.412" gradientUnits="userSpaceOnUse"><stop offset=".432" stop-color="#d17dae" stop-opacity="0"/><stop offset="1" stop-color="#ad618f"/></linearGradient><linearGradient id="f329idh" x1="16.563" x2="16.563" y1="23.975" y2="14.037" gradientUnits="userSpaceOnUse"><stop offset=".604" stop-color="#de9e8f" stop-opacity="0"/><stop offset="1" stop-color="#de9e8f"/></linearGradient><linearGradient id="f329idi" x1="12.75" x2="11.882" y1="14.5" y2="14.5" gradientUnits="userSpaceOnUse"><stop offset=".307" stop-color="#615154"/><stop offset="1" stop-color="#392833"/></linearGradient><linearGradient id="f329idj" x1="12.984" x2="12.984" y1="16.044" y2="14.634" gradientUnits="userSpaceOnUse"><stop stop-color="#552d52"/><stop offset="1" stop-color="#552d52" stop-opacity="0"/></linearGradient><linearGradient id="f329idk" x1="10.754" x2="11.551" y1="15.207" y2="15.207" gradientUnits="userSpaceOnUse"><stop stop-color="#594c4f"/><stop offset="1" stop-color="#594c4f" stop-opacity="0"/></linearGradient><linearGradient id="f329idl" x1="20.75" x2="19.882" y1="14.5" y2="14.5" gradientUnits="userSpaceOnUse"><stop offset=".225" stop-color="#594c4f"/><stop offset="1" stop-color="#392833"/></linearGradient><linearGradient id="f329idm" x1="20.984" x2="20.984" y1="16.044" y2="14.634" gradientUnits="userSpaceOnUse"><stop stop-color="#552d52"/><stop offset="1" stop-color="#552d52" stop-opacity="0"/></linearGradient><linearGradient id="f329idn" x1="18.754" x2="19.787" y1="15.207" y2="15.207" gradientUnits="userSpaceOnUse"><stop stop-color="#594c4f"/><stop offset="1" stop-color="#594c4f" stop-opacity="0"/></linearGradient><radialGradient id="f329ido" cx="0" cy="0" r="1" gradientTransform="matrix(-1.40625 1 -1.79108 -2.51871 8.625 5.6)" gradientUnits="userSpaceOnUse"><stop stop-color="#878688"/><stop offset="1" stop-color="#878688" stop-opacity="0"/></radialGradient><radialGradient id="f329idp" cx="0" cy="0" r="1" gradientTransform="matrix(0 1.0625 -4.52952 0 16 28.375)" gradientUnits="userSpaceOnUse"><stop stop-color="#d04568"/><stop offset="1" stop-color="#da6585"/></radialGradient><radialGradient id="f329idq" cx="0" cy="0" r="1" gradientTransform="matrix(-2 -.79687 1.41862 -3.5605 13.281 4.662)" gradientUnits="userSpaceOnUse"><stop offset=".687" stop-color="#cb9964" stop-opacity="0"/><stop offset="1" stop-color="#cb9964"/></radialGradient><radialGradient id="f329idr" cx="0" cy="0" r="1" gradientTransform="matrix(3.8125 3.9375 -3.3708 3.2638 10.813 7.037)" gradientUnits="userSpaceOnUse"><stop stop-color="#d4d1d7"/><stop offset="1" stop-color="#d4d1d7" stop-opacity="0"/></radialGradient><radialGradient id="f329ids" cx="0" cy="0" r="1" gradientTransform="matrix(-2.85937 -1.6094 1.08885 -1.93453 5.11 7.96)" gradientUnits="userSpaceOnUse"><stop stop-color="#ffb6ae"/><stop offset="1" stop-color="#e58082"/></radialGradient><radialGradient id="f329idt" cx="0" cy="0" r="1" gradientTransform="matrix(-.2425 1.77506 -2.86977 -.39204 6.187 5.224)" gradientUnits="userSpaceOnUse"><stop stop-color="#db7376"/><stop offset="1" stop-color="#db7376" stop-opacity="0"/></radialGradient><radialGradient id="f329idu" cx="0" cy="0" r="1" gradientTransform="rotate(141.017 13.478 7.746)scale(4.32169 1.46602)" gradientUnits="userSpaceOnUse"><stop stop-color="#878688"/><stop offset="1" stop-color="#878688" stop-opacity="0"/></radialGradient><radialGradient id="f329idv" cx="0" cy="0" r="1" gradientTransform="matrix(.4375 -3.52506 4.075 .50576 20.875 10)" gradientUnits="userSpaceOnUse"><stop stop-color="#8c8b8d"/><stop offset="1" stop-color="#747474"/></radialGradient><radialGradient id="f329idw" cx="0" cy="0" r="1" gradientTransform="matrix(-.5625 9.8125 -20.78408 -1.19145 17.125 19.975)" gradientUnits="userSpaceOnUse"><stop offset=".432" stop-color="#d17dae" stop-opacity="0"/><stop offset="1" stop-color="#ce79ad"/></radialGradient><radialGradient id="f329idx" cx="0" cy="0" r="1" gradientTransform="matrix(4.15625 -2.53743 .95778 1.56882 24.063 8.037)" gradientUnits="userSpaceOnUse"><stop stop-color="#ffb6ae"/><stop offset=".931" stop-color="#e58082"/></radialGradient><radialGradient id="f329idy" cx="0" cy="0" r="1" gradientTransform="translate(12.344 21)scale(1.15625)" gradientUnits="userSpaceOnUse"><stop stop-color="#ffa0a8"/><stop offset="1" stop-color="#fe7883"/></radialGradient><radialGradient id="f329idz" cx="0" cy="0" r="1" gradientTransform="translate(18.484 21)scale(1.10938)" gradientUnits="userSpaceOnUse"><stop stop-color="#ffa0a8"/><stop offset="1" stop-color="#fe7883"/></radialGradient><radialGradient id="f329id10" cx="0" cy="0" r="1" gradientTransform="matrix(-.57862 -1.63534 1.58971 -.56248 20.292 14.68)" gradientUnits="userSpaceOnUse"><stop offset=".814" stop-color="#594c4f" stop-opacity="0"/><stop offset="1" stop-color="#594c4f"/></radialGradient><radialGradient id="f329id11" cx="0" cy="0" r="1" gradientTransform="rotate(90.557 1.566 20.69)scale(4.66288 4.48435)" gradientUnits="userSpaceOnUse"><stop stop-color="#ffd9cf"/><stop stop-color="#ffd9cf"/><stop offset="1" stop-color="#ffd9cf" stop-opacity="0"/></radialGradient><filter id="f329id12" width="2.467" height="5.516" x="12.017" y="1.631" color-interpolation-filters="sRGB" filterUnits="userSpaceOnUse"><feFlood flood-opacity="0" result="BackgroundImageFix"/><feBlend in="SourceGraphic" in2="BackgroundImageFix" result="shape"/><feGaussianBlur result="effect1_foregroundBlur_28327_2767" stdDeviation=".375"/></filter><filter id="f329id13" width="3.189" height="5.625" x="18.891" y="1.709" color-interpolation-filters="sRGB" filterUnits="userSpaceOnUse"><feFlood flood-opacity="0" result="BackgroundImageFix"/><feBlend in="SourceGraphic" in2="BackgroundImageFix" result="shape"/><feGaussianBlur result="effect1_foregroundBlur_28327_2767" stdDeviation=".375"/></filter><filter id="f329id14" width="4.89" height="3.3" x="23.61" y="5.5" color-interpolation-filters="sRGB" filterUnits="userSpaceOnUse"><feFlood flood-opacity="0" result="BackgroundImageFix"/><feBlend in="SourceGraphic" in2="BackgroundImageFix" result="shape"/><feColorMatrix in="SourceAlpha" result="hardAlpha" values="0 0 0 0 0 0 0 0 0 0 0 0 0 0 0 0 0 0 127 0"/><feOffset dy=".3"/><feGaussianBlur stdDeviation=".25"/><feComposite in2="hardAlpha" k2="-1" k3="1" operator="arithmetic"/><feColorMatrix values="0 0 0 0 0.890196 0 0 0 0 0.486275 0 0 0 0 0.490196 0 0 0 1 0"/><feBlend in2="shape" result="effect1_innerShadow_28327_2767"/></filter><filter id="f329id15" width="2.655" height="3.689" x="10.595" y="12.655" color-interpolation-filters="sRGB" filterUnits="userSpaceOnUse"><feFlood flood-opacity="0" result="BackgroundImageFix"/><feBlend in="SourceGraphic" in2="BackgroundImageFix" result="shape"/><feGaussianBlur result="effect1_foregroundBlur_28327_2767" stdDeviation=".25"/></filter><filter id="f329id16" width="2.345" height="3.689" x="18.545" y="12.655" color-interpolation-filters="sRGB" filterUnits="userSpaceOnUse"><feFlood flood-opacity="0" result="BackgroundImageFix"/><feBlend in="SourceGraphic" in2="BackgroundImageFix" result="shape"/><feGaussianBlur result="effect1_foregroundBlur_28327_2767" stdDeviation=".25"/></filter><filter id="f329id17" width="8.607" height="8.744" x="17.922" y="16.628" color-interpolation-filters="sRGB" filterUnits="userSpaceOnUse"><feFlood flood-opacity="0" result="BackgroundImageFix"/><feBlend in="SourceGraphic" in2="BackgroundImageFix" result="shape"/><feGaussianBlur result="effect1_foregroundBlur_28327_2767" stdDeviation=".5"/></filter></defs></g></svg>