<svg xmlns="http://www.w3.org/2000/svg" width="1em" height="1em" viewBox="0 0 32 32"><g fill="none"><path fill="url(#f354id0)" d="M13.881 12.053a1.14 1.14 0 1 0 0-2.28a1.14 1.14 0 0 0 0 2.28"/><path fill="url(#f354id1)" d="M9.537 17.521a1.14 1.14 0 1 0 0-2.28a1.14 1.14 0 0 0 0 2.28"/><path fill="url(#f354id2)" d="M17.756 25.803a1.14 1.14 0 1 0 0-2.28a1.14 1.14 0 0 0 0 2.28"/><path fill="url(#f354id3)" d="M17.756 25.803a1.14 1.14 0 1 0 0-2.28a1.14 1.14 0 0 0 0 2.28"/><path fill="url(#f354id4)" d="M24.194 18.113a1.14 1.14 0 1 0 0-2.28a1.14 1.14 0 0 0 0 2.28"/><path fill="url(#f354id5)" d="M24.194 18.113a1.14 1.14 0 1 0 0-2.28a1.14 1.14 0 0 0 0 2.28"/><path fill="#6fa755" d="M5.437 19.75c1.9-1.45 5.474-4.566 6.782-6.281c2.906-3.813 3.906-6.594 5.156-8.75C18.653 2.514 21.87.85 25.5 2.938c2.812 1.617 3.062 4.593 2.687 5.968c-1.603 5.881-8.617 15.793-14.906 19.657c-4.055 2.491-6.406.921-8.031-.594c-2.185-2.038-2.188-6.407.187-8.219"/><path fill="url(#f354id6)" d="M5.437 19.75c1.9-1.45 5.474-4.566 6.782-6.281c2.906-3.813 3.906-6.594 5.156-8.75C18.653 2.514 21.87.85 25.5 2.938c2.812 1.617 3.062 4.593 2.687 5.968c-1.603 5.881-8.617 15.793-14.906 19.657c-4.055 2.491-6.406.921-8.031-.594c-2.185-2.038-2.188-6.407.187-8.219"/><path fill="url(#f354id7)" d="M5.437 19.75c1.9-1.45 5.474-4.566 6.782-6.281c2.906-3.813 3.906-6.594 5.156-8.75C18.653 2.514 21.87.85 25.5 2.938c2.812 1.617 3.062 4.593 2.687 5.968c-1.603 5.881-8.617 15.793-14.906 19.657c-4.055 2.491-6.406.921-8.031-.594c-2.185-2.038-2.188-6.407.187-8.219"/><path fill="url(#f354id8)" d="M5.437 19.75c1.9-1.45 5.474-4.566 6.782-6.281c2.906-3.813 3.906-6.594 5.156-8.75C18.653 2.514 21.87.85 25.5 2.938c2.812 1.617 3.062 4.593 2.687 5.968c-1.603 5.881-8.617 15.793-14.906 19.657c-4.055 2.491-6.406.921-8.031-.594c-2.185-2.038-2.188-6.407.187-8.219"/><path fill="url(#f354id9)" d="M5.437 19.75c1.9-1.45 5.474-4.566 6.782-6.281c2.906-3.813 3.906-6.594 5.156-8.75C18.653 2.514 21.87.85 25.5 2.938c2.812 1.617 3.062 4.593 2.687 5.968c-1.603 5.881-8.617 15.793-14.906 19.657c-4.055 2.491-6.406.921-8.031-.594c-2.185-2.038-2.188-6.407.187-8.219"/><g filter="url(#f354idk)"><path fill="url(#f354ida)" d="M9.537 24.05a1.14 1.14 0 1 0 0-2.28a1.14 1.14 0 0 0 0 2.28"/><path fill="#3f7d58" d="M9.537 24.05a1.14 1.14 0 1 0 0-2.28a1.14 1.14 0 0 0 0 2.28"/></g><path fill="url(#f354idb)" d="M10.288 24.05a1.14 1.14 0 1 0 0-2.28a1.14 1.14 0 0 0 0 2.28"/><path fill="url(#f354idc)" d="M10.288 24.05a1.14 1.14 0 1 0 0-2.28a1.14 1.14 0 0 0 0 2.28"/><g filter="url(#f354idl)"><path fill="url(#f354idd)" d="M15.978 18.113a1.14 1.14 0 1 0 0-2.28a1.14 1.14 0 0 0 0 2.28"/><path fill="#5a9154" d="M15.978 18.113a1.14 1.14 0 1 0 0-2.28a1.14 1.14 0 0 0 0 2.28"/></g><path fill="url(#f354ide)" d="M16.41 18.113a1.14 1.14 0 1 0 0-2.28a1.14 1.14 0 0 0 0 2.28"/><path fill="url(#f354idf)" d="M16.41 18.113a1.14 1.14 0 1 0 0-2.28a1.14 1.14 0 0 0 0 2.28"/><g filter="url(#f354idm)"><path fill="url(#f354idg)" d="M20.913 11.365a1.14 1.14 0 1 0 0-2.28a1.14 1.14 0 0 0 0 2.28"/><path fill="#6da343" d="M20.913 11.365a1.14 1.14 0 1 0 0-2.28a1.14 1.14 0 0 0 0 2.28"/></g><path fill="url(#f354idh)" d="M21.288 11.178a1.14 1.14 0 1 0 0-2.28a1.14 1.14 0 0 0 0 2.28"/><path fill="url(#f354idi)" d="M21.288 11.178a1.14 1.14 0 1 0 0-2.28a1.14 1.14 0 0 0 0 2.28"/><g filter="url(#f354idn)"><ellipse cx="24.951" cy="6.136" fill="url(#f354idj)" rx="2.527" ry="3.093" transform="rotate(-28.883 24.95 6.136)"/></g><defs><radialGradient id="f354id0" cx="0" cy="0" r="1" gradientTransform="rotate(90.116 1.966 11.911)scale(2.08001)" gradientUnits="userSpaceOnUse"><stop offset=".011" stop-color="#639437"/><stop offset="1" stop-color="#3d694b"/></radialGradient><radialGradient id="f354id1" cx="0" cy="0" r="1" gradientTransform="rotate(90.116 -2.934 12.478)scale(2.08001)" gradientUnits="userSpaceOnUse"><stop offset=".011" stop-color="#639437"/><stop offset="1" stop-color="#3d694b"/></radialGradient><radialGradient id="f354id2" cx="0" cy="0" r="1" gradientTransform="rotate(97.999 -1.443 19.395)scale(2.47032)" gradientUnits="userSpaceOnUse"><stop offset=".011" stop-color="#8ed800"/><stop offset=".458" stop-color="#71a855"/><stop offset=".847" stop-color="#407a78"/></radialGradient><radialGradient id="f354id3" cx="0" cy="0" r="1" gradientTransform="rotate(126.206 3.018 16.766)scale(.96821)" gradientUnits="userSpaceOnUse"><stop stop-color="#9acc73"/><stop offset="1" stop-color="#9acc73" stop-opacity="0"/></radialGradient><radialGradient id="f354id4" cx="0" cy="0" r="1" gradientTransform="rotate(97.999 5.118 18.348)scale(2.47032)" gradientUnits="userSpaceOnUse"><stop offset=".011" stop-color="#8ed800"/><stop offset=".458" stop-color="#71a855"/><stop offset=".847" stop-color="#407a78"/></radialGradient><radialGradient id="f354id5" cx="0" cy="0" r="1" gradientTransform="rotate(126.206 8.187 14.553)scale(.96821)" gradientUnits="userSpaceOnUse"><stop stop-color="#9acc73"/><stop offset="1" stop-color="#9acc73" stop-opacity="0"/></radialGradient><radialGradient id="f354id6" cx="0" cy="0" r="1" gradientTransform="matrix(-22.81238 27.12514 -15.8166 -13.30185 6.125 8.5)" gradientUnits="userSpaceOnUse"><stop stop-color="#67993c"/><stop offset=".455" stop-color="#659c4a"/><stop offset=".695" stop-color="#87b96b"/><stop offset=".754" stop-color="#87b96b"/><stop offset="1" stop-color="#7d9f82"/></radialGradient><radialGradient id="f354id7" cx="0" cy="0" r="1" gradientTransform="matrix(-8.24998 -7.18754 7.38231 -8.47354 27.375 6.563)" gradientUnits="userSpaceOnUse"><stop stop-color="#b2f465"/><stop offset=".572" stop-color="#88c839"/><stop offset=".98" stop-color="#82c03b" stop-opacity="0"/></radialGradient><radialGradient id="f354id8" cx="0" cy="0" r="1" gradientTransform="rotate(-15.73 106.18 4.062)scale(20.5184 18.2098)" gradientUnits="userSpaceOnUse"><stop offset=".123" stop-color="#3a666d"/><stop offset="1" stop-color="#406a5e" stop-opacity="0"/></radialGradient><radialGradient id="f354id9" cx="0" cy="0" r="1" gradientTransform="matrix(-20.43753 21.62493 -10.28232 -9.71773 19.813 11.125)" gradientUnits="userSpaceOnUse"><stop offset=".559" stop-color="#7767ba" stop-opacity="0"/><stop offset=".707" stop-color="#7767b9" stop-opacity="0.241"/><stop offset=".785" stop-color="#7566b7"/></radialGradient><radialGradient id="f354ida" cx="0" cy="0" r="1" gradientTransform="rotate(97.999 -4.79 14.946)scale(2.47032)" gradientUnits="userSpaceOnUse"><stop offset=".011" stop-color="#86bb3f"/><stop offset=".458" stop-color="#6e9f5c"/><stop offset=".847" stop-color="#326d7e"/></radialGradient><radialGradient id="f354idb" cx="0" cy="0" r="1" gradientTransform="rotate(97.999 -4.416 15.272)scale(2.47032)" gradientUnits="userSpaceOnUse"><stop offset=".011" stop-color="#86bb3f"/><stop offset=".458" stop-color="#6e9f5c"/><stop offset=".847" stop-color="#326d7e"/></radialGradient><radialGradient id="f354idc" cx="0" cy="0" r="1" gradientTransform="rotate(126.206 -.273 13.995)scale(.96821)" gradientUnits="userSpaceOnUse"><stop stop-color="#99c574"/><stop offset="1" stop-color="#99c670" stop-opacity="0"/></radialGradient><radialGradient id="f354idd" cx="0" cy="0" r="1" gradientTransform="rotate(97.999 1.01 14.777)scale(2.47032)" gradientUnits="userSpaceOnUse"><stop offset=".011" stop-color="#8ed800"/><stop offset=".458" stop-color="#71a855"/><stop offset=".847" stop-color="#407a78"/></radialGradient><radialGradient id="f354ide" cx="0" cy="0" r="1" gradientTransform="rotate(97.999 1.227 14.965)scale(2.47032)" gradientUnits="userSpaceOnUse"><stop offset=".011" stop-color="#8ed800"/><stop offset=".458" stop-color="#71a855"/><stop offset=".847" stop-color="#407a78"/></radialGradient><radialGradient id="f354idf" cx="0" cy="0" r="1" gradientTransform="rotate(126.206 4.295 12.58)scale(.96821)" gradientUnits="userSpaceOnUse"><stop stop-color="#9acc73"/><stop offset="1" stop-color="#9acc73" stop-opacity="0"/></radialGradient><radialGradient id="f354idg" cx="0" cy="0" r="1" gradientTransform="rotate(97.999 6.41 13.548)scale(2.47032)" gradientUnits="userSpaceOnUse"><stop offset=".011" stop-color="#8ed800"/><stop offset=".458" stop-color="#71a855"/><stop offset=".847" stop-color="#407a78"/></radialGradient><radialGradient id="f354idh" cx="0" cy="0" r="1" gradientTransform="rotate(97.999 6.68 13.617)scale(2.47032)" gradientUnits="userSpaceOnUse"><stop offset=".011" stop-color="#8ed800"/><stop offset=".458" stop-color="#71a855"/><stop offset=".847" stop-color="#407a78"/></radialGradient><radialGradient id="f354idi" cx="0" cy="0" r="1" gradientTransform="rotate(126.206 8.493 10.35)scale(.96821)" gradientUnits="userSpaceOnUse"><stop stop-color="#9acc73"/><stop offset="1" stop-color="#9acc73" stop-opacity="0"/></radialGradient><radialGradient id="f354idj" cx="0" cy="0" r="1" gradientTransform="matrix(-3.12698 1.21168 -1.1382 -2.93734 25.697 5.766)" gradientUnits="userSpaceOnUse"><stop stop-color="#b3f663"/><stop offset="1" stop-color="#b1f461" stop-opacity="0"/></radialGradient><filter id="f354idk" width="4.28" height="4.28" x="7.397" y="20.77" color-interpolation-filters="sRGB" filterUnits="userSpaceOnUse"><feFlood flood-opacity="0" result="BackgroundImageFix"/><feBlend in="SourceGraphic" in2="BackgroundImageFix" result="shape"/><feGaussianBlur result="effect1_foregroundBlur_18_31639" stdDeviation=".5"/></filter><filter id="f354idl" width="4.28" height="4.28" x="13.838" y="14.832" color-interpolation-filters="sRGB" filterUnits="userSpaceOnUse"><feFlood flood-opacity="0" result="BackgroundImageFix"/><feBlend in="SourceGraphic" in2="BackgroundImageFix" result="shape"/><feGaussianBlur result="effect1_foregroundBlur_18_31639" stdDeviation=".5"/></filter><filter id="f354idm" width="4.28" height="4.28" x="18.773" y="8.085" color-interpolation-filters="sRGB" filterUnits="userSpaceOnUse"><feFlood flood-opacity="0" result="BackgroundImageFix"/><feBlend in="SourceGraphic" in2="BackgroundImageFix" result="shape"/><feGaussianBlur result="effect1_foregroundBlur_18_31639" stdDeviation=".5"/></filter><filter id="f354idn" width="7.34" height="7.942" x="21.281" y="2.165" color-interpolation-filters="sRGB" filterUnits="userSpaceOnUse"><feFlood flood-opacity="0" result="BackgroundImageFix"/><feBlend in="SourceGraphic" in2="BackgroundImageFix" result="shape"/><feGaussianBlur result="effect1_foregroundBlur_18_31639" stdDeviation=".5"/></filter></defs></g></svg>