<svg xmlns="http://www.w3.org/2000/svg" width="1em" height="1em" viewBox="0 0 32 32"><g fill="none"><path fill="#e06593" d="M15.953 30.01h-1.19a.749.749 0 1 1 0-1.5h.75V19c0-.41.34-.75.75-.75s.75.34.75.76v9.95c0 .58-.48 1.05-1.06 1.05"/><path fill="url(#f532id0)" d="M15.953 30.01h-1.19a.749.749 0 1 1 0-1.5h.75V19c0-.41.34-.75.75-.75s.75.34.75.76v9.95c0 .58-.48 1.05-1.06 1.05"/><path fill="url(#f532id1)" d="M15.953 30.01h-1.19a.749.749 0 1 1 0-1.5h.75V19c0-.41.34-.75.75-.75s.75.34.75.76v9.95c0 .58-.48 1.05-1.06 1.05"/><path fill="url(#f532idi)" d="M15.953 30.01h-1.19a.749.749 0 1 1 0-1.5h.75V19c0-.41.34-.75.75-.75s.75.34.75.76v9.95c0 .58-.48 1.05-1.06 1.05"/><g filter="url(#f532idu)"><path stroke="url(#f532id2)" stroke-linecap="round" stroke-width="0.3" d="M16.45 29.031V18.875"/></g><path fill="url(#f532id3)" d="M11.263 24.5c-.41 0-.75-.34-.75-.75v-.37c0-.76.62-1.38 1.38-1.38h8.44c.1 0 .15-.06.17-.11c.02-.05.04-.12-.02-.2l-3.92-5.02l1.18-.92l3.92 5.02c.4.51.47 1.19.19 1.77c-.28.59-.9.96-1.56.96h-8.28v.24c0 .43-.34.76-.75.76"/><path fill="url(#f532idj)" d="M11.263 24.5c-.41 0-.75-.34-.75-.75v-.37c0-.76.62-1.38 1.38-1.38h8.44c.1 0 .15-.06.17-.11c.02-.05.04-.12-.02-.2l-3.92-5.02l1.18-.92l3.92 5.02c.4.51.47 1.19.19 1.77c-.28.59-.9.96-1.56.96h-8.28v.24c0 .43-.34.76-.75.76"/><path fill="url(#f532id4)" d="M11.263 24.5c-.41 0-.75-.34-.75-.75v-.37c0-.76.62-1.38 1.38-1.38h8.44c.1 0 .15-.06.17-.11c.02-.05.04-.12-.02-.2l-3.92-5.02l1.18-.92l3.92 5.02c.4.51.47 1.19.19 1.77c-.28.59-.9.96-1.56.96h-8.28v.24c0 .43-.34.76-.75.76"/><path fill="url(#f532id5)" d="M16.413 8h-.14c-1.47 0-3.11.74-3.99 1.71l-2.99 2.98c-.29.29-.77.29-1.06 0a.754.754 0 0 1 0-1.06l4.98-4.98A2.723 2.723 0 0 0 11.293 2h-3.09c-1.21 0-2.19.98-2.19 2.19v1.15c0 .28.32.45.55.3l.6-.39c.24-.16.53-.25.82-.25h2.78l-4.16 4.35a5.702 5.702 0 0 0 4.12 9.65h15.13c.66 0 1.19-.56 1.13-1.23c-.43-5.41-5.06-9.7-10.57-9.77"/><path fill="url(#f532id6)" d="M16.413 8h-.14c-1.47 0-3.11.74-3.99 1.71l-2.99 2.98c-.29.29-.77.29-1.06 0a.754.754 0 0 1 0-1.06l4.98-4.98A2.723 2.723 0 0 0 11.293 2h-3.09c-1.21 0-2.19.98-2.19 2.19v1.15c0 .28.32.45.55.3l.6-.39c.24-.16.53-.25.82-.25h2.78l-4.16 4.35a5.702 5.702 0 0 0 4.12 9.65h15.13c.66 0 1.19-.56 1.13-1.23c-.43-5.41-5.06-9.7-10.57-9.77"/><path fill="url(#f532idk)" d="M16.413 8h-.14c-1.47 0-3.11.74-3.99 1.71l-2.99 2.98c-.29.29-.77.29-1.06 0a.754.754 0 0 1 0-1.06l4.98-4.98A2.723 2.723 0 0 0 11.293 2h-3.09c-1.21 0-2.19.98-2.19 2.19v1.15c0 .28.32.45.55.3l.6-.39c.24-.16.53-.25.82-.25h2.78l-4.16 4.35a5.702 5.702 0 0 0 4.12 9.65h15.13c.66 0 1.19-.56 1.13-1.23c-.43-5.41-5.06-9.7-10.57-9.77"/><path fill="url(#f532idl)" d="M16.413 8h-.14c-1.47 0-3.11.74-3.99 1.71l-2.99 2.98c-.29.29-.77.29-1.06 0a.754.754 0 0 1 0-1.06l4.98-4.98A2.723 2.723 0 0 0 11.293 2h-3.09c-1.21 0-2.19.98-2.19 2.19v1.15c0 .28.32.45.55.3l.6-.39c.24-.16.53-.25.82-.25h2.78l-4.16 4.35a5.702 5.702 0 0 0 4.12 9.65h15.13c.66 0 1.19-.56 1.13-1.23c-.43-5.41-5.06-9.7-10.57-9.77"/><path fill="url(#f532idm)" d="M16.413 8h-.14c-1.47 0-3.11.74-3.99 1.71l-2.99 2.98c-.29.29-.77.29-1.06 0a.754.754 0 0 1 0-1.06l4.98-4.98A2.723 2.723 0 0 0 11.293 2h-3.09c-1.21 0-2.19.98-2.19 2.19v1.15c0 .28.32.45.55.3l.6-.39c.24-.16.53-.25.82-.25h2.78l-4.16 4.35a5.702 5.702 0 0 0 4.12 9.65h15.13c.66 0 1.19-.56 1.13-1.23c-.43-5.41-5.06-9.7-10.57-9.77"/><path fill="url(#f532idn)" d="M16.413 8h-.14c-1.47 0-3.11.74-3.99 1.71l-2.99 2.98c-.29.29-.77.29-1.06 0a.754.754 0 0 1 0-1.06l4.98-4.98A2.723 2.723 0 0 0 11.293 2h-3.09c-1.21 0-2.19.98-2.19 2.19v1.15c0 .28.32.45.55.3l.6-.39c.24-.16.53-.25.82-.25h2.78l-4.16 4.35a5.702 5.702 0 0 0 4.12 9.65h15.13c.66 0 1.19-.56 1.13-1.23c-.43-5.41-5.06-9.7-10.57-9.77"/><g filter="url(#f532idv)"><path fill="url(#f532id7)" d="M24.03 16.9c-.33-4.097-3.434-7.31-7.404-7.31c-2.102 0-3.805 1.797-3.805 4.014c0 2.218 1.703 4.014 3.805 4.014l6.772-.01c.37.01.661-.318.632-.708"/><path fill="url(#f532id8)" fill-opacity="0.5" d="M24.03 16.9c-.33-4.097-3.434-7.31-7.404-7.31c-2.102 0-3.805 1.797-3.805 4.014c0 2.218 1.703 4.014 3.805 4.014l6.772-.01c.37.01.661-.318.632-.708"/></g><path fill="url(#f532id9)" d="M24.773 16.71c-.34-3.99-3.53-7.12-7.61-7.12a3.91 3.91 0 1 0 0 7.82l6.96-.01c.38.01.68-.31.65-.69"/><path fill="url(#f532ido)" d="M24.773 16.71c-.34-3.99-3.53-7.12-7.61-7.12a3.91 3.91 0 1 0 0 7.82l6.96-.01c.38.01.68-.31.65-.69"/><path fill="url(#f532idp)" d="M24.773 16.71c-.34-3.99-3.53-7.12-7.61-7.12a3.91 3.91 0 1 0 0 7.82l6.96-.01c.38.01.68-.31.65-.69"/><path fill="url(#f532idq)" d="M24.773 16.71c-.34-3.99-3.53-7.12-7.61-7.12a3.91 3.91 0 1 0 0 7.82l6.96-.01c.38.01.68-.31.65-.69"/><path fill="url(#f532ida)" d="M8.203 2c-1.21 0-2.19.98-2.19 2.19v1.15c0 .28.32.45.55.3l.6-.39c.24-.16.53-.25.82-.25h2.03V2z"/><path fill="url(#f532idr)" d="M8.203 2c-1.21 0-2.19.98-2.19 2.19v1.15c0 .28.32.45.55.3l.6-.39c.24-.16.53-.25.82-.25h2.03V2z"/><g filter="url(#f532idw)"><path fill="url(#f532idb)" d="m6.37 4.143l-.092 1.2l.227-.862a1 1 0 0 1 .967-.747h1.822V2.297h-.93a2 2 0 0 0-1.993 1.846"/></g><path fill="url(#f532ids)" d="M11.483 4a.5.5 0 1 0 0-1a.5.5 0 0 0 0 1"/><path fill="url(#f532idt)" d="M11.483 4a.5.5 0 1 0 0-1a.5.5 0 0 0 0 1"/><path fill="url(#f532idc)" d="M11.483 4a.5.5 0 1 0 0-1a.5.5 0 0 0 0 1"/><path fill="url(#f532idd)" d="M10.013 2h-1v3h1z"/><g filter="url(#f532idx)"><path stroke="url(#f532ide)" stroke-linecap="round" stroke-width="0.25" d="M11.31 5.266L7.122 9.625c-.734.734-1.203 1.875-1.203 3.172"/></g><g filter="url(#f532idy)"><path stroke="url(#f532idf)" stroke-linecap="round" stroke-opacity="0.75" d="M7.052 11.836c-.172.726.048 1.61.648 2.023c.868.597 1.957.286 2.563-.203c.325-.262 2.067-1.974 2.922-2.86"/></g><g filter="url(#f532idz)"><path stroke="url(#f532idg)" stroke-linecap="round" stroke-width="0.3" d="m19.919 19.469l1.357 1.676c.153.19.237.425.237.668v0c0 .587-.476 1.062-1.062 1.062h-4.626"/></g><g filter="url(#f532id10)"><path stroke="url(#f532idh)" stroke-linecap="round" stroke-width="0.2" d="M20.075 22.875H12.31a.937.937 0 0 0-.938.938v0"/></g><defs><linearGradient id="f532id0" x1="15.888" x2="15.888" y1="18.688" y2="26.219" gradientUnits="userSpaceOnUse"><stop stop-color="#a72574"/><stop offset="1" stop-color="#a72574" stop-opacity="0"/></linearGradient><linearGradient id="f532id1" x1="15.794" x2="15.794" y1="30.125" y2="29.586" gradientUnits="userSpaceOnUse"><stop stop-color="#d952a0"/><stop offset="1" stop-color="#d952a0" stop-opacity="0"/></linearGradient><linearGradient id="f532id2" x1="16.45" x2="19.514" y1="18.531" y2="19.518" gradientUnits="userSpaceOnUse"><stop stop-color="#ff91a9" stop-opacity="0"/><stop offset="1" stop-color="#ff91a9"/></linearGradient><linearGradient id="f532id3" x1="12.794" x2="21.325" y1="23.219" y2="19.5" gradientUnits="userSpaceOnUse"><stop stop-color="#ea64ba"/><stop offset="1" stop-color="#e66793"/></linearGradient><linearGradient id="f532id4" x1="14.95" x2="14.95" y1="24.969" y2="24.344" gradientUnits="userSpaceOnUse"><stop stop-color="#e155c5"/><stop offset="1" stop-color="#e155c5" stop-opacity="0"/></linearGradient><linearGradient id="f532id5" x1="20.763" x2="9.075" y1="22.875" y2="8.813" gradientUnits="userSpaceOnUse"><stop stop-color="#ed5ec4"/><stop offset="1" stop-color="#ef6a8e"/></linearGradient><linearGradient id="f532id6" x1="16" x2="16" y1="19.75" y2="15.25" gradientUnits="userSpaceOnUse"><stop stop-color="#d947aa"/><stop offset="1" stop-color="#d947aa" stop-opacity="0"/></linearGradient><linearGradient id="f532id7" x1="15.606" x2="19.481" y1="9.937" y2="17.156" gradientUnits="userSpaceOnUse"><stop stop-color="#e16081"/><stop offset="1" stop-color="#d445a2"/></linearGradient><linearGradient id="f532id8" x1="11.669" x2="18.427" y1="13.604" y2="13.604" gradientUnits="userSpaceOnUse"><stop stop-color="#bb3c69"/><stop offset="1" stop-color="#e25688" stop-opacity="0"/></linearGradient><linearGradient id="f532id9" x1="23.513" x2="11.075" y1="16" y2="10.688" gradientUnits="userSpaceOnUse"><stop stop-color="#ffa9b9"/><stop offset="1" stop-color="#ff9eb7"/></linearGradient><linearGradient id="f532ida" x1="8.013" x2="8.013" y1="1.578" y2="3.172" gradientUnits="userSpaceOnUse"><stop stop-color="#8e8e8f"/><stop offset="1" stop-color="#6e6576"/></linearGradient><linearGradient id="f532idb" x1="6.372" x2="12.31" y1="3.266" y2="3.266" gradientUnits="userSpaceOnUse"><stop stop-color="#9a999b"/><stop offset="1" stop-color="#9a999b" stop-opacity="0"/></linearGradient><linearGradient id="f532idc" x1="11.384" x2="11.041" y1="3.107" y2="2.889" gradientUnits="userSpaceOnUse"><stop stop-color="#5c5051" stop-opacity="0"/><stop offset="1" stop-color="#5c5051"/></linearGradient><linearGradient id="f532idd" x1="9.513" x2="9.513" y1="2.344" y2="5" gradientUnits="userSpaceOnUse"><stop stop-color="#fff"/><stop offset="1" stop-color="#d3b9d9"/></linearGradient><linearGradient id="f532ide" x1="4.856" x2="11.888" y1="11.078" y2="3.984" gradientUnits="userSpaceOnUse"><stop stop-color="#ff91a9" stop-opacity="0"/><stop offset=".534" stop-color="#ff91a9"/><stop offset="1" stop-color="#ff91a9" stop-opacity="0"/></linearGradient><linearGradient id="f532idf" x1="13.763" x2="9.494" y1="13.563" y2="16.53" gradientUnits="userSpaceOnUse"><stop stop-color="#ff91a9" stop-opacity="0"/><stop offset="1" stop-color="#ff91a9"/></linearGradient><linearGradient id="f532idg" x1="18.794" x2="21.966" y1="20.328" y2="21.526" gradientUnits="userSpaceOnUse"><stop stop-color="#ff9fb4" stop-opacity="0"/><stop offset="1" stop-color="#ff9fb4"/></linearGradient><linearGradient id="f532idh" x1=".513" x2="5.608" y1="23.688" y2="29.672" gradientUnits="userSpaceOnUse"><stop stop-color="#ff9fb4" stop-opacity="0"/><stop offset="1" stop-color="#ff9fb4"/></linearGradient><radialGradient id="f532idi" cx="0" cy="0" r="1" gradientTransform="matrix(1.88281 0 0 .59375 14.435 29.047)" gradientUnits="userSpaceOnUse"><stop stop-color="#f581a8"/><stop offset="1" stop-color="#f581a8" stop-opacity="0"/></radialGradient><radialGradient id="f532idj" cx="0" cy="0" r="1" gradientTransform="matrix(1.35937 1.64062 -2.158 1.78805 18.966 19.047)" gradientUnits="userSpaceOnUse"><stop stop-color="#d04b86"/><stop offset="1" stop-color="#d04b86" stop-opacity="0"/></radialGradient><radialGradient id="f532idk" cx="0" cy="0" r="1" gradientTransform="matrix(-3.18748 2.25002 -5.68805 -8.05794 25.138 12.625)" gradientUnits="userSpaceOnUse"><stop stop-color="#ff94d3"/><stop offset="1" stop-color="#ff94d3" stop-opacity="0"/></radialGradient><radialGradient id="f532idl" cx="0" cy="0" r="1" gradientTransform="matrix(-2.34374 1.875 -2.39783 -2.99727 13.669 2.922)" gradientUnits="userSpaceOnUse"><stop stop-color="#ff9bb0"/><stop offset="1" stop-color="#ff9bb0" stop-opacity="0"/></radialGradient><radialGradient id="f532idm" cx="0" cy="0" r="1" gradientTransform="matrix(1.48438 0 0 2.10937 9.825 2.984)" gradientUnits="userSpaceOnUse"><stop stop-color="#ff9bb0"/><stop offset="1" stop-color="#ff9bb0" stop-opacity="0"/></radialGradient><radialGradient id="f532idn" cx="0" cy="0" r="1" gradientTransform="rotate(135.44 3.899 6.98)scale(8.64022 1.89996)" gradientUnits="userSpaceOnUse"><stop stop-color="#d15c74"/><stop offset="1" stop-color="#d15c74" stop-opacity="0"/></radialGradient><radialGradient id="f532ido" cx="0" cy="0" r="1" gradientTransform="rotate(140.179 9.457 8.85)scale(10.4974 12.1392)" gradientUnits="userSpaceOnUse"><stop offset=".513" stop-color="#e874a0" stop-opacity="0"/><stop offset="1" stop-color="#e874a0"/></radialGradient><radialGradient id="f532idp" cx="0" cy="0" r="1" gradientTransform="matrix(-12.93755 12.59749 -9.13502 -9.38162 22.388 9.59)" gradientUnits="userSpaceOnUse"><stop offset=".448" stop-color="#cc4c8f" stop-opacity="0"/><stop offset="1" stop-color="#cc4c8f"/></radialGradient><radialGradient id="f532idq" cx="0" cy="0" r="1" gradientTransform="matrix(-1.63706 2.375 -6.1597 -4.2458 24.775 15.688)" gradientUnits="userSpaceOnUse"><stop stop-color="#ffc9c5"/><stop offset="1" stop-color="#ffc9c5" stop-opacity="0"/></radialGradient><radialGradient id="f532idr" cx="0" cy="0" r="1" gradientTransform="matrix(-.26562 -.85156 1.91058 -.59596 7.755 5.383)" gradientUnits="userSpaceOnUse"><stop offset=".154" stop-color="#634a65"/><stop offset="1" stop-color="#634a65" stop-opacity="0"/></radialGradient><radialGradient id="f532ids" cx="0" cy="0" r="1" gradientTransform="matrix(-.40625 .5625 -.5015 -.3622 11.631 3.339)" gradientUnits="userSpaceOnUse"><stop offset=".006" stop-color="#433437"/><stop offset="1" stop-color="#3b2838"/></radialGradient><radialGradient id="f532idt" cx="0" cy="0" r="1" gradientTransform="rotate(137.643 5.18 3.948)scale(.35946 .31624)" gradientUnits="userSpaceOnUse"><stop stop-color="#5c5051"/><stop offset="1" stop-color="#5c5051" stop-opacity="0"/></radialGradient><filter id="f532idu" width="1.5" height="11.656" x="15.7" y="18.125" color-interpolation-filters="sRGB" filterUnits="userSpaceOnUse"><feFlood flood-opacity="0" result="BackgroundImageFix"/><feBlend in="SourceGraphic" in2="BackgroundImageFix" result="shape"/><feGaussianBlur result="effect1_foregroundBlur_28327_5165" stdDeviation=".3"/></filter><filter id="f532idv" width="13.211" height="10.028" x="11.821" y="8.59" color-interpolation-filters="sRGB" filterUnits="userSpaceOnUse"><feFlood flood-opacity="0" result="BackgroundImageFix"/><feBlend in="SourceGraphic" in2="BackgroundImageFix" result="shape"/><feGaussianBlur result="effect1_foregroundBlur_28327_5165" stdDeviation=".5"/></filter><filter id="f532idw" width="4.516" height="4.547" x="5.528" y="1.547" color-interpolation-filters="sRGB" filterUnits="userSpaceOnUse"><feFlood flood-opacity="0" result="BackgroundImageFix"/><feBlend in="SourceGraphic" in2="BackgroundImageFix" result="shape"/><feGaussianBlur result="effect1_foregroundBlur_28327_5165" stdDeviation=".375"/></filter><filter id="f532idx" width="6.641" height="8.781" x="5.294" y="4.641" color-interpolation-filters="sRGB" filterUnits="userSpaceOnUse"><feFlood flood-opacity="0" result="BackgroundImageFix"/><feBlend in="SourceGraphic" in2="BackgroundImageFix" result="shape"/><feGaussianBlur result="effect1_foregroundBlur_28327_5165" stdDeviation=".25"/></filter><filter id="f532idy" width="9.189" height="6.391" x="5.496" y="9.297" color-interpolation-filters="sRGB" filterUnits="userSpaceOnUse"><feFlood flood-opacity="0" result="BackgroundImageFix"/><feBlend in="SourceGraphic" in2="BackgroundImageFix" result="shape"/><feGaussianBlur result="effect1_foregroundBlur_28327_5165" stdDeviation=".5"/></filter><filter id="f532idz" width="6.988" height="4.706" x="15.175" y="18.819" color-interpolation-filters="sRGB" filterUnits="userSpaceOnUse"><feFlood flood-opacity="0" result="BackgroundImageFix"/><feBlend in="SourceGraphic" in2="BackgroundImageFix" result="shape"/><feGaussianBlur result="effect1_foregroundBlur_28327_5165" stdDeviation=".25"/></filter><filter id="f532id10" width="9.903" height="2.037" x="10.772" y="22.275" color-interpolation-filters="sRGB" filterUnits="userSpaceOnUse"><feFlood flood-opacity="0" result="BackgroundImageFix"/><feBlend in="SourceGraphic" in2="BackgroundImageFix" result="shape"/><feGaussianBlur result="effect1_foregroundBlur_28327_5165" stdDeviation=".25"/></filter></defs></g></svg>