<svg xmlns="http://www.w3.org/2000/svg" width="1em" height="1em" viewBox="0 0 32 32"><g fill="none"><g filter="url(#f592id14)"><path fill="#e16b3c" d="M25.42 22.004V20.1h-3.14v3.484l2.437 2.215a1 1 0 0 1 .325.67l.219 3.133a.3.3 0 0 0 .299.28h1.277a.3.3 0 0 0 .299-.27l.367-3.624a3 3 0 0 0-.958-2.514l-.8-.733a1 1 0 0 1-.324-.737"/><path fill="url(#f592id0)" d="M25.42 22.004V20.1h-3.14v3.484l2.437 2.215a1 1 0 0 1 .325.67l.219 3.133a.3.3 0 0 0 .299.28h1.277a.3.3 0 0 0 .299-.27l.367-3.624a3 3 0 0 0-.958-2.514l-.8-.733a1 1 0 0 1-.324-.737"/></g><path fill="url(#f592id1)" d="M25.42 22.004V20.1h-3.14v3.484l2.437 2.215a1 1 0 0 1 .325.67l.219 3.133a.3.3 0 0 0 .299.28h1.277a.3.3 0 0 0 .299-.27l.367-3.624a3 3 0 0 0-.958-2.514l-.8-.733a1 1 0 0 1-.324-.737"/><path fill="url(#f592id2)" d="M17.03 30h-1.5c-.14 0-.25-.11-.25-.25v-4.17a.67.67 0 0 0-.14-.4l-2.63-3.2l1.55-1.27l2.87 3.5c.22.28.35.63.35.99v4.55c0 .14-.11.25-.25.25"/><path fill="#e09435" d="M12.19 14h9.34c1.88 0 3.915 1.385 4.273 3.19a.575.575 0 0 0 .287.4c.828.438 1.938 1.192 2.672 2.519c.354.64.456 1.354.456 2.015V24.6a.5.5 0 1 1-1 0v-2.476c0-.569-.09-1.095-.331-1.531c-.503-.91-1.226-1.501-1.88-1.9a.098.098 0 0 0-.149.084v.745c0 1.422-1.298 2.478-2.198 2.478a.38.38 0 0 0-.38.38v2.79c0 .54-.18 1.07-.5 1.5l-2.35 3.13a.48.48 0 0 1-.4.2h-1.35c-.18 0-.3-.2-.22-.37l1.69-3.37c.08-.17.13-.37.13-.56v-3.39c0-.17-.14-.31-.31-.31h-6.38c-.17 0-.31.14-.31.31v2.2c0 .32-.06.64-.18.94l-1.79 4.39c-.04.1-.13.16-.23.16H9.44c-.17 0-.29-.18-.23-.35l2-4.89c.05-.11.07-.23.07-.35v-2.24c0-.14-.1-.26-.24-.3a4.001 4.001 0 0 1-2.9-3.02L5.17 5.5H9.3l1.67 7.52c.13.57.63.98 1.22.98"/><path fill="url(#f592idr)" d="M12.19 14h9.34c1.88 0 3.915 1.385 4.273 3.19a.575.575 0 0 0 .287.4c.828.438 1.938 1.192 2.672 2.519c.354.64.456 1.354.456 2.015V24.6a.5.5 0 1 1-1 0v-2.476c0-.569-.09-1.095-.331-1.531c-.503-.91-1.226-1.501-1.88-1.9a.098.098 0 0 0-.149.084v.745c0 1.422-1.298 2.478-2.198 2.478a.38.38 0 0 0-.38.38v2.79c0 .54-.18 1.07-.5 1.5l-2.35 3.13a.48.48 0 0 1-.4.2h-1.35c-.18 0-.3-.2-.22-.37l1.69-3.37c.08-.17.13-.37.13-.56v-3.39c0-.17-.14-.31-.31-.31h-6.38c-.17 0-.31.14-.31.31v2.2c0 .32-.06.64-.18.94l-1.79 4.39c-.04.1-.13.16-.23.16H9.44c-.17 0-.29-.18-.23-.35l2-4.89c.05-.11.07-.23.07-.35v-2.24c0-.14-.1-.26-.24-.3a4.001 4.001 0 0 1-2.9-3.02L5.17 5.5H9.3l1.67 7.52c.13.57.63.98 1.22.98"/><path fill="url(#f592ids)" d="M12.19 14h9.34c1.88 0 3.915 1.385 4.273 3.19a.575.575 0 0 0 .287.4c.828.438 1.938 1.192 2.672 2.519c.354.64.456 1.354.456 2.015V24.6a.5.5 0 1 1-1 0v-2.476c0-.569-.09-1.095-.331-1.531c-.503-.91-1.226-1.501-1.88-1.9a.098.098 0 0 0-.149.084v.745c0 1.422-1.298 2.478-2.198 2.478a.38.38 0 0 0-.38.38v2.79c0 .54-.18 1.07-.5 1.5l-2.35 3.13a.48.48 0 0 1-.4.2h-1.35c-.18 0-.3-.2-.22-.37l1.69-3.37c.08-.17.13-.37.13-.56v-3.39c0-.17-.14-.31-.31-.31h-6.38c-.17 0-.31.14-.31.31v2.2c0 .32-.06.64-.18.94l-1.79 4.39c-.04.1-.13.16-.23.16H9.44c-.17 0-.29-.18-.23-.35l2-4.89c.05-.11.07-.23.07-.35v-2.24c0-.14-.1-.26-.24-.3a4.001 4.001 0 0 1-2.9-3.02L5.17 5.5H9.3l1.67 7.52c.13.57.63.98 1.22.98"/><path fill="url(#f592idt)" d="M12.19 14h9.34c1.88 0 3.915 1.385 4.273 3.19a.575.575 0 0 0 .287.4c.828.438 1.938 1.192 2.672 2.519c.354.64.456 1.354.456 2.015V24.6a.5.5 0 1 1-1 0v-2.476c0-.569-.09-1.095-.331-1.531c-.503-.91-1.226-1.501-1.88-1.9a.098.098 0 0 0-.149.084v.745c0 1.422-1.298 2.478-2.198 2.478a.38.38 0 0 0-.38.38v2.79c0 .54-.18 1.07-.5 1.5l-2.35 3.13a.48.48 0 0 1-.4.2h-1.35c-.18 0-.3-.2-.22-.37l1.69-3.37c.08-.17.13-.37.13-.56v-3.39c0-.17-.14-.31-.31-.31h-6.38c-.17 0-.31.14-.31.31v2.2c0 .32-.06.64-.18.94l-1.79 4.39c-.04.1-.13.16-.23.16H9.44c-.17 0-.29-.18-.23-.35l2-4.89c.05-.11.07-.23.07-.35v-2.24c0-.14-.1-.26-.24-.3a4.001 4.001 0 0 1-2.9-3.02L5.17 5.5H9.3l1.67 7.52c.13.57.63.98 1.22.98"/><path fill="url(#f592id3)" d="M12.19 14h9.34c1.88 0 3.915 1.385 4.273 3.19a.575.575 0 0 0 .287.4c.828.438 1.938 1.192 2.672 2.519c.354.64.456 1.354.456 2.015V24.6a.5.5 0 1 1-1 0v-2.476c0-.569-.09-1.095-.331-1.531c-.503-.91-1.226-1.501-1.88-1.9a.098.098 0 0 0-.149.084v.745c0 1.422-1.298 2.478-2.198 2.478a.38.38 0 0 0-.38.38v2.79c0 .54-.18 1.07-.5 1.5l-2.35 3.13a.48.48 0 0 1-.4.2h-1.35c-.18 0-.3-.2-.22-.37l1.69-3.37c.08-.17.13-.37.13-.56v-3.39c0-.17-.14-.31-.31-.31h-6.38c-.17 0-.31.14-.31.31v2.2c0 .32-.06.64-.18.94l-1.79 4.39c-.04.1-.13.16-.23.16H9.44c-.17 0-.29-.18-.23-.35l2-4.89c.05-.11.07-.23.07-.35v-2.24c0-.14-.1-.26-.24-.3a4.001 4.001 0 0 1-2.9-3.02L5.17 5.5H9.3l1.67 7.52c.13.57.63.98 1.22.98"/><path fill="url(#f592id4)" d="M12.19 14h9.34c1.88 0 3.915 1.385 4.273 3.19a.575.575 0 0 0 .287.4c.828.438 1.938 1.192 2.672 2.519c.354.64.456 1.354.456 2.015V24.6a.5.5 0 1 1-1 0v-2.476c0-.569-.09-1.095-.331-1.531c-.503-.91-1.226-1.501-1.88-1.9a.098.098 0 0 0-.149.084v.745c0 1.422-1.298 2.478-2.198 2.478a.38.38 0 0 0-.38.38v2.79c0 .54-.18 1.07-.5 1.5l-2.35 3.13a.48.48 0 0 1-.4.2h-1.35c-.18 0-.3-.2-.22-.37l1.69-3.37c.08-.17.13-.37.13-.56v-3.39c0-.17-.14-.31-.31-.31h-6.38c-.17 0-.31.14-.31.31v2.2c0 .32-.06.64-.18.94l-1.79 4.39c-.04.1-.13.16-.23.16H9.44c-.17 0-.29-.18-.23-.35l2-4.89c.05-.11.07-.23.07-.35v-2.24c0-.14-.1-.26-.24-.3a4.001 4.001 0 0 1-2.9-3.02L5.17 5.5H9.3l1.67 7.52c.13.57.63.98 1.22.98"/><path fill="url(#f592idu)" d="M12.19 14h9.34c1.88 0 3.915 1.385 4.273 3.19a.575.575 0 0 0 .287.4c.828.438 1.938 1.192 2.672 2.519c.354.64.456 1.354.456 2.015V24.6a.5.5 0 1 1-1 0v-2.476c0-.569-.09-1.095-.331-1.531c-.503-.91-1.226-1.501-1.88-1.9a.098.098 0 0 0-.149.084v.745c0 1.422-1.298 2.478-2.198 2.478a.38.38 0 0 0-.38.38v2.79c0 .54-.18 1.07-.5 1.5l-2.35 3.13a.48.48 0 0 1-.4.2h-1.35c-.18 0-.3-.2-.22-.37l1.69-3.37c.08-.17.13-.37.13-.56v-3.39c0-.17-.14-.31-.31-.31h-6.38c-.17 0-.31.14-.31.31v2.2c0 .32-.06.64-.18.94l-1.79 4.39c-.04.1-.13.16-.23.16H9.44c-.17 0-.29-.18-.23-.35l2-4.89c.05-.11.07-.23.07-.35v-2.24c0-.14-.1-.26-.24-.3a4.001 4.001 0 0 1-2.9-3.02L5.17 5.5H9.3l1.67 7.52c.13.57.63.98 1.22.98"/><path fill="url(#f592idv)" d="M12.19 14h9.34c1.88 0 3.915 1.385 4.273 3.19a.575.575 0 0 0 .287.4c.828.438 1.938 1.192 2.672 2.519c.354.64.456 1.354.456 2.015V24.6a.5.5 0 1 1-1 0v-2.476c0-.569-.09-1.095-.331-1.531c-.503-.91-1.226-1.501-1.88-1.9a.098.098 0 0 0-.149.084v.745c0 1.422-1.298 2.478-2.198 2.478a.38.38 0 0 0-.38.38v2.79c0 .54-.18 1.07-.5 1.5l-2.35 3.13a.48.48 0 0 1-.4.2h-1.35c-.18 0-.3-.2-.22-.37l1.69-3.37c.08-.17.13-.37.13-.56v-3.39c0-.17-.14-.31-.31-.31h-6.38c-.17 0-.31.14-.31.31v2.2c0 .32-.06.64-.18.94l-1.79 4.39c-.04.1-.13.16-.23.16H9.44c-.17 0-.29-.18-.23-.35l2-4.89c.05-.11.07-.23.07-.35v-2.24c0-.14-.1-.26-.24-.3a4.001 4.001 0 0 1-2.9-3.02L5.17 5.5H9.3l1.67 7.52c.13.57.63.98 1.22.98"/><g filter="url(#f592id15)"><path fill="#e29739" fill-rule="evenodd" d="M24.841 17.547a.5.5 0 0 1 .664-.245c.798.367 2.328 1.129 3.257 2.807c.354.64.456 1.354.456 2.015V24.6a.5.5 0 1 1-1 0v-2.476c0-.569-.09-1.095-.331-1.531c-.764-1.381-2.036-2.031-2.8-2.383a.5.5 0 0 1-.246-.663" clip-rule="evenodd"/></g><path fill="url(#f592id5)" fill-rule="evenodd" d="M24.841 17.547a.5.5 0 0 1 .664-.245c.798.367 2.328 1.129 3.257 2.807c.354.64.456 1.354.456 2.015V24.6a.5.5 0 1 1-1 0v-2.476c0-.569-.09-1.095-.331-1.531c-.764-1.381-2.036-2.031-2.8-2.383a.5.5 0 0 1-.246-.663" clip-rule="evenodd"/><g filter="url(#f592id16)"><path stroke="#fbb95f" stroke-width="0.1" d="M25.983 18.014c.852.21 2.922 2.117 2.922 3.867v1.656"/></g><path fill="url(#f592id6)" d="M19.97 22c.17 0 .31.14.31.31v3.39c0 .19-.05.39-.13.56l-1.69 3.37c-.08.17.04.37.22.37h1.35c.16 0 .31-.07.4-.2l2.35-3.13c.32-.43.5-.96.5-1.5v-2.79c0-.21.17-.38.38-.38c-.536-.625-1.88-1.75-3.69 0"/><path fill="url(#f592id7)" d="M19.97 22c.17 0 .31.14.31.31v3.39c0 .19-.05.39-.13.56l-1.69 3.37c-.08.17.04.37.22.37h1.35c.16 0 .31-.07.4-.2l2.35-3.13c.32-.43.5-.96.5-1.5v-2.79c0-.21.17-.38.38-.38c-.536-.625-1.88-1.75-3.69 0"/><path fill="url(#f592id8)" d="M19.97 22c.17 0 .31.14.31.31v3.39c0 .19-.05.39-.13.56l-1.69 3.37c-.08.17.04.37.22.37h1.35c.16 0 .31-.07.4-.2l2.35-3.13c.32-.43.5-.96.5-1.5v-2.79c0-.21.17-.38.38-.38c-.536-.625-1.88-1.75-3.69 0"/><path fill="#e3953d" d="M11.04 21.87c.14.04.24.16.24.3v2.24c0 .12-.02.24-.07.35l-2 4.89c-.06.17.06.35.23.35h1.64c.1 0 .19-.06.23-.16l1.79-4.39c.12-.3.18-.62.18-.94v-2.2c0-.17.31-.31.31-.31s-1.115-1.531-2.55-.13"/><path fill="url(#f592id9)" d="M11.04 21.87c.14.04.24.16.24.3v2.24c0 .12-.02.24-.07.35l-2 4.89c-.06.17.06.35.23.35h1.64c.1 0 .19-.06.23-.16l1.79-4.39c.12-.3.18-.62.18-.94v-2.2c0-.17.31-.31.31-.31s-1.115-1.531-2.55-.13"/><path fill="url(#f592ida)" d="M11.04 21.87c.14.04.24.16.24.3v2.24c0 .12-.02.24-.07.35l-2 4.89c-.06.17.06.35.23.35h1.64c.1 0 .19-.06.23-.16l1.79-4.39c.12-.3.18-.62.18-.94v-2.2c0-.17.31-.31.31-.31s-1.115-1.531-2.55-.13"/><path fill="url(#f592idb)" d="M7.28 4.38h-1V2.5c0-.28.23-.5.5-.5c.28 0 .5.22.5.5z"/><path fill="#716d70" d="M6.78 2c-.27 0-.5.22-.5.5V3h1v-.5c0-.28-.22-.5-.5-.5"/><path fill="url(#f592idc)" d="M6.78 2c-.27 0-.5.22-.5.5V3h1v-.5c0-.28-.22-.5-.5-.5"/><path fill="url(#f592idd)" d="M9.28 4.38h-1V2.5c0-.28.22-.5.5-.5c.27 0 .5.22.5.5z"/><path fill="url(#f592ide)" d="M8.78 2c-.28 0-.5.22-.5.5V3h1v-.5c0-.28-.23-.5-.5-.5"/><path fill="#e09435" d="M6.87 4c-.94 0-1.75.64-1.97 1.54c-.07.27-.32.46-.59.46h-.03c-.55 0-1 .45-1 1s.45 1 1 1h3.547C9.28 8 9.28 5.75 9.28 4z"/><path fill="url(#f592idw)" d="M6.87 4c-.94 0-1.75.64-1.97 1.54c-.07.27-.32.46-.59.46h-.03c-.55 0-1 .45-1 1s.45 1 1 1h3.547C9.28 8 9.28 5.75 9.28 4z"/><path fill="url(#f592idx)" d="M6.87 4c-.94 0-1.75.64-1.97 1.54c-.07.27-.32.46-.59.46h-.03c-.55 0-1 .45-1 1s.45 1 1 1h3.547C9.28 8 9.28 5.75 9.28 4z"/><g filter="url(#f592id17)"><path stroke="#fbb95f" d="m8.43 6.162l1.625 7.625"/></g><path fill="#e09435" d="M7.475 4s.063 1.5 1.055 1.5h1.25c.66 0 1.23-.43 1.42-1.03a.354.354 0 0 0-.34-.47z"/><path fill="url(#f592idy)" d="M7.475 4s.063 1.5 1.055 1.5h1.25c.66 0 1.23-.43 1.42-1.03a.354.354 0 0 0-.34-.47z"/><path fill="url(#f592idz)" d="M7.475 4s.063 1.5 1.055 1.5h1.25c.66 0 1.23-.43 1.42-1.03a.354.354 0 0 0-.34-.47z"/><path fill="#ac6e3d" d="M4.28 6c-.55 0-1 .45-1 1s.45 1 1 1z"/><path fill="url(#f592id10)" d="M4.28 6c-.55 0-1 .45-1 1s.45 1 1 1z"/><path fill="url(#f592idf)" d="M4.28 6c-.55 0-1 .45-1 1s.45 1 1 1z"/><circle cx="6.788" cy="5.492" r=".508" fill="url(#f592id11)"/><path fill="url(#f592idg)" d="M17.28 15.25v2.5c0 .14.11.25.25.25h2.5c.14 0 .25-.11.25-.25v-.65c0-.07-.03-.13-.07-.18l-1.85-1.85a.312.312 0 0 0-.18-.07h-.65c-.14 0-.25.11-.25.25"/><path fill="url(#f592idh)" d="M19.88 15h2.15c.14 0 .25.11.25.25v2.15c0 .22-.27.33-.43.18l-2.15-2.15c-.15-.16-.04-.43.18-.43"/><path fill="url(#f592idi)" d="M22.03 18.67h-4.5c-.14 0-.25.11-.25.25v1.86c0 .17.17.29.33.24l2.62-.88c.03-.01.05-.01.08-.01h1.73c.14 0 .25-.11.25-.25v-.95c-.01-.15-.12-.26-.26-.26"/><path fill="url(#f592idj)" d="m9.27 9.2l.78 3.52c.03.16-.08.3-.24.3H8.53c-.14 0-.25-.11-.25-.25V9.25c0-.14.11-.25.25-.25h.5c.12 0 .22.08.24.2"/><path fill="url(#f592idk)" d="M10.27 19.38c-.29 0-.54-.2-.61-.47c-.21-.86-.66-3.03-.82-3.67c-.03-.13.06-.24.18-.24h1.05c.13 0 .24.08.29.2l.27.69c.03.06.1.11.18.11h2.27c.13 0 .26.05.35.15l.71.71c.09.09.15.22.15.35v1.98c0 .1-.08.19-.19.19z"/><path fill="#bc7d40" d="m14.35 16.07l.85.85c.05.05.12.08.18.08h1.08c.14 0 .25-.11.25-.25v-1.5c0-.14-.11-.25-.25-.25h-1.94c-.13 0-.24.11-.24.25v.65c0 .06.03.13.07.17"/><path fill="url(#f592idl)" d="M13.28 14h-1.09c-.35 0-.68-.15-.91-.4v1.5c0 .14.11.25.25.25h1.5c.14 0 .25-.11.25-.25z"/><path fill="url(#f592idm)" d="M16.47 20.99h-.94c-.14 0-.25-.11-.25-.25v-2.49c0-.14.11-.25.25-.25h.94c.14 0 .25.11.25.25v2.49c0 .14-.11.25-.25.25"/><path fill="#ad6839" d="m6.77 9.3l.36 1.6c.01.06.06.1.12.1h.43c.07 0 .12-.06.12-.12V9.25c.01-.14-.11-.25-.24-.25h-.54c-.16 0-.28.15-.25.3"/><path fill="url(#f592idn)" d="M10.09 14.49H8.47a.19.19 0 0 1-.19-.19v-.57c0-.1.08-.19.19-.19h1.62c.1 0 .19.08.19.19v.57c0 .11-.08.19-.19.19"/><path fill="#ad6050" d="M10.74 20h3.36c.1 0 .19.08.19.19v.62c0 .1-.08.19-.19.19h-2.67c-.1 0-.19-.04-.26-.11l-.57-.56a.194.194 0 0 1 .14-.33"/><path fill="#c78a5d" d="M8.12 8.34a.41.41 0 1 0 0-.82a.41.41 0 0 0 0 .82"/><path fill="url(#f592ido)" d="M22.99 19.86v-1.27c0-.21.24-.33.4-.2l.79.62c.06.05.1.12.1.2v.65c0 .14-.11.25-.25.25h-.79c-.14 0-.25-.11-.25-.25"/><path fill="url(#f592id12)" d="M21.88 22.4a.74.74 0 1 0 0-1.48a.74.74 0 0 0 0 1.48"/><path fill="url(#f592idp)" d="M23.45 17.58a.39.39 0 1 0 0-.78a.39.39 0 0 0 0 .78"/><g filter="url(#f592id18)"><path fill="#b8744c" d="M27.854 25.723v-1.39a.6.6 0 0 1 .6-.6h.527a.6.6 0 0 1 .6.6v.52a.75.75 0 0 1-.19.5l-.509.57a.6.6 0 0 1-.448.2h-.18a.4.4 0 0 1-.4-.4"/><path fill="url(#f592id13)" d="M27.854 25.723v-1.39a.6.6 0 0 1 .6-.6h.527a.6.6 0 0 1 .6.6v.52a.75.75 0 0 1-.19.5l-.509.57a.6.6 0 0 1-.448.2h-.18a.4.4 0 0 1-.4-.4"/></g><g filter="url(#f592id19)"><path stroke="url(#f592idq)" stroke-width="0.25" d="m25.796 23.428l.812 1.035a2 2 0 0 1 .416 1.442l-.353 3.398"/></g><defs><linearGradient id="f592id0" x1="23.874" x2="25.999" y1="22.475" y2="24.412" gradientUnits="userSpaceOnUse"><stop stop-color="#d24e2c"/><stop offset="1" stop-color="#d24e2c" stop-opacity="0"/></linearGradient><linearGradient id="f592id1" x1="28.186" x2="26.405" y1="25.162" y2="24.991" gradientUnits="userSpaceOnUse"><stop stop-color="#f0915f"/><stop offset="1" stop-color="#f0915f" stop-opacity="0"/></linearGradient><linearGradient id="f592id2" x1="14.03" x2="15.78" y1="21.938" y2="30" gradientUnits="userSpaceOnUse"><stop stop-color="#cb4b24"/><stop offset="1" stop-color="#d6603c"/></linearGradient><linearGradient id="f592id3" x1="7.717" x2="11.967" y1="18.787" y2="17.75" gradientUnits="userSpaceOnUse"><stop stop-color="#d18121"/><stop offset="1" stop-color="#d18121" stop-opacity="0"/></linearGradient><linearGradient id="f592id4" x1="7.717" x2="9.28" y1="19.412" y2="19.069" gradientUnits="userSpaceOnUse"><stop stop-color="#f2ba8a"/><stop offset="1" stop-color="#f2ba8a" stop-opacity="0"/></linearGradient><linearGradient id="f592id5" x1="24.796" x2="28.593" y1="17.819" y2="18.756" gradientUnits="userSpaceOnUse"><stop stop-color="#f5b156"/><stop offset="1" stop-color="#e29739" stop-opacity="0"/></linearGradient><linearGradient id="f592id6" x1="21.749" x2="18.435" y1="27.256" y2="26.506" gradientUnits="userSpaceOnUse"><stop stop-color="#e3953c"/><stop offset="1" stop-color="#d6852b"/></linearGradient><linearGradient id="f592id7" x1="21.047" x2="21.047" y1="21.169" y2="25.668" gradientUnits="userSpaceOnUse"><stop stop-color="#de8e3d"/><stop offset="1" stop-color="#d87c54" stop-opacity="0"/></linearGradient><linearGradient id="f592id8" x1="23.405" x2="22.139" y1="25.225" y2="25.241" gradientUnits="userSpaceOnUse"><stop stop-color="#eda84f"/><stop offset="1" stop-color="#eda84f" stop-opacity="0"/></linearGradient><linearGradient id="f592id9" x1="13.376" x2="12.495" y1="25.34" y2="25.34" gradientUnits="userSpaceOnUse"><stop stop-color="#eda84f"/><stop offset="1" stop-color="#eda84f" stop-opacity="0"/></linearGradient><linearGradient id="f592ida" x1="11.392" x2="11.392" y1="21.381" y2="25.772" gradientUnits="userSpaceOnUse"><stop stop-color="#d77958"/><stop offset="1" stop-color="#d87c54" stop-opacity="0"/></linearGradient><linearGradient id="f592idb" x1="6.28" x2="7.28" y1="3.406" y2="3.406" gradientUnits="userSpaceOnUse"><stop stop-color="#df6d28"/><stop offset=".488" stop-color="#e98452"/><stop offset="1" stop-color="#df8450"/></linearGradient><linearGradient id="f592idc" x1="7.28" x2="6.78" y1="3" y2="3" gradientUnits="userSpaceOnUse"><stop stop-color="#8e8a8d"/><stop offset="1" stop-color="#8e8a8d" stop-opacity="0"/></linearGradient><linearGradient id="f592idd" x1="8.639" x2="9.28" y1="3.406" y2="3.406" gradientUnits="userSpaceOnUse"><stop stop-color="#c97c36"/><stop offset="1" stop-color="#d49361"/></linearGradient><linearGradient id="f592ide" x1="8.28" x2="9.28" y1="2.5" y2="2.5" gradientUnits="userSpaceOnUse"><stop stop-color="#716d70"/><stop offset="1" stop-color="#969495"/></linearGradient><linearGradient id="f592idf" x1="3.546" x2="3.546" y1="8.381" y2="6.787" gradientUnits="userSpaceOnUse"><stop stop-color="#a65b58"/><stop offset="1" stop-color="#a65b58" stop-opacity="0"/></linearGradient><linearGradient id="f592idg" x1="18.78" x2="18.78" y1="15" y2="18" gradientUnits="userSpaceOnUse"><stop stop-color="#bd7f41"/><stop offset="1" stop-color="#be7d4f"/></linearGradient><linearGradient id="f592idh" x1="20.956" x2="20.956" y1="15" y2="17.649" gradientUnits="userSpaceOnUse"><stop stop-color="#c28141"/><stop offset="1" stop-color="#c88855"/></linearGradient><linearGradient id="f592idi" x1="19.785" x2="19.785" y1="18.67" y2="21.032" gradientUnits="userSpaceOnUse"><stop stop-color="#b8724b"/><stop offset="1" stop-color="#ae6051"/></linearGradient><linearGradient id="f592idj" x1="8.28" x2="10.055" y1="12.069" y2="11.381" gradientUnits="userSpaceOnUse"><stop offset=".333" stop-color="#ba7649"/><stop offset="1" stop-color="#d29768"/></linearGradient><linearGradient id="f592idk" x1="11.562" x2="11.562" y1="15.287" y2="19.38" gradientUnits="userSpaceOnUse"><stop stop-color="#b47539"/><stop offset="1" stop-color="#b56e4e"/></linearGradient><linearGradient id="f592idl" x1="12.28" x2="12.28" y1="14.475" y2="15.881" gradientUnits="userSpaceOnUse"><stop stop-color="#be8455"/><stop offset="1" stop-color="#b8793e"/></linearGradient><linearGradient id="f592idm" x1="16" x2="16" y1="18" y2="20.99" gradientUnits="userSpaceOnUse"><stop stop-color="#bc7b4e"/><stop offset="1" stop-color="#ae6052"/></linearGradient><linearGradient id="f592idn" x1="8.53" x2="9.999" y1="13.725" y2="14.75" gradientUnits="userSpaceOnUse"><stop stop-color="#b46f44"/><stop offset="1" stop-color="#cc9160"/></linearGradient><linearGradient id="f592ido" x1="23.635" x2="23.635" y1="18.178" y2="19.772" gradientUnits="userSpaceOnUse"><stop stop-color="#cb8958"/><stop offset="1" stop-color="#c17648"/></linearGradient><linearGradient id="f592idp" x1="23.702" x2="22.975" y1="17.35" y2="17.35" gradientUnits="userSpaceOnUse"><stop stop-color="#dca171"/><stop offset="1" stop-color="#d69a6b"/></linearGradient><linearGradient id="f592idq" x1="27.749" x2="25.796" y1="29.303" y2="21.444" gradientUnits="userSpaceOnUse"><stop stop-color="#f0915f" stop-opacity="0"/><stop offset=".479" stop-color="#ffa575"/><stop offset="1" stop-color="#f0915f" stop-opacity="0"/></linearGradient><radialGradient id="f592idr" cx="0" cy="0" r="1" gradientTransform="rotate(166.942 11.085 9.915)scale(3.01548 3.59998)" gradientUnits="userSpaceOnUse"><stop stop-color="#fbb95f"/><stop offset="1" stop-color="#fbb95f" stop-opacity="0"/></radialGradient><radialGradient id="f592ids" cx="0" cy="0" r="1" gradientTransform="rotate(147.395 11.033 10.642)scale(4.11766 4.9158)" gradientUnits="userSpaceOnUse"><stop stop-color="#fbb95f"/><stop offset="1" stop-color="#fbb95f" stop-opacity="0"/></radialGradient><radialGradient id="f592idt" cx="0" cy="0" r="1" gradientTransform="matrix(0 -3.40625 11.2812 0 16.218 23.569)" gradientUnits="userSpaceOnUse"><stop stop-color="#c4409f"/><stop offset="1" stop-color="#c3409f" stop-opacity="0"/></radialGradient><radialGradient id="f592idu" cx="0" cy="0" r="1" gradientTransform="matrix(4.42188 -3.07813 .71722 1.03033 6.983 18.334)" gradientUnits="userSpaceOnUse"><stop stop-color="#f2ba8a"/><stop offset="1" stop-color="#f2ba8a" stop-opacity="0"/></radialGradient><radialGradient id="f592idv" cx="0" cy="0" r="1" gradientTransform="rotate(-127.064 17.134 5.102)scale(1.84064 1.48436)" gradientUnits="userSpaceOnUse"><stop stop-color="#eda84f"/><stop offset="1" stop-color="#eda84f" stop-opacity="0"/></radialGradient><radialGradient id="f592idw" cx="0" cy="0" r="1" gradientTransform="matrix(2.39063 -1.89063 .9529 1.20491 4.233 9.069)" gradientUnits="userSpaceOnUse"><stop stop-color="#d1699b"/><stop offset="1" stop-color="#d1699b" stop-opacity="0"/></radialGradient><radialGradient id="f592idx" cx="0" cy="0" r="1" gradientTransform="rotate(-151.783 4.752 3.308)scale(1.45405 2.18107)" gradientUnits="userSpaceOnUse"><stop offset=".192" stop-color="#d8892a"/><stop offset="1" stop-color="#d8892a" stop-opacity="0"/></radialGradient><radialGradient id="f592idy" cx="0" cy="0" r="1" gradientTransform="rotate(-147.779 5.703 1.462)scale(2.19785 1.67723)" gradientUnits="userSpaceOnUse"><stop stop-color="#dd832b"/><stop offset="1" stop-color="#dd832b" stop-opacity="0"/></radialGradient><radialGradient id="f592idz" cx="0" cy="0" r="1" gradientTransform="rotate(168.346 5.372 2.695)scale(1.27631 .50206)" gradientUnits="userSpaceOnUse"><stop stop-color="#f2af5d"/><stop offset=".541" stop-color="#f2af5d" stop-opacity="0"/></radialGradient><radialGradient id="f592id10" cx="0" cy="0" r="1" gradientTransform="rotate(111.088 -.277 4.991)scale(1.28111 1.26607)" gradientUnits="userSpaceOnUse"><stop offset=".499" stop-color="#caa48c" stop-opacity="0"/><stop offset=".902" stop-color="#d7a98c"/></radialGradient><radialGradient id="f592id11" cx="0" cy="0" r="1" gradientTransform="matrix(-.34913 .65317 -.56844 -.30384 6.981 5.347)" gradientUnits="userSpaceOnUse"><stop stop-color="#605255"/><stop offset="1" stop-color="#3c273a"/></radialGradient><radialGradient id="f592id12" cx="0" cy="0" r="1" gradientTransform="matrix(-1.23844 -.39307 .60425 -1.9038 22.62 22.053)" gradientUnits="userSpaceOnUse"><stop stop-color="#c07e51"/><stop offset=".673" stop-color="#b7704d"/></radialGradient><radialGradient id="f592id13" cx="0" cy="0" r="1" gradientTransform="matrix(.28516 .92187 -.49832 .15414 29.296 24.303)" gradientUnits="userSpaceOnUse"><stop offset=".042" stop-color="#cd996f"/><stop offset=".529" stop-color="#cd996f" stop-opacity="0"/></radialGradient><filter id="f592id14" width="5.338" height="9.831" x="22.28" y="20.05" color-interpolation-filters="sRGB" filterUnits="userSpaceOnUse"><feFlood flood-opacity="0" result="BackgroundImageFix"/><feBlend in="SourceGraphic" in2="BackgroundImageFix" result="shape"/><feColorMatrix in="SourceAlpha" result="hardAlpha" values="0 0 0 0 0 0 0 0 0 0 0 0 0 0 0 0 0 0 127 0"/><feOffset dx=".1" dy="-.05"/><feGaussianBlur stdDeviation=".375"/><feComposite in2="hardAlpha" k2="-1" k3="1" operator="arithmetic"/><feColorMatrix values="0 0 0 0 0.825 0 0 0 0 0.304919 0 0 0 0 0.171875 0 0 0 1 0"/><feBlend in2="shape" result="effect1_innerShadow_28327_3399"/></filter><filter id="f592id15" width="4.522" height="8.044" x="24.796" y="17.056" color-interpolation-filters="sRGB" filterUnits="userSpaceOnUse"><feFlood flood-opacity="0" result="BackgroundImageFix"/><feBlend in="SourceGraphic" in2="BackgroundImageFix" result="shape"/><feColorMatrix in="SourceAlpha" result="hardAlpha" values="0 0 0 0 0 0 0 0 0 0 0 0 0 0 0 0 0 0 127 0"/><feOffset dx=".1" dy="-.2"/><feGaussianBlur stdDeviation=".3"/><feComposite in2="hardAlpha" k2="-1" k3="1" operator="arithmetic"/><feColorMatrix values="0 0 0 0 0.825 0 0 0 0 0.463572 0 0 0 0 0.055 0 0 0 1 0"/><feBlend in2="shape" result="effect1_innerShadow_28327_3399"/></filter><filter id="f592id16" width="3.484" height="6.072" x="25.721" y="17.715" color-interpolation-filters="sRGB" filterUnits="userSpaceOnUse"><feFlood flood-opacity="0" result="BackgroundImageFix"/><feBlend in="SourceGraphic" in2="BackgroundImageFix" result="shape"/><feGaussianBlur result="effect1_foregroundBlur_28327_3399" stdDeviation=".125"/></filter><filter id="f592id17" width="4.603" height="9.833" x="6.941" y="5.058" color-interpolation-filters="sRGB" filterUnits="userSpaceOnUse"><feFlood flood-opacity="0" result="BackgroundImageFix"/><feBlend in="SourceGraphic" in2="BackgroundImageFix" result="shape"/><feGaussianBlur result="effect1_foregroundBlur_28327_3399" stdDeviation=".5"/></filter><filter id="f592id18" width="1.977" height="2.591" x="27.854" y="23.533" color-interpolation-filters="sRGB" filterUnits="userSpaceOnUse"><feFlood flood-opacity="0" result="BackgroundImageFix"/><feBlend in="SourceGraphic" in2="BackgroundImageFix" result="shape"/><feColorMatrix in="SourceAlpha" result="hardAlpha" values="0 0 0 0 0 0 0 0 0 0 0 0 0 0 0 0 0 0 127 0"/><feOffset dx=".25" dy="-.2"/><feGaussianBlur stdDeviation=".2"/><feComposite in2="hardAlpha" k2="-1" k3="1" operator="arithmetic"/><feColorMatrix values="0 0 0 0 0.604167 0 0 0 0 0.336302 0 0 0 0 0.171181 0 0 0 1 0"/><feBlend in2="shape" result="effect1_innerShadow_28327_3399"/></filter><filter id="f592id19" width="2.463" height="6.965" x="25.197" y="22.851" color-interpolation-filters="sRGB" filterUnits="userSpaceOnUse"><feFlood flood-opacity="0" result="BackgroundImageFix"/><feBlend in="SourceGraphic" in2="BackgroundImageFix" result="shape"/><feGaussianBlur result="effect1_foregroundBlur_28327_3399" stdDeviation=".25"/></filter></defs></g></svg>