<svg xmlns="http://www.w3.org/2000/svg" width="1em" height="1em" viewBox="0 0 32 32"><g fill="none"><path fill="url(#f822id0)" d="M24.462 27.129c2.386-1.328 3.367-4.197 2.416-6.674a.607.607 0 0 1 .332-.767a4.48 4.48 0 0 0 .812-.44a4.58 4.58 0 0 0 1.55-5.73a4.575 4.575 0 0 0-7.28-1.37a5.407 5.407 0 0 0-7.29-1.96c-1.62.9-2.59 2.52-2.75 4.23c-.91-.1-1.87.07-2.73.55a4.562 4.562 0 0 0-2.32 3.52c-.2 1.85-1.24 3.51-2.87 4.42a3.79 3.79 0 0 0-1.46 5.16a3.79 3.79 0 0 0 5.16 1.46c1.62-.91 3.58-.92 5.26-.12c1.3.62 2.87.63 4.22-.13c.7-.39 1.261-.94 1.656-1.584a.595.595 0 0 1 .716-.245c1.444.562 3.12.49 4.578-.32"/><g filter="url(#f822ids)"><path fill="url(#f822id1)" d="M23.808 26.439c2.254-1.255 3.181-3.966 2.282-6.306c-.108-.282-.042-.743.236-.859a4.24 4.24 0 0 0 .768-.415c1.748-1.19 2.45-3.373 1.543-5.282a4.324 4.324 0 0 0-6.88-1.294a5.11 5.11 0 0 0-6.89-1.852a5.108 5.108 0 0 0-2.598 3.997a4.325 4.325 0 0 0-2.58.52a4.311 4.311 0 0 0-2.192 3.326c-.19 1.748-1.172 3.317-2.712 4.177a3.582 3.582 0 1 0 3.496 6.256c1.53-.86 3.383-.87 4.97-.114a4.318 4.318 0 0 0 3.989-.122a4.267 4.267 0 0 0 1.564-1.497a.563.563 0 0 1 .678-.232a5.091 5.091 0 0 0 4.326-.303"/></g><g filter="url(#f822idt)"><path stroke="url(#f822id2)" stroke-width="0.75" d="M24.492 11.795c1.343-.45 3.378.46 4.235 2.007c.638 1.151.703 3.072-1.184 4.834"/></g><path fill="#457420" d="M4.882 7.549C6.21 5.163 9.08 4.182 11.556 5.133a.607.607 0 0 0 .767-.332a4.48 4.48 0 0 1 .44-.812a4.58 4.58 0 0 1 5.73-1.55a4.575 4.575 0 0 1 1.37 7.28a5.407 5.407 0 0 1 1.96 7.29a5.405 5.405 0 0 1-4.23 2.75c.1.91-.07 1.87-.55 2.73a4.562 4.562 0 0 1-3.52 2.32c-1.85.2-3.51 1.24-4.42 2.87a3.79 3.79 0 0 1-5.16 1.46a3.79 3.79 0 0 1-1.46-5.16c.91-1.62.92-3.58.12-5.26a4.57 4.57 0 0 1 .13-4.22c.388-.697.859-1.26 1.47-1.655a.614.614 0 0 0 .245-.724c-.542-1.442-.375-3.114.434-4.571"/><g filter="url(#f822idu)"><path fill="url(#f822id3)" d="M5.462 7.86c1.246-2.26 4.057-2.793 6.38-1.892c.652.252.812-.495 1.165-.984c1.48-2.055 3.388-2.675 5.283-1.765c2.271 1.089 3.178 4.052 1.977 6.23a4.136 4.136 0 0 1-.629.862c2.356 1.411 3.19 4.47 1.84 6.905a5.07 5.07 0 0 1-3.97 2.605a4.369 4.369 0 0 1-.516 2.586a4.28 4.28 0 0 1-3.304 2.197c-1.736.19-3.294 1.175-4.148 2.719a3.54 3.54 0 0 1-4.842 1.383c-1.718-.966-2.328-3.154-1.37-4.888c.854-1.534.863-3.39.112-4.982a4.364 4.364 0 0 1 .122-3.997c.365-.66.926-1.058 1.5-1.433c.223-.145.656-.718.563-.969c-.51-1.366-.922-3.197-.163-4.578"/></g><g filter="url(#f822idv)"><path fill="url(#f822id4)" d="M23.758 22.714c1.848-1.864 1.988-4.797.68-6.994a1.217 1.217 0 0 1 .355-1.65c.126-.088.24-.186.332-.299c.688-3.021-3.937-7.334-6.861-6.572a1.682 1.682 0 0 0-.065.07c-.444.5-1.18.645-1.75.3c-2.183-1.322-5.106-1.202-6.952.66c-1.076 1.086-1.632 2.614-1.652 4.081c-.008.613-.435 1.188-.983 1.454c-.663.322-1.245.831-1.725 1.315c-1.14 1.14-1.377 2.547-1.118 4.022c2.91 16.786-2.597 6.939 9.383 9.04c1.131.199 2.727-.102 3.857-1.242c.47-.473.912-1.022 1.212-1.608c.264-.517.808-.895 1.383-.9c1.416-.012 2.812-.576 3.904-1.677"/></g><g filter="url(#f822idw)"><path stroke="url(#f822id5)" stroke-width="0.75" d="M20.406 6.625c.172-1.406-1.125-3.219-2.812-3.75c-1.256-.395-3.15-.075-4.5 2.125"/></g><g filter="url(#f822idx)"><path fill="#688555" d="M2.844 18.234c-.65-1.875-.235-2.593.094-3.172c-.13 1.063-.207 1.463.125 2.829c.228.943.859 2.327.859 3.828c0 1.36-1.281 2.906-1.281 2.906s.578-1.016.937-2.906c-.016-1.085-.432-2.613-.734-3.485"/></g><path fill="url(#f822id6)" d="M23.844 21.969c1.781-1.782 1.917-4.585.656-6.685a1.158 1.158 0 0 1 .342-1.577c.121-.084.231-.178.32-.285c1.43-1.71 1.292-4.226-.178-5.906c-1.76-2.01-4.577-2.235-6.437-.375l-.063.066c-.427.478-1.137.616-1.687.286c-2.105-1.263-4.924-1.148-6.703.632c-1.038 1.037-1.573 2.498-1.593 3.9c-.007.586-.42 1.136-.948 1.39c-.638.308-1.2.794-1.662 1.257c-1.1 1.09-1.329 2.434-1.079 3.844c.32 1.83-.143 3.648-1.453 4.968c-1.48 1.48-1.638 3.623.103 5.365c1.48 1.48 3.792 1.334 5.272-.146c1.32-1.32 3.285-1.867 5.125-1.547c1.091.19 2.63-.097 3.72-1.187c.451-.452.878-.977 1.167-1.538c.255-.493.78-.855 1.334-.86c1.365-.01 2.712-.55 3.764-1.602"/><g filter="url(#f822idy)"><path fill="url(#f822id7)" d="M23.182 21.689c1.66-1.66 1.774-4.42.6-6.376c-.488-.812.018-1.262.463-1.797c1.332-1.593 1.37-3.726 0-5.29c-1.545-1.765-3.978-2.049-5.636-.195c-.398.446-1.479.48-1.991.173c-1.96-1.176-4.413-1.174-6.071.484c-.967.966-1.482 2.553-1.5 3.859c-.008.546-.392 1.058-.883 1.295c-.595.287-1.275.618-1.706 1.05c-1.024 1.015-1.16 2.295-.927 3.608c.298 1.705.283 3.552-.937 4.781c-1.313 1.547-1.81 3.253-.188 4.875c1.379 1.379 3.063.703 4.64-.593c1.23-1.23 3.122-1.34 4.836-1.042c1.016.177 2.448-.09 3.464-1.106c.42-.421.736-1.045 1.005-1.567c.237-.46.726-.797 1.243-.801c1.271-.01 2.608-.378 3.588-1.358"/></g><path fill="url(#f822id8)" fill-rule="evenodd" d="M13.827 11.362c.33-.103.68.082.782.411l1.193 3.842l4.098-4.098a.625.625 0 1 1 .884.883l-4.097 4.098l3.85 1.194a.625.625 0 1 1-.37 1.194l-4.48-1.389l-3.86 3.861l2.65.824a.625.625 0 0 1-.37 1.193l-3.28-1.018l-2.173 2.174a.625.625 0 1 1-.884-.884l2.173-2.173l-1.018-3.28a.625.625 0 0 1 1.194-.37l.823 2.65l3.861-3.86l-1.388-4.47a.625.625 0 0 1 .412-.782" clip-rule="evenodd"/><path fill="url(#f822id1k)" fill-rule="evenodd" d="M13.827 11.362c.33-.103.68.082.782.411l1.193 3.842l4.098-4.098a.625.625 0 1 1 .884.883l-4.097 4.098l3.85 1.194a.625.625 0 1 1-.37 1.194l-4.48-1.389l-3.86 3.861l2.65.824a.625.625 0 0 1-.37 1.193l-3.28-1.018l-2.173 2.174a.625.625 0 1 1-.884-.884l2.173-2.173l-1.018-3.28a.625.625 0 0 1 1.194-.37l.823 2.65l3.861-3.86l-1.388-4.47a.625.625 0 0 1 .412-.782" clip-rule="evenodd"/><g filter="url(#f822idz)"><path stroke="url(#f822id9)" stroke-linecap="round" d="m20.219 12.078l-3.657 3.672"/></g><g filter="url(#f822id10)"><path stroke="url(#f822ida)" stroke-linecap="round" d="m20.385 18.269l-4.943-1.553"/></g><g filter="url(#f822id11)"><path stroke="url(#f822idb)" stroke-linecap="round" stroke-width="0.75" d="m9.348 18.024l1.136 3.688"/></g><g filter="url(#f822id12)"><path stroke="url(#f822idc)" stroke-linecap="round" stroke-width="0.75" d="m14.347 22.823l-3.694-1.117"/></g><g filter="url(#f822id13)"><path stroke="url(#f822idd)" stroke-linecap="round" d="m8.172 24.11l7.703-7.61"/></g><g filter="url(#f822id14)"><path fill="#bfee84" d="M20.782 6.47c2.75-.625 5.125 1.126 4.703 4.141c-.543-2.803-1.825-3.881-4.703-4.14"/></g><g filter="url(#f822id15)"><path fill="url(#f822ide)" d="M24.297 20.344s.734-3.75-.672-5.782c-.437-.218-.93-.008-.656.297c1.578 1.766 1.328 5.485 1.328 5.485"/></g><g filter="url(#f822id16)"><path fill="url(#f822idf)" d="M24.297 20.344s.734-3.75-.672-5.782c-.437-.218-.93-.008-.656.297c1.578 1.766 1.328 5.485 1.328 5.485"/></g><g filter="url(#f822id17)"><path fill="url(#f822idg)" d="M12.008 7.324s3.797-.435 5.71 1.127c.184.454-.064.928-.348.631c-1.635-1.713-5.362-1.758-5.362-1.758"/></g><g filter="url(#f822id18)"><path fill="url(#f822idh)" d="M12.008 7.324s3.797-.435 5.71 1.127c.184.454-.064.928-.348.631c-1.635-1.713-5.362-1.758-5.362-1.758"/></g><g filter="url(#f822id19)"><path fill="url(#f822idi)" d="M11.167 7.96s-2.436 2.81-2.326 5.233c.244.398.657.504.573.114c-.534-2.465 1.753-5.347 1.753-5.347"/></g><g filter="url(#f822id1a)"><path fill="url(#f822idj)" d="M23.969 20.813s-1.734 2.786-4.384 2.453c-.41-.266-.6-.79-.194-.844c2.468-.328 4.578-1.61 4.578-1.61"/></g><g filter="url(#f822id1b)"><path stroke="url(#f822idk)" stroke-width="0.5" d="M5.781 16.063c-.375 1-.178 2.293 0 3.562c.25 1.781-.916 3.052-1.406 3.75c-.76.854-1.997 3.203-.672 4.828c1.325 1.625 3.318.839 3.828.485"/></g><g filter="url(#f822id1c)"><path stroke="url(#f822id1l)" stroke-width="0.1" d="M8.14 23.586c-.16.14-.527.481-.195.797c.313.297.563 0 .79-.219"/></g><g filter="url(#f822id1d)"><path stroke="url(#f822idl)" stroke-width="0.1" d="M10.633 20.719L9.78 17.89a.34.34 0 0 0-.414-.211c-.328.078-.273.375-.242.5c.025.1.672 2.159 1 3.21"/></g><g filter="url(#f822id1e)"><path stroke="url(#f822idm)" stroke-width="0.1" d="m15.61 15.836l-1.262-3.991a.34.34 0 0 0-.414-.211c-.328.078-.274.375-.243.5c.025.1.989 3.298 1.317 4.35"/></g><g filter="url(#f822id1f)"><path stroke="url(#f822idn)" stroke-width="0.1" d="m16.47 16.63l3.976 1.309a.34.34 0 0 1 .205.416c-.081.328-.378.27-.502.237c-.1-.026-3.287-1.028-4.335-1.368"/></g><g filter="url(#f822id1g)"><path stroke="url(#f822ido)" stroke-width="0.1" d="m11.567 21.644l2.825.862a.34.34 0 0 1 .21.415c-.08.327-.377.272-.502.24c-.1-.025-2.156-.68-3.207-1.012"/></g><g filter="url(#f822id1h)"><path fill="url(#f822idp)" d="m12.281 6.219l-.219-.75C8 4.375 6.75 6.219 6.75 6.219c2.688-.75 4.313-.281 5.531 0"/></g><g filter="url(#f822id1i)"><path fill="url(#f822idq)" d="m25.56 19.96l.755.204c1.174 4.04-.644 5.327-.644 5.327c.696-2.702.195-4.317-.11-5.53"/></g><g filter="url(#f822id1j)"><path fill="url(#f822idr)" d="M5.435 12.592h-.62c-.987-3.34.529-4.81.529-4.81c-.933 1.438-.28 3.906.091 4.81"/></g><defs><linearGradient id="f822id0" x1="28.25" x2="10.875" y1="14.188" y2="29" gradientUnits="userSpaceOnUse"><stop stop-color="#4b7916"/><stop offset=".165" stop-color="#4c4954"/><stop offset=".243" stop-color="#4c771d"/><stop offset=".464" stop-color="#524c55"/><stop offset=".575" stop-color="#605a62"/><stop offset="1" stop-color="#574d55"/></linearGradient><linearGradient id="f822id1" x1="26.063" x2="12.25" y1="11" y2="28.375" gradientUnits="userSpaceOnUse"><stop stop-color="#5a853f"/><stop offset=".72" stop-color="#5b7444"/><stop offset="1" stop-color="#51534b"/></linearGradient><linearGradient id="f822id2" x1="25.839" x2="28.773" y1="11.52" y2="17.779" gradientUnits="userSpaceOnUse"><stop stop-color="#80ae64"/><stop offset=".51" stop-color="#84b05d"/><stop offset="1" stop-color="#8bb34f" stop-opacity="0"/></linearGradient><linearGradient id="f822id3" x1="16.813" x2="2.875" y1="4.563" y2="19.938" gradientUnits="userSpaceOnUse"><stop stop-color="#5a873e"/><stop offset=".364" stop-color="#528034"/><stop offset=".578" stop-color="#5d8541"/><stop offset="1" stop-color="#4c6e39"/></linearGradient><linearGradient id="f822id4" x1="14.613" x2="16.063" y1="7.563" y2="29.132" gradientUnits="userSpaceOnUse"><stop stop-color="#2d5b18"/><stop offset=".514" stop-color="#436c30"/><stop offset=".907" stop-color="#374a2a"/></linearGradient><linearGradient id="f822id5" x1="20.406" x2="13.688" y1="5.25" y2="3.624" gradientUnits="userSpaceOnUse"><stop stop-color="#80ae64"/><stop offset=".51" stop-color="#84b05d"/><stop offset="1" stop-color="#8bb34f" stop-opacity="0"/></linearGradient><linearGradient id="f822id6" x1="4.063" x2="23" y1="26.375" y2="7.438" gradientUnits="userSpaceOnUse"><stop stop-color="#88ad37"/><stop offset=".419" stop-color="#70a124"/><stop offset=".536" stop-color="#71a520" stop-opacity="0.798"/><stop offset=".779" stop-color="#89bf21"/><stop offset="1" stop-color="#89c031"/></linearGradient><linearGradient id="f822id7" x1="3.75" x2="24.125" y1="26.688" y2="8.125" gradientUnits="userSpaceOnUse"><stop stop-color="#8fb541"/><stop offset=".169" stop-color="#86aa3c"/><stop offset=".358" stop-color="#8db93f"/><stop offset=".535" stop-color="#81a738"/><stop offset=".712" stop-color="#8cbc3d"/><stop offset=".884" stop-color="#82b42e"/><stop offset="1" stop-color="#83b835"/></linearGradient><linearGradient id="f822id8" x1="10.938" x2="16.344" y1="13.719" y2="21.375" gradientUnits="userSpaceOnUse"><stop stop-color="#457328"/><stop offset="1" stop-color="#46772a"/></linearGradient><linearGradient id="f822id9" x1="19.844" x2="15.563" y1="11.969" y2="16.25" gradientUnits="userSpaceOnUse"><stop offset=".311" stop-color="#5c8141"/><stop offset="1" stop-color="#5c8142" stop-opacity="0"/></linearGradient><linearGradient id="f822ida" x1="20.309" x2="15.696" y1="17.885" y2="16.425" gradientUnits="userSpaceOnUse"><stop offset=".434" stop-color="#4d6e3c"/><stop offset="1" stop-color="#4d6d3c" stop-opacity="0"/></linearGradient><linearGradient id="f822idb" x1="9.076" x2="10.512" y1="18.304" y2="22.926" gradientUnits="userSpaceOnUse"><stop offset=".597" stop-color="#5c8142"/><stop offset="1" stop-color="#4c6d3a" stop-opacity="0"/></linearGradient><linearGradient id="f822idc" x1="14.068" x2="9.439" y1="23.096" y2="21.685" gradientUnits="userSpaceOnUse"><stop offset=".597" stop-color="#5c8142"/><stop offset="1" stop-color="#4c6d3a" stop-opacity="0"/></linearGradient><linearGradient id="f822idd" x1="8.281" x2="15.876" y1="24.094" y2="16.501" gradientUnits="userSpaceOnUse"><stop offset=".689" stop-color="#5c8142"/><stop offset="1" stop-color="#5c8142" stop-opacity="0"/></linearGradient><linearGradient id="f822ide" x1="23.344" x2="24.063" y1="14.722" y2="20.344" gradientUnits="userSpaceOnUse"><stop stop-color="#b2de74" stop-opacity="0"/><stop offset=".233" stop-color="#b2de74"/><stop offset="1" stop-color="#b2dd74" stop-opacity="0"/></linearGradient><linearGradient id="f822idf" x1="23.344" x2="24.063" y1="14.722" y2="20.344" gradientUnits="userSpaceOnUse"><stop stop-color="#b2de74" stop-opacity="0"/><stop offset=".233" stop-color="#b2de74"/><stop offset="1" stop-color="#b2dd74" stop-opacity="0"/></linearGradient><linearGradient id="f822idg" x1="17.537" x2="11.99" y1="8.719" y2="7.558" gradientUnits="userSpaceOnUse"><stop stop-color="#b2de74" stop-opacity="0"/><stop offset=".233" stop-color="#b2de74"/><stop offset="1" stop-color="#b2dd74" stop-opacity="0"/></linearGradient><linearGradient id="f822idh" x1="17.537" x2="11.99" y1="8.719" y2="7.558" gradientUnits="userSpaceOnUse"><stop stop-color="#b2de74" stop-opacity="0"/><stop offset=".233" stop-color="#b2de74"/><stop offset="1" stop-color="#b2dd74" stop-opacity="0"/></linearGradient><linearGradient id="f822idi" x1="9.086" x2="11.279" y1="13.259" y2="8.04" gradientUnits="userSpaceOnUse"><stop stop-color="#8cb750"/><stop offset=".233" stop-color="#94c155"/><stop offset="1" stop-color="#abd46f" stop-opacity="0"/></linearGradient><linearGradient id="f822idj" x1="19.579" x2="24.788" y1="22.942" y2="20.708" gradientUnits="userSpaceOnUse"><stop offset=".58" stop-color="#96aa61"/><stop offset="1" stop-color="#819252" stop-opacity="0"/></linearGradient><linearGradient id="f822idk" x1="6.219" x2="1.406" y1="16.25" y2="25.344" gradientUnits="userSpaceOnUse"><stop stop-color="#8bb34f" stop-opacity="0"/><stop offset=".289" stop-color="#94c051"/><stop offset=".708" stop-color="#94be55"/><stop offset="1" stop-color="#8bb34f" stop-opacity="0"/></linearGradient><linearGradient id="f822idl" x1="9.461" x2="9.867" y1="19.07" y2="18.922" gradientUnits="userSpaceOnUse"><stop stop-color="#6e9253"/><stop offset="1" stop-color="#436c2f"/></linearGradient><linearGradient id="f822idm" x1="14" x2="14.516" y1="12.984" y2="12.836" gradientUnits="userSpaceOnUse"><stop stop-color="#597843"/><stop offset="1" stop-color="#456d31"/></linearGradient><linearGradient id="f822idn" x1="19.302" x2="19.456" y1="18.273" y2="17.759" gradientUnits="userSpaceOnUse"><stop stop-color="#597843"/><stop offset="1" stop-color="#456d31"/></linearGradient><linearGradient id="f822ido" x1="13.211" x2="13.361" y1="22.822" y2="22.416" gradientUnits="userSpaceOnUse"><stop stop-color="#6e9253"/><stop offset="1" stop-color="#436c2f"/></linearGradient><linearGradient id="f822idp" x1="11.594" x2="7.688" y1="5.762" y2="5.969" gradientUnits="userSpaceOnUse"><stop stop-color="#77a458"/><stop offset="1" stop-color="#77a458" stop-opacity="0"/></linearGradient><linearGradient id="f822idq" x1="26.031" x2="25.902" y1="20.639" y2="24.548" gradientUnits="userSpaceOnUse"><stop stop-color="#77a458"/><stop offset="1" stop-color="#77a458" stop-opacity="0"/></linearGradient><linearGradient id="f822idr" x1="5.044" x2="5.156" y1="12.032" y2="8.031" gradientUnits="userSpaceOnUse"><stop offset=".5" stop-color="#688e4f"/><stop offset="1" stop-color="#77a458" stop-opacity="0"/></linearGradient><filter id="f822ids" width="27.085" height="20.384" x="2.449" y="9.278" color-interpolation-filters="sRGB" filterUnits="userSpaceOnUse"><feFlood flood-opacity="0" result="BackgroundImageFix"/><feBlend in="SourceGraphic" in2="BackgroundImageFix" result="shape"/><feGaussianBlur result="effect1_foregroundBlur_18_30123" stdDeviation=".25"/></filter><filter id="f822idt" width="7.133" height="9.605" x="23.373" y="10.305" color-interpolation-filters="sRGB" filterUnits="userSpaceOnUse"><feFlood flood-opacity="0" result="BackgroundImageFix"/><feBlend in="SourceGraphic" in2="BackgroundImageFix" result="shape"/><feGaussianBlur result="effect1_foregroundBlur_18_30123" stdDeviation=".5"/></filter><filter id="f822idu" width="20.25" height="27.352" x="2.375" y="2.311" color-interpolation-filters="sRGB" filterUnits="userSpaceOnUse"><feFlood flood-opacity="0" result="BackgroundImageFix"/><feBlend in="SourceGraphic" in2="BackgroundImageFix" result="shape"/><feGaussianBlur result="effect1_foregroundBlur_18_30123" stdDeviation=".25"/></filter><filter id="f822idv" width="23.377" height="24.445" x="2.924" y="5.687" color-interpolation-filters="sRGB" filterUnits="userSpaceOnUse"><feFlood flood-opacity="0" result="BackgroundImageFix"/><feBlend in="SourceGraphic" in2="BackgroundImageFix" result="shape"/><feGaussianBlur result="effect1_foregroundBlur_18_30123" stdDeviation=".5"/></filter><filter id="f822idw" width="10.023" height="6.316" x="11.774" y="1.355" color-interpolation-filters="sRGB" filterUnits="userSpaceOnUse"><feFlood flood-opacity="0" result="BackgroundImageFix"/><feBlend in="SourceGraphic" in2="BackgroundImageFix" result="shape"/><feGaussianBlur result="effect1_foregroundBlur_18_30123" stdDeviation=".5"/></filter><filter id="f822idx" width="2.421" height="10.563" x="2.001" y="14.563" color-interpolation-filters="sRGB" filterUnits="userSpaceOnUse"><feFlood flood-opacity="0" result="BackgroundImageFix"/><feBlend in="SourceGraphic" in2="BackgroundImageFix" result="shape"/><feGaussianBlur result="effect1_foregroundBlur_18_30123" stdDeviation=".25"/></filter><filter id="f822idy" width="22.373" height="22.652" x="3.135" y="6.515" color-interpolation-filters="sRGB" filterUnits="userSpaceOnUse"><feFlood flood-opacity="0" result="BackgroundImageFix"/><feBlend in="SourceGraphic" in2="BackgroundImageFix" result="shape"/><feGaussianBlur result="effect1_foregroundBlur_18_30123" stdDeviation=".125"/></filter><filter id="f822idz" width="5.156" height="5.172" x="15.813" y="11.328" color-interpolation-filters="sRGB" filterUnits="userSpaceOnUse"><feFlood flood-opacity="0" result="BackgroundImageFix"/><feBlend in="SourceGraphic" in2="BackgroundImageFix" result="shape"/><feGaussianBlur result="effect1_foregroundBlur_18_30123" stdDeviation=".125"/></filter><filter id="f822id10" width="6.444" height="3.053" x="14.691" y="15.966" color-interpolation-filters="sRGB" filterUnits="userSpaceOnUse"><feFlood flood-opacity="0" result="BackgroundImageFix"/><feBlend in="SourceGraphic" in2="BackgroundImageFix" result="shape"/><feGaussianBlur result="effect1_foregroundBlur_18_30123" stdDeviation=".125"/></filter><filter id="f822id11" width="2.387" height="4.939" x="8.722" y="17.398" color-interpolation-filters="sRGB" filterUnits="userSpaceOnUse"><feFlood flood-opacity="0" result="BackgroundImageFix"/><feBlend in="SourceGraphic" in2="BackgroundImageFix" result="shape"/><feGaussianBlur result="effect1_foregroundBlur_18_30123" stdDeviation=".125"/></filter><filter id="f822id12" width="4.945" height="2.367" x="10.027" y="21.081" color-interpolation-filters="sRGB" filterUnits="userSpaceOnUse"><feFlood flood-opacity="0" result="BackgroundImageFix"/><feBlend in="SourceGraphic" in2="BackgroundImageFix" result="shape"/><feGaussianBlur result="effect1_foregroundBlur_18_30123" stdDeviation=".125"/></filter><filter id="f822id13" width="9.203" height="9.109" x="7.422" y="15.75" color-interpolation-filters="sRGB" filterUnits="userSpaceOnUse"><feFlood flood-opacity="0" result="BackgroundImageFix"/><feBlend in="SourceGraphic" in2="BackgroundImageFix" result="shape"/><feGaussianBlur result="effect1_foregroundBlur_18_30123" stdDeviation=".125"/></filter><filter id="f822id14" width="5.752" height="5.267" x="20.282" y="5.844" color-interpolation-filters="sRGB" filterUnits="userSpaceOnUse"><feFlood flood-opacity="0" result="BackgroundImageFix"/><feBlend in="SourceGraphic" in2="BackgroundImageFix" result="shape"/><feGaussianBlur result="effect1_foregroundBlur_18_30123" stdDeviation=".25"/></filter><filter id="f822id15" width="2.599" height="6.871" x="22.39" y="13.972" color-interpolation-filters="sRGB" filterUnits="userSpaceOnUse"><feFlood flood-opacity="0" result="BackgroundImageFix"/><feBlend in="SourceGraphic" in2="BackgroundImageFix" result="shape"/><feGaussianBlur result="effect1_foregroundBlur_18_30123" stdDeviation=".25"/></filter><filter id="f822id16" width="2.599" height="6.871" x="22.39" y="13.972" color-interpolation-filters="sRGB" filterUnits="userSpaceOnUse"><feFlood flood-opacity="0" result="BackgroundImageFix"/><feBlend in="SourceGraphic" in2="BackgroundImageFix" result="shape"/><feGaussianBlur result="effect1_foregroundBlur_18_30123" stdDeviation=".25"/></filter><filter id="f822id17" width="6.773" height="2.906" x="11.508" y="6.768" color-interpolation-filters="sRGB" filterUnits="userSpaceOnUse"><feFlood flood-opacity="0" result="BackgroundImageFix"/><feBlend in="SourceGraphic" in2="BackgroundImageFix" result="shape"/><feGaussianBlur result="effect1_foregroundBlur_18_30123" stdDeviation=".25"/></filter><filter id="f822id18" width="6.773" height="2.906" x="11.508" y="6.768" color-interpolation-filters="sRGB" filterUnits="userSpaceOnUse"><feFlood flood-opacity="0" result="BackgroundImageFix"/><feBlend in="SourceGraphic" in2="BackgroundImageFix" result="shape"/><feGaussianBlur result="effect1_foregroundBlur_18_30123" stdDeviation=".25"/></filter><filter id="f822id19" width="3.33" height="6.591" x="8.337" y="7.46" color-interpolation-filters="sRGB" filterUnits="userSpaceOnUse"><feFlood flood-opacity="0" result="BackgroundImageFix"/><feBlend in="SourceGraphic" in2="BackgroundImageFix" result="shape"/><feGaussianBlur result="effect1_foregroundBlur_18_30123" stdDeviation=".25"/></filter><filter id="f822id1a" width="5.804" height="3.481" x="18.665" y="20.313" color-interpolation-filters="sRGB" filterUnits="userSpaceOnUse"><feFlood flood-opacity="0" result="BackgroundImageFix"/><feBlend in="SourceGraphic" in2="BackgroundImageFix" result="shape"/><feGaussianBlur result="effect1_foregroundBlur_18_30123" stdDeviation=".25"/></filter><filter id="f822id1b" width="5.805" height="14.467" x="2.369" y="15.475" color-interpolation-filters="sRGB" filterUnits="userSpaceOnUse"><feFlood flood-opacity="0" result="BackgroundImageFix"/><feBlend in="SourceGraphic" in2="BackgroundImageFix" result="shape"/><feGaussianBlur result="effect1_foregroundBlur_18_30123" stdDeviation=".25"/></filter><filter id="f822id1c" width="1.209" height="1.21" x="7.66" y="23.448" color-interpolation-filters="sRGB" filterUnits="userSpaceOnUse"><feFlood flood-opacity="0" result="BackgroundImageFix"/><feBlend in="SourceGraphic" in2="BackgroundImageFix" result="shape"/><feGaussianBlur result="effect1_foregroundBlur_18_30123" stdDeviation=".05"/></filter><filter id="f822id1d" width="1.83" height="3.988" x="8.951" y="17.518" color-interpolation-filters="sRGB" filterUnits="userSpaceOnUse"><feFlood flood-opacity="0" result="BackgroundImageFix"/><feBlend in="SourceGraphic" in2="BackgroundImageFix" result="shape"/><feGaussianBlur result="effect1_foregroundBlur_18_30123" stdDeviation=".05"/></filter><filter id="f822id1e" width="2.24" height="5.127" x="13.517" y="11.472" color-interpolation-filters="sRGB" filterUnits="userSpaceOnUse"><feFlood flood-opacity="0" result="BackgroundImageFix"/><feBlend in="SourceGraphic" in2="BackgroundImageFix" result="shape"/><feGaussianBlur result="effect1_foregroundBlur_18_30123" stdDeviation=".05"/></filter><filter id="f822id1f" width="5.116" height="2.285" x="15.699" y="16.482" color-interpolation-filters="sRGB" filterUnits="userSpaceOnUse"><feFlood flood-opacity="0" result="BackgroundImageFix"/><feBlend in="SourceGraphic" in2="BackgroundImageFix" result="shape"/><feGaussianBlur result="effect1_foregroundBlur_18_30123" stdDeviation=".05"/></filter><filter id="f822id1g" width="3.986" height="1.84" x="10.778" y="21.496" color-interpolation-filters="sRGB" filterUnits="userSpaceOnUse"><feFlood flood-opacity="0" result="BackgroundImageFix"/><feBlend in="SourceGraphic" in2="BackgroundImageFix" result="shape"/><feGaussianBlur result="effect1_foregroundBlur_18_30123" stdDeviation=".05"/></filter><filter id="f822id1h" width="6.531" height="2.097" x="6.25" y="4.622" color-interpolation-filters="sRGB" filterUnits="userSpaceOnUse"><feFlood flood-opacity="0" result="BackgroundImageFix"/><feBlend in="SourceGraphic" in2="BackgroundImageFix" result="shape"/><feGaussianBlur result="effect1_foregroundBlur_18_30123" stdDeviation=".25"/></filter><filter id="f822id1i" width="2.149" height="6.53" x="25.061" y="19.461" color-interpolation-filters="sRGB" filterUnits="userSpaceOnUse"><feFlood flood-opacity="0" result="BackgroundImageFix"/><feBlend in="SourceGraphic" in2="BackgroundImageFix" result="shape"/><feGaussianBlur result="effect1_foregroundBlur_18_30123" stdDeviation=".25"/></filter><filter id="f822id1j" width="1.955" height="5.811" x="3.981" y="7.281" color-interpolation-filters="sRGB" filterUnits="userSpaceOnUse"><feFlood flood-opacity="0" result="BackgroundImageFix"/><feBlend in="SourceGraphic" in2="BackgroundImageFix" result="shape"/><feGaussianBlur result="effect1_foregroundBlur_18_30123" stdDeviation=".25"/></filter><radialGradient id="f822id1k" cx="0" cy="0" r="1" gradientTransform="matrix(-1.06251 5.5625 -5.56664 -1.0633 14.875 16.938)" gradientUnits="userSpaceOnUse"><stop stop-color="#3e5d2e"/><stop offset="1" stop-color="#40602f" stop-opacity="0"/></radialGradient><radialGradient id="f822id1l" cx="0" cy="0" r="1" gradientTransform="matrix(.4297 -.52343 .40848 .33533 7.96 24.351)" gradientUnits="userSpaceOnUse"><stop stop-color="#80ae64"/><stop offset="1" stop-color="#8bb34f" stop-opacity="0"/></radialGradient></defs></g></svg>