<svg width="32" height="7" viewBox="0 0 32 7" fill="none" xmlns="http://www.w3.org/2000/svg">
<path d="M6.472 6.304C6.28 6.304 6.12 6.248 5.992 6.136C5.736 5.928 5.664 5.664 5.776 5.344C5.776 5.328 5.832 5.136 5.944 4.768C6.072 4.4 6.216 3.984 6.376 3.52C6.456 3.248 6.528 3.016 6.592 2.824C6.656 2.616 6.712 2.432 6.76 2.272C6.328 2.432 5.8 2.632 5.176 2.872C4.552 3.096 3.896 3.336 3.208 3.592C2.536 3.848 1.88 4.096 1.24 4.336C1.064 4.4 0.888 4.392 0.712 4.312C0.52 4.216 0.384 4.072 0.304 3.88C0.24 3.704 0.256 3.528 0.352 3.352C0.432 3.16 0.568 3.024 0.76 2.944C1.48 2.688 2.224 2.424 2.992 2.152C3.76 1.864 4.472 1.6 5.128 1.36C5.784 1.104 6.32 0.896 6.736 0.736C7.152 0.575999 7.36 0.495999 7.36 0.495999C7.44 0.48 7.52 0.472 7.6 0.472C7.68 0.456 7.752 0.464 7.816 0.495999C8.04 0.527999 8.2 0.655999 8.296 0.879999C8.376 1.008 8.408 1.176 8.392 1.384C8.392 1.576 8.352 1.856 8.272 2.224C8.224 2.432 8.16 2.664 8.08 2.92C8.016 3.16 7.928 3.44 7.816 3.76C7.8 3.824 7.784 3.88 7.768 3.928C7.752 3.976 7.736 4.032 7.72 4.096C8.36 3.744 9.144 3.376 10.072 2.992C10.248 2.912 10.424 2.912 10.6 2.992C10.792 3.056 10.92 3.176 10.984 3.352C11.08 3.528 11.088 3.712 11.008 3.904C10.928 4.096 10.8 4.232 10.624 4.312C9.904 4.632 9.256 4.936 8.68 5.224C8.12 5.512 7.672 5.744 7.336 5.92C7 6.096 6.832 6.184 6.832 6.184C6.736 6.264 6.616 6.304 6.472 6.304ZM13.5201 5.584C13.4401 5.584 13.3761 5.576 13.3281 5.56C13.0721 5.496 12.8881 5.4 12.7761 5.272C12.6801 5.128 12.6161 5.016 12.5841 4.936C12.4721 4.584 12.5121 4.224 12.7041 3.856C12.8961 3.472 13.1441 3.072 13.4481 2.656C13.5441 2.528 13.6321 2.392 13.7121 2.248C13.8081 2.088 13.8881 1.952 13.9521 1.84C13.9681 1.824 13.9921 1.792 14.0241 1.744C13.9281 1.776 13.8081 1.824 13.6641 1.888C13.5361 1.952 13.3841 2.048 13.2081 2.176C12.9201 2.352 12.6161 2.584 12.2961 2.872C11.9761 3.144 11.6481 3.432 11.3121 3.736C11.2321 3.8 11.1441 3.872 11.0481 3.952C10.9681 4.032 10.8881 4.112 10.8081 4.192C10.6641 4.32 10.4961 4.384 10.3041 4.384C10.0961 4.368 9.92812 4.28 9.80012 4.12C9.65612 3.976 9.59212 3.808 9.60812 3.616C9.62412 3.408 9.70412 3.24 9.84812 3.112C9.92812 3.032 10.0161 2.952 10.1121 2.872C10.1921 2.792 10.2721 2.72 10.3521 2.656C10.8641 2.192 11.3681 1.768 11.8641 1.384C12.3601 0.984 12.8481 0.68 13.3281 0.472C13.8081 0.263999 14.2721 0.224 14.7201 0.352C14.9921 0.416 15.1841 0.528 15.2961 0.688C15.4241 0.832 15.4961 0.96 15.5121 1.072C15.6561 1.424 15.6241 1.8 15.4161 2.2C15.2081 2.584 14.9441 3.008 14.6241 3.472C14.5921 3.504 14.5521 3.56 14.5041 3.64C14.4721 3.704 14.4321 3.768 14.3841 3.832C14.6241 3.736 14.9361 3.616 15.3201 3.472C15.7041 3.328 16.1681 3.152 16.7121 2.944C16.9201 2.88 17.1121 2.896 17.2881 2.992C17.4641 3.072 17.5841 3.208 17.6481 3.4C17.7281 3.576 17.7201 3.76 17.6241 3.952C17.5441 4.128 17.4161 4.256 17.2401 4.336C16.7281 4.512 16.2641 4.672 15.8481 4.816C15.4321 4.96 15.0801 5.088 14.7921 5.2C14.6321 5.264 14.4881 5.32 14.3601 5.368C14.2481 5.4 14.1441 5.432 14.0481 5.464C13.9361 5.496 13.8401 5.528 13.7601 5.56C13.6801 5.576 13.6001 5.584 13.5201 5.584ZM25.3615 6.064C25.2495 6.064 25.1455 6.048 25.0495 6.016C24.7455 5.952 24.5295 5.768 24.4015 5.464C24.3055 5.192 24.3295 4.888 24.4735 4.552C24.6335 4.216 24.8415 3.84 25.0975 3.424C25.1935 3.28 25.2815 3.136 25.3615 2.992C25.4575 2.832 25.5375 2.688 25.6015 2.56C25.6335 2.512 25.6575 2.472 25.6735 2.44C25.6895 2.392 25.7055 2.352 25.7215 2.32C25.2415 2.24 24.6815 2.224 24.0415 2.272C23.4175 2.304 22.7135 2.424 21.9295 2.632C21.2415 2.808 20.4975 3.04 19.6975 3.328C18.9135 3.6 18.0815 3.928 17.2015 4.312C17.0255 4.376 16.8495 4.376 16.6735 4.312C16.4975 4.248 16.3695 4.128 16.2895 3.952C16.1935 3.776 16.1855 3.592 16.2655 3.4C16.3455 3.192 16.4735 3.056 16.6495 2.992C17.5455 2.592 18.4015 2.248 19.2175 1.96C20.0495 1.656 20.8335 1.416 21.5695 1.24C23.5375 0.743999 25.1455 0.664 26.3935 1C26.7615 1.096 27.0175 1.32 27.1615 1.672C27.3055 2.024 27.2735 2.416 27.0655 2.848C26.8575 3.28 26.6095 3.728 26.3215 4.192C26.3055 4.224 26.2815 4.264 26.2495 4.312C26.2175 4.36 26.1855 4.416 26.1535 4.48C26.5215 4.4 27.0655 4.24 27.7855 4C28.5055 3.76 29.4975 3.408 30.7615 2.944C30.9375 2.88 31.1135 2.896 31.2895 2.992C31.4815 3.072 31.6095 3.208 31.6735 3.4C31.7535 3.576 31.7535 3.76 31.6735 3.952C31.5935 4.128 31.4495 4.256 31.2415 4.336C30.5055 4.592 29.8335 4.824 29.2255 5.032C28.6175 5.24 28.0735 5.416 27.5935 5.56C26.9535 5.752 26.4655 5.888 26.1295 5.968C25.7935 6.032 25.5375 6.064 25.3615 6.064Z" fill="white"/>
</svg>
