<svg width="915" height="120" viewBox="0 0 915 120" fill="currentColor" xmlns="http://www.w3.org/2000/svg">
<path d="M31.36 95.52C30.4 95.52 29.6 95.24 28.96 94.68C27.68 93.64 27.32 92.32 27.88 90.72C27.88 90.64 28.16 89.68 28.72 87.84C29.36 86 30.08 83.92 30.88 81.6C31.28 80.24 31.64 79.08 31.96 78.12C32.28 77.08 32.56 76.16 32.8 75.36C30.64 76.16 28 77.16 24.88 78.36C21.76 79.48 18.48 80.68 15.04 81.96C11.68 83.24 8.4 84.48 5.2 85.68C4.32 86 3.44 85.96 2.56 85.56C1.6 85.08 0.92 84.36 0.52 83.4C0.2 82.52 0.28 81.64 0.76 80.76C1.16 79.8 1.84 79.12 2.8 78.72C6.4 77.44 10.12 76.12 13.96 74.76C17.8 73.32 21.36 72 24.64 70.8C27.92 69.52 30.6 68.48 32.68 67.68C34.76 66.88 35.8 66.48 35.8 66.48C36.2 66.4 36.6 66.36 37 66.36C37.4 66.28 37.76 66.32 38.08 66.48C39.2 66.64 40 67.28 40.48 68.4C40.88 69.04 41.04 69.88 40.96 70.92C40.96 71.88 40.76 73.28 40.36 75.12C40.12 76.16 39.8 77.32 39.4 78.6C39.08 79.8 38.64 81.2 38.08 82.8C38 83.12 37.92 83.4 37.84 83.64C37.76 83.88 37.68 84.16 37.6 84.48C40.8 82.72 44.72 80.88 49.36 78.96C50.24 78.56 51.12 78.56 52 78.96C52.96 79.28 53.6 79.88 53.92 80.76C54.4 81.64 54.44 82.56 54.04 83.52C53.64 84.48 53 85.16 52.12 85.56C48.52 87.16 45.28 88.68 42.4 90.12C39.6 91.56 37.36 92.72 35.68 93.6C34 94.48 33.16 94.92 33.16 94.92C32.68 95.32 32.08 95.52 31.36 95.52ZM66.6006 91.92C66.2006 91.92 65.8806 91.88 65.6406 91.8C64.3606 91.48 63.4406 91 62.8806 90.36C62.4006 89.64 62.0806 89.08 61.9206 88.68C61.3606 86.92 61.5606 85.12 62.5206 83.28C63.4806 81.36 64.7206 79.36 66.2406 77.28C66.7206 76.64 67.1606 75.96 67.5606 75.24C68.0406 74.44 68.4406 73.76 68.7606 73.2C68.8406 73.12 68.9606 72.96 69.1206 72.72C68.6406 72.88 68.0406 73.12 67.3206 73.44C66.6806 73.76 65.9206 74.24 65.0406 74.88C63.6006 75.76 62.0806 76.92 60.4806 78.36C58.8806 79.72 57.2406 81.16 55.5606 82.68C55.1606 83 54.7206 83.36 54.2406 83.76C53.8406 84.16 53.4406 84.56 53.0406 84.96C52.3206 85.6 51.4806 85.92 50.5206 85.92C49.4806 85.84 48.6406 85.4 48.0006 84.6C47.2806 83.88 46.9606 83.04 47.0406 82.08C47.1206 81.04 47.5206 80.2 48.2406 79.56C48.6406 79.16 49.0806 78.76 49.5606 78.36C49.9606 77.96 50.3606 77.6 50.7606 77.28C53.3206 74.96 55.8406 72.84 58.3206 70.92C60.8006 68.92 63.2406 67.4 65.6406 66.36C68.0406 65.32 70.3606 65.12 72.6006 65.76C73.9606 66.08 74.9206 66.64 75.4806 67.44C76.1206 68.16 76.4806 68.8 76.5606 69.36C77.2806 71.12 77.1206 73 76.0806 75C75.0406 76.92 73.7206 79.04 72.1206 81.36C71.9606 81.52 71.7606 81.8 71.5206 82.2C71.3606 82.52 71.1606 82.84 70.9206 83.16C72.1206 82.68 73.6806 82.08 75.6006 81.36C77.5206 80.64 79.8406 79.76 82.5606 78.72C83.6006 78.4 84.5606 78.48 85.4406 78.96C86.3206 79.36 86.9206 80.04 87.2406 81C87.6406 81.88 87.6006 82.8 87.1206 83.76C86.7206 84.64 86.0806 85.28 85.2006 85.68C82.6406 86.56 80.3206 87.36 78.2406 88.08C76.1606 88.8 74.4006 89.44 72.9606 90C72.1606 90.32 71.4406 90.6 70.8006 90.84C70.2406 91 69.7206 91.16 69.2406 91.32C68.6806 91.48 68.2006 91.64 67.8006 91.8C67.4006 91.88 67.0006 91.92 66.6006 91.92ZM125.808 94.32C125.248 94.32 124.728 94.24 124.248 94.08C122.728 93.76 121.648 92.84 121.008 91.32C120.528 89.96 120.648 88.44 121.368 86.76C122.168 85.08 123.208 83.2 124.488 81.12C124.968 80.4 125.408 79.68 125.808 78.96C126.288 78.16 126.688 77.44 127.008 76.8C127.168 76.56 127.288 76.36 127.368 76.2C127.448 75.96 127.528 75.76 127.608 75.6C125.208 75.2 122.408 75.12 119.208 75.36C116.088 75.52 112.568 76.12 108.648 77.16C105.208 78.04 101.488 79.2 97.4875 80.64C93.5675 82 89.4075 83.64 85.0075 85.56C84.1275 85.88 83.2475 85.88 82.3675 85.56C81.4875 85.24 80.8475 84.64 80.4475 83.76C79.9675 82.88 79.9275 81.96 80.3275 81C80.7275 79.96 81.3675 79.28 82.2475 78.96C86.7275 76.96 91.0075 75.24 95.0875 73.8C99.2475 72.28 103.168 71.08 106.848 70.2C116.688 67.72 124.728 67.32 130.968 69C132.808 69.48 134.088 70.6 134.808 72.36C135.528 74.12 135.368 76.08 134.328 78.24C133.288 80.4 132.048 82.64 130.608 84.96C130.528 85.12 130.408 85.32 130.248 85.56C130.088 85.8 129.928 86.08 129.768 86.4C131.608 86 134.328 85.2 137.928 84C141.528 82.8 146.488 81.04 152.808 78.72C153.688 78.4 154.568 78.48 155.448 78.96C156.408 79.36 157.048 80.04 157.368 81C157.768 81.88 157.768 82.8 157.368 83.76C156.968 84.64 156.248 85.28 155.208 85.68C151.528 86.96 148.168 88.12 145.128 89.16C142.088 90.2 139.368 91.08 136.968 91.8C133.768 92.76 131.328 93.44 129.648 93.84C127.968 94.16 126.688 94.32 125.808 94.32Z" fill="white"/>
<path d="M203.24 90.7695C202.029 92.3125 201.033 93.1621 200.252 93.3184C199.49 93.4941 198.855 93.5137 198.348 93.377C197.84 93.2402 197.391 93.0156 197 92.7031C196.18 92 195.77 91.0625 195.77 89.8906C195.77 89.0312 196.033 88.1719 196.561 87.3125C207.947 69.207 214.139 59.4023 215.135 57.8984C217.479 54.4219 218.836 52.4688 219.207 52.0391L219.939 51.1602C222.127 48.6406 224.969 47.3809 228.465 47.3809C231.18 47.3809 233.035 47.9766 234.031 49.168C234.266 49.4219 234.383 49.9102 234.383 50.6328C234.402 51.3555 234.441 52.5078 234.5 54.0898L234.646 59.1289C234.705 60.9062 234.773 62.7227 234.852 64.5781L235.027 70.0273C235.184 73.543 235.32 76.5703 235.438 79.1094C236.199 77.7617 236.971 76.1895 237.752 74.3926L240.242 68.709C242.508 63.6309 244.695 59.6172 246.805 56.668C248.133 54.7734 250.32 53.8262 253.367 53.8262C255.613 53.8262 257.625 54.3145 259.402 55.291C260.477 55.877 261.004 56.3945 260.984 56.8438C260.984 57.2539 260.838 57.6445 260.545 58.0156L259.93 58.8652C258.543 60.7988 257.176 62.8105 255.828 64.9004L251.902 71.1406C246.395 80.2422 243.201 85.4668 242.322 86.8145C241.443 88.1621 240.77 89.1094 240.301 89.6562C239.852 90.1836 239.256 90.6328 238.514 91.0039C237.791 91.375 236.961 91.707 236.023 92C233.992 92.6445 232.303 92.9668 230.955 92.9668C228.689 92.9668 227.156 92.6445 226.355 92C225.496 91.2188 224.285 86.6875 222.723 78.4062L221.727 72.8984C221.414 71.0234 221.131 69.1582 220.877 67.3027C220.232 68.2988 219.402 69.4805 218.387 70.8477L209.773 82.332L203.24 90.7695ZM311.082 50.9844C312.391 50.9844 313.045 51.4336 313.045 52.332C313.045 53.5234 312.137 55.3398 310.32 57.7812C308.855 59.7344 306.756 61.043 304.021 61.707C303.201 61.9219 302.449 62.0293 301.766 62.0293C301.102 62.0293 300.379 61.9805 299.598 61.8828C297.586 61.6289 295.066 61.4629 292.039 61.3848C289.656 65.6035 287.898 68.8262 286.766 71.0527L291.307 70.9355C292.225 70.9746 293.348 70.9258 294.676 70.7891L297.605 70.5254C298.191 70.4668 298.582 70.4277 298.777 70.4082C299.578 70.3301 300.076 70.4375 300.271 70.7305C300.643 71.2578 300.828 71.873 300.828 72.5762C300.828 73.2793 300.779 73.8848 300.682 74.3926C300.584 74.8809 300.447 75.3496 300.271 75.7988C299.881 76.7949 299.441 77.4883 298.953 77.8789C297.898 78.7188 296.141 79.1387 293.68 79.1387C293.211 79.1387 292.762 79.1191 292.332 79.0801L283.396 78.377C281.893 81.9512 280.711 85.4375 279.852 88.8359C279.188 91.4141 276.678 92.7031 272.322 92.7031C268.729 92.7031 266.434 91.8633 265.438 90.1836C265.105 89.6172 264.979 89.0801 265.057 88.5723C265.135 88.0645 265.32 87.498 265.613 86.873C265.926 86.2285 266.336 85.4375 266.844 84.5L271.004 77.3809C270.926 77.3809 270.662 77.3613 270.213 77.3223C269.783 77.2832 269.461 77.2344 269.246 77.1758C268.719 77 268.289 76.6777 267.957 76.209C267.625 75.7402 267.459 75.252 267.459 74.7441C267.459 73.748 267.752 72.9961 268.338 72.4883C268.924 71.9805 269.529 71.6875 270.154 71.6094C270.799 71.5312 271.492 71.4824 272.234 71.4629L274.695 71.4043C277.703 66.7363 279.881 63.4355 281.229 61.502C276.385 61.8535 272.176 62.9961 268.602 64.9297C267.605 65.4766 266.795 66.0137 266.17 66.541C265.564 67.0684 265.047 67.332 264.617 67.332C264.188 67.332 263.816 67.2734 263.504 67.1562C263.211 67.0195 262.938 66.8438 262.684 66.6289C262.137 66.1406 261.863 65.6133 261.863 65.0469C261.863 64.4609 262.02 63.9238 262.332 63.4355C266.062 57.6738 270.223 54.1484 274.812 52.8594C276.434 52.4102 278.211 52.1855 280.145 52.1855C288.191 52.1855 294.578 52.0879 299.305 51.8926C304.051 51.6973 306.639 51.5703 307.068 51.5117L309.793 51.1016C310.242 51.0234 310.672 50.9844 311.082 50.9844ZM360.008 51.5117C361.316 51.5117 361.971 51.9707 361.971 52.8887C361.971 54.0605 361.062 55.7305 359.246 57.8984L358.689 58.543C357.088 60.4961 355.057 61.834 352.596 62.5566C351.736 62.8105 351.033 62.9375 350.486 62.9375C349.783 62.9375 349.236 62.918 348.846 62.8789C348.455 62.8398 347.889 62.791 347.146 62.7324L344.656 62.5273C342.547 62.3906 340.438 62.2637 338.328 62.1465C334.441 65.9551 331.141 70.1055 328.426 74.5977C327.43 76.2578 326.932 77.2832 326.932 77.6738C326.932 79.5488 327.557 80.877 328.807 81.6582C330.076 82.4395 331.775 82.8301 333.904 82.8301C336.053 82.8301 337.879 82.7227 339.383 82.5078C340.906 82.2734 342.332 81.9902 343.66 81.6582C345.008 81.3066 346.248 80.9258 347.381 80.5156C348.533 80.0859 349.539 79.6855 350.398 79.3145C351.277 78.9434 352 78.6113 352.566 78.3184L353.709 77.7324C354.314 77.5762 354.881 77.6445 355.408 77.9375C356.346 78.5039 356.814 79.1484 356.814 79.8711C356.814 80.5938 356.395 81.3164 355.555 82.0391C348.777 87.8789 341.072 91.4238 332.439 92.6738C329.627 93.084 326.961 93.2891 324.441 93.2891C321.922 93.2891 319.949 93.1523 318.523 92.8789C317.117 92.625 315.936 92.2734 314.979 91.8242C314.041 91.375 313.299 90.8574 312.752 90.2715C312.205 89.666 311.795 89.0312 311.521 88.3672C311.111 87.3711 310.906 86.209 310.906 84.8809C310.906 83.5332 311.092 82.4297 311.463 81.5703C311.854 80.7109 312.332 79.8809 312.898 79.0801C313.465 78.2793 314.08 77.4883 314.744 76.707C315.428 75.9258 315.975 75.2422 316.385 74.6562C316.814 74.0703 317.293 73.4844 317.82 72.8984C320.828 69.7734 322.85 67.7031 323.885 66.6875L328.924 61.8828C325.838 61.8828 323.689 62.0488 322.479 62.3809C321.287 62.6934 320.262 62.9863 319.402 63.2598C318.562 63.5332 317.703 63.8262 316.824 64.1387C315.945 64.4512 315.145 64.7539 314.422 65.0469C312.762 65.7109 311.785 66.1699 311.492 66.4238C311.199 66.6582 310.838 66.7754 310.408 66.7754C309.979 66.7754 309.578 66.707 309.207 66.5703C308.855 66.4141 308.533 66.1992 308.24 65.9258C307.596 65.3594 307.273 64.7344 307.273 64.0508C307.273 63.3477 307.498 62.6641 307.947 62C308.416 61.3359 309.129 60.584 310.086 59.7441C311.043 58.8848 312.029 58.0547 313.045 57.2539L315.828 55.0566C316.688 54.373 317.264 53.8164 317.557 53.3867C318.416 52.1367 320.477 51.2969 323.738 50.8672C324.676 50.7305 325.633 50.6621 326.609 50.6621C327.605 50.6621 328.953 50.7402 330.652 50.8965C332.371 51.0527 334.422 51.2188 336.805 51.3945C343.172 51.9023 347.85 52.1562 350.838 52.1562C353.846 52.1562 355.564 52.1172 355.994 52.0391L357.312 51.834C358.582 51.6191 359.48 51.5117 360.008 51.5117ZM439.285 84.8809L439.344 82.8887C439.383 81.6387 439.5 80.2715 439.695 78.7871L440.164 75.3301C440.262 74.5098 440.359 73.7676 440.457 73.1035C438.602 75.1348 437.107 76.7168 435.975 77.8496L432.605 81.1309C425.066 88.1816 420.574 91.707 419.129 91.707C417 91.707 414.764 91.248 412.42 90.3301C411.15 89.8223 410.428 89.2949 410.252 88.748C409.979 88.0645 409.842 87.1367 409.842 85.9648C409.842 84.7734 409.881 83.6797 409.959 82.6836C410.037 81.6875 410.135 80.7012 410.252 79.7246C410.369 78.7285 410.486 77.7812 410.604 76.8828C410.74 75.9648 410.848 75.1641 410.926 74.4805C411.121 72.9375 411.16 72.166 411.043 72.166L400.145 85.5547C395.008 91.5898 392.088 94.9297 391.385 95.5742C389.881 96.9414 388.221 97.625 386.404 97.625C385.506 97.625 384.764 97.4004 384.178 96.9512C383.592 96.502 383.299 95.9453 383.299 95.2812C383.299 93.9531 383.855 92.5664 384.969 91.1211L410.984 58.0449L414.031 54.3828C417.664 50.1055 420.047 47.9668 421.18 47.9668C422.762 47.9668 424.266 48.3672 425.691 49.168C426.961 49.8711 427.684 50.5547 427.859 51.2188C427.938 51.4727 427.771 52.6543 427.361 54.7637L426.336 60.3008C425.184 66.4727 424.607 70.457 424.607 72.2539C424.607 74.0312 424.812 74.9199 425.223 74.9199C426.551 74.9199 429.109 72.7422 432.898 68.3867L442.391 57.0195C444.48 54.6172 445.867 53.25 446.551 52.918C446.746 52.8203 447.029 52.7715 447.4 52.7715C447.771 52.7715 448.182 52.8203 448.631 52.918C449.1 53.0156 449.568 53.1426 450.037 53.2988C450.525 53.4551 450.994 53.6406 451.443 53.8555C451.893 54.0703 452.293 54.2949 452.645 54.5293C453.406 55.0371 453.777 55.457 453.758 55.7891C453.758 56.1016 453.68 56.7949 453.523 57.8691C453.367 58.9238 453.172 60.2129 452.938 61.7363C451.316 71.834 450.467 77.6934 450.389 79.3145C450.33 80.9355 450.496 81.9512 450.887 82.3613C451.297 82.7715 451.893 82.9766 452.674 82.9766C454.1 82.9766 456.17 82.127 458.885 80.4277C460.721 79.2754 462.234 78.6992 463.426 78.6992C464.637 78.6992 465.242 79.2754 465.242 80.4277C465.242 81.6191 464.598 83.0645 463.309 84.7637C461.453 87.2246 458.68 89.4512 454.988 91.4434C451.883 93.1035 448.934 93.9336 446.141 93.9336C441.57 93.9336 439.285 90.916 439.285 84.8809ZM517.068 69.998C517.693 69.998 518.006 70.5254 518.006 71.5801C518.006 73.3965 516.736 75.75 514.197 78.6406L512.527 80.3398C507.469 85.3984 502.703 88.7676 498.23 90.4473C495.457 91.4824 493.465 91.4336 492.254 90.3008C491.258 89.3438 490.467 87.8008 489.881 85.6719L489.178 83.123L482.938 86.9609L479.334 89.0117C475.037 91.3555 471.814 92.5273 469.666 92.5273C466.912 92.5273 464.617 91.4629 462.781 89.334C461.023 87.3223 460.145 84.9883 460.145 82.332C460.145 79.7148 461.189 77.3809 463.279 75.3301C466.268 72.4004 470.984 69.7148 477.43 67.2734C483.523 64.9883 488.445 63.8457 492.195 63.8457C493.465 63.8457 494.1 64.4707 494.1 65.7207C494.1 66.5801 493.934 67.2246 493.602 67.6543C493.27 68.084 492.586 68.5234 491.551 68.9727L487.859 70.5547C482.391 72.8398 478.387 75.2129 475.848 77.6738C475.125 78.3574 474.764 79.0215 474.764 79.666C474.764 80.3105 475.281 80.6328 476.316 80.6328C477.332 80.6328 479.695 79.5391 483.406 77.3516L485.838 75.916C489.607 73.6504 492.762 72.5176 495.301 72.5176C497.449 72.5176 498.875 73.4648 499.578 75.3594C499.754 75.8672 499.92 76.3848 500.076 76.9121C500.232 77.4199 500.389 77.8789 500.545 78.2891C500.896 79.2461 501.209 79.7246 501.482 79.7246C501.775 79.7246 502.186 79.5879 502.713 79.3145C503.24 79.0215 503.816 78.6602 504.441 78.2305C505.086 77.7812 505.75 77.293 506.434 76.7656L509.979 73.9238C513.123 71.3066 515.486 69.998 517.068 69.998ZM561.893 69.998C562.518 69.998 562.83 70.5254 562.83 71.5801C562.83 73.3965 561.561 75.75 559.021 78.6406L557.352 80.3398C552.293 85.3984 547.527 88.7676 543.055 90.4473C540.281 91.4824 538.289 91.4336 537.078 90.3008C536.082 89.3438 535.291 87.8008 534.705 85.6719L534.002 83.123L527.762 86.9609L524.158 89.0117C519.861 91.3555 516.639 92.5273 514.49 92.5273C511.736 92.5273 509.441 91.4629 507.605 89.334C505.848 87.3223 504.969 84.9883 504.969 82.332C504.969 79.7148 506.014 77.3809 508.104 75.3301C511.092 72.4004 515.809 69.7148 522.254 67.2734C528.348 64.9883 533.27 63.8457 537.02 63.8457C538.289 63.8457 538.924 64.4707 538.924 65.7207C538.924 66.5801 538.758 67.2246 538.426 67.6543C538.094 68.084 537.41 68.5234 536.375 68.9727L532.684 70.5547C527.215 72.8398 523.211 75.2129 520.672 77.6738C519.949 78.3574 519.588 79.0215 519.588 79.666C519.588 80.3105 520.105 80.6328 521.141 80.6328C522.156 80.6328 524.52 79.5391 528.23 77.3516L530.662 75.916C534.432 73.6504 537.586 72.5176 540.125 72.5176C542.273 72.5176 543.699 73.4648 544.402 75.3594C544.578 75.8672 544.744 76.3848 544.9 76.9121C545.057 77.4199 545.213 77.8789 545.369 78.2891C545.721 79.2461 546.033 79.7246 546.307 79.7246C546.6 79.7246 547.01 79.5879 547.537 79.3145C548.064 79.0215 548.641 78.6602 549.266 78.2305C549.91 77.7812 550.574 77.293 551.258 76.7656L554.803 73.9238C557.947 71.3066 560.311 69.998 561.893 69.998ZM606.717 69.998C607.342 69.998 607.654 70.5254 607.654 71.5801C607.654 73.3965 606.385 75.75 603.846 78.6406L602.176 80.3398C597.117 85.3984 592.352 88.7676 587.879 90.4473C585.105 91.4824 583.113 91.4336 581.902 90.3008C580.906 89.3438 580.115 87.8008 579.529 85.6719L578.826 83.123L572.586 86.9609L568.982 89.0117C564.686 91.3555 561.463 92.5273 559.314 92.5273C556.561 92.5273 554.266 91.4629 552.43 89.334C550.672 87.3223 549.793 84.9883 549.793 82.332C549.793 79.7148 550.838 77.3809 552.928 75.3301C555.916 72.4004 560.633 69.7148 567.078 67.2734C573.172 64.9883 578.094 63.8457 581.844 63.8457C583.113 63.8457 583.748 64.4707 583.748 65.7207C583.748 66.5801 583.582 67.2246 583.25 67.6543C582.918 68.084 582.234 68.5234 581.199 68.9727L577.508 70.5547C572.039 72.8398 568.035 75.2129 565.496 77.6738C564.773 78.3574 564.412 79.0215 564.412 79.666C564.412 80.3105 564.93 80.6328 565.965 80.6328C566.98 80.6328 569.344 79.5391 573.055 77.3516L575.486 75.916C579.256 73.6504 582.41 72.5176 584.949 72.5176C587.098 72.5176 588.523 73.4648 589.227 75.3594C589.402 75.8672 589.568 76.3848 589.725 76.9121C589.881 77.4199 590.037 77.8789 590.193 78.2891C590.545 79.2461 590.857 79.7246 591.131 79.7246C591.424 79.7246 591.834 79.5879 592.361 79.3145C592.889 79.0215 593.465 78.6602 594.09 78.2305C594.734 77.7812 595.398 77.293 596.082 76.7656L599.627 73.9238C602.771 71.3066 605.135 69.998 606.717 69.998ZM651.541 69.998C652.166 69.998 652.479 70.5254 652.479 71.5801C652.479 73.3965 651.209 75.75 648.67 78.6406L647 80.3398C641.941 85.3984 637.176 88.7676 632.703 90.4473C629.93 91.4824 627.938 91.4336 626.727 90.3008C625.73 89.3438 624.939 87.8008 624.354 85.6719L623.65 83.123L617.41 86.9609L613.807 89.0117C609.51 91.3555 606.287 92.5273 604.139 92.5273C601.385 92.5273 599.09 91.4629 597.254 89.334C595.496 87.3223 594.617 84.9883 594.617 82.332C594.617 79.7148 595.662 77.3809 597.752 75.3301C600.74 72.4004 605.457 69.7148 611.902 67.2734C617.996 64.9883 622.918 63.8457 626.668 63.8457C627.938 63.8457 628.572 64.4707 628.572 65.7207C628.572 66.5801 628.406 67.2246 628.074 67.6543C627.742 68.084 627.059 68.5234 626.023 68.9727L622.332 70.5547C616.863 72.8398 612.859 75.2129 610.32 77.6738C609.598 78.3574 609.236 79.0215 609.236 79.666C609.236 80.3105 609.754 80.6328 610.789 80.6328C611.805 80.6328 614.168 79.5391 617.879 77.3516L620.311 75.916C624.08 73.6504 627.234 72.5176 629.773 72.5176C631.922 72.5176 633.348 73.4648 634.051 75.3594C634.227 75.8672 634.393 76.3848 634.549 76.9121C634.705 77.4199 634.861 77.8789 635.018 78.2891C635.369 79.2461 635.682 79.7246 635.955 79.7246C636.248 79.7246 636.658 79.5879 637.186 79.3145C637.713 79.0215 638.289 78.6602 638.914 78.2305C639.559 77.7812 640.223 77.293 640.906 76.7656L644.451 73.9238C647.596 71.3066 649.959 69.998 651.541 69.998ZM696.365 69.998C696.99 69.998 697.303 70.5254 697.303 71.5801C697.303 73.3965 696.033 75.75 693.494 78.6406L691.824 80.3398C686.766 85.3984 682 88.7676 677.527 90.4473C674.754 91.4824 672.762 91.4336 671.551 90.3008C670.555 89.3438 669.764 87.8008 669.178 85.6719L668.475 83.123L662.234 86.9609L658.631 89.0117C654.334 91.3555 651.111 92.5273 648.963 92.5273C646.209 92.5273 643.914 91.4629 642.078 89.334C640.32 87.3223 639.441 84.9883 639.441 82.332C639.441 79.7148 640.486 77.3809 642.576 75.3301C645.564 72.4004 650.281 69.7148 656.727 67.2734C662.82 64.9883 667.742 63.8457 671.492 63.8457C672.762 63.8457 673.396 64.4707 673.396 65.7207C673.396 66.5801 673.23 67.2246 672.898 67.6543C672.566 68.084 671.883 68.5234 670.848 68.9727L667.156 70.5547C661.688 72.8398 657.684 75.2129 655.145 77.6738C654.422 78.3574 654.061 79.0215 654.061 79.666C654.061 80.3105 654.578 80.6328 655.613 80.6328C656.629 80.6328 658.992 79.5391 662.703 77.3516L665.135 75.916C668.904 73.6504 672.059 72.5176 674.598 72.5176C676.746 72.5176 678.172 73.4648 678.875 75.3594C679.051 75.8672 679.217 76.3848 679.373 76.9121C679.529 77.4199 679.686 77.8789 679.842 78.2891C680.193 79.2461 680.506 79.7246 680.779 79.7246C681.072 79.7246 681.482 79.5879 682.01 79.3145C682.537 79.0215 683.113 78.6602 683.738 78.2305C684.383 77.7812 685.047 77.293 685.73 76.7656L689.275 73.9238C692.42 71.3066 694.783 69.998 696.365 69.998ZM693.992 67.3027C692.742 67.3027 692.117 66.707 692.117 65.5156C692.117 64.9688 692.4 63.9824 692.967 62.5566C693.533 61.1113 694.021 59.9883 694.432 59.1875C695.369 57.3125 696.326 56.0137 697.303 55.291C698.865 54.1387 704.969 53.0938 715.613 52.1562C720.242 51.7656 723.611 51.5703 725.721 51.5703C727.83 51.5703 729.324 51.5996 730.203 51.6582C731.102 51.7168 732.029 51.8242 732.986 51.9805C733.943 52.1172 734.9 52.3027 735.857 52.5371C736.814 52.752 737.723 53.0254 738.582 53.3574C740.438 54.0801 741.736 54.9785 742.479 56.0527C744.803 59.4316 745.965 62.1855 745.965 64.3145C745.965 66.6973 744.148 69.0312 740.516 71.3164C739.422 72.0195 738.25 72.7227 737 73.4258C732.449 75.8867 729.783 77.3418 729.002 77.791C730.643 80.9746 733.855 84.2656 738.641 87.6641C739.207 88.0547 739.656 88.3477 739.988 88.543C741.453 89.4023 743.182 89.2656 745.174 88.1328C745.721 87.8008 746.277 87.6348 746.844 87.6348C747.41 87.6348 747.908 87.8496 748.338 88.2793C748.768 88.6895 748.982 89.1484 748.982 89.6562C748.982 91.9805 747.43 94.4805 744.324 97.1562C742.02 99.1484 739.939 100.145 738.084 100.145C736.58 100.145 733.309 97.9375 728.27 93.5234C725.418 91.0234 723.104 88.7871 721.326 86.8145C719.549 84.8418 718.328 83.377 717.664 82.4199C717 81.4434 716.668 80.6035 716.668 79.9004C716.668 79.1973 716.834 78.5723 717.166 78.0254C717.518 77.4785 717.986 76.9512 718.572 76.4434C719.49 75.6621 720.799 74.832 722.498 73.9531C724.197 73.0547 725.584 72.2051 726.658 71.4043C727.732 70.6035 728.66 69.7734 729.441 68.9141C731.16 67.0977 732.02 65.457 732.02 63.9922C732.02 63.0352 731.727 62.2344 731.141 61.5898C730.066 60.4375 729.07 59.8613 728.152 59.8613C726.57 59.8613 724.637 59.9688 722.352 60.1836L718.777 66.5117C714.227 74.7734 711.121 82.2148 709.461 88.8359C708.797 91.4141 706.287 92.7031 701.932 92.7031C698.338 92.7031 696.043 91.8633 695.047 90.1836C694.715 89.6172 694.588 89.0703 694.666 88.543C694.764 87.9961 695.027 87.293 695.457 86.4336C695.887 85.5547 696.473 84.4609 697.215 83.1523L699.822 78.6992L703.016 73.4551L706.619 67.8008L710.369 62.1758C703.553 63.6406 698.582 65.2227 695.457 66.9219C694.988 67.1758 694.5 67.3027 693.992 67.3027ZM795.535 52.1562C798.406 52.1562 799.842 52.9473 799.842 54.5293C799.842 55.8965 798.758 57.8984 796.59 60.5352C796.316 60.8672 795.73 61.4336 794.832 62.2344L791.492 65.2227L781.531 73.5137C782.02 74.3926 782.85 75.4473 784.021 76.6777C785.193 77.9082 786.238 78.9141 787.156 79.6953C789.148 81.4531 790.359 82.332 790.789 82.332C791.238 82.332 791.795 82.166 792.459 81.834C793.143 81.502 793.904 81.0723 794.744 80.5449C795.584 79.998 796.473 79.3828 797.41 78.6992L804.793 73.1035C805.496 72.5566 806.199 72.2832 806.902 72.2832C808.367 72.2832 809.1 72.8887 809.1 74.0996C809.1 75.6816 808.328 77.5273 806.785 79.6367C806.316 80.2617 805.867 80.7891 805.438 81.2188L803.592 82.918C798.24 87.8203 793.484 91.0625 789.324 92.6445C788.035 93.1523 786.883 93.4062 785.867 93.4062C784.852 93.4062 783.875 93.2305 782.938 92.8789C782 92.5273 781.072 92.0586 780.154 91.4727C779.236 90.8867 778.338 90.2129 777.459 89.4512C776.6 88.6699 775.779 87.8496 774.998 86.9902C773.572 85.4277 772.244 83.709 771.014 81.834L765.623 85.8477C759.881 90.0273 756.375 92.1172 755.105 92.1172C753.738 92.1172 752.42 91.7266 751.15 90.9453C750.779 90.7305 750.525 90.4961 750.389 90.2422C749.666 89.5195 749.305 88.0352 749.305 85.7891C749.305 83.543 749.49 81.541 749.861 79.7832C750.213 78.0059 750.691 76.2188 751.297 74.4219C751.902 72.6055 752.605 70.8086 753.406 69.0312C754.207 67.2539 755.047 65.5547 755.926 63.9336C756.805 62.3125 757.703 60.8086 758.621 59.4219C759.539 58.0156 760.418 56.8047 761.258 55.7891C763.016 53.6016 764.334 52.5078 765.213 52.5078C766.111 52.5078 767.01 52.5859 767.908 52.7422C768.807 52.8984 769.617 53.1328 770.34 53.4453C771.98 54.1875 772.801 55.1934 772.801 56.4629C772.801 57.2246 772.498 58.0449 771.893 58.9238C771.287 59.8027 770.613 60.8379 769.871 62.0293C767.879 65.3691 766.492 67.7422 765.711 69.1484L763.748 72.8398C762.596 75.1055 762.02 76.502 762.02 77.0293C762.02 77.4785 762.391 77.7031 763.133 77.7031C763.426 77.7031 764.5 76.9023 766.355 75.3008L771.277 71.0234L786.658 56.9609C787.4 56.2773 787.83 55.877 787.947 55.7598C789.139 54.5488 790.408 53.6504 791.756 53.0645C793.123 52.459 794.383 52.1562 795.535 52.1562ZM811.355 91.209C809.852 90.5449 808.67 89.7148 807.811 88.7188C806.971 87.7227 806.414 86.7852 806.141 85.9062C805.711 84.5977 805.496 83.4746 805.496 82.5371C805.496 81.5996 805.799 80.5254 806.404 79.3145C807.029 78.1035 808.055 76.9023 809.48 75.7109C812.605 73.1133 817.4 70.8867 823.865 69.0312C821.795 68.1523 820.613 66.7559 820.32 64.8418C820.027 62.6543 820.965 60.7109 823.133 59.0117C827.137 55.8672 834.832 53.7383 846.219 52.625C849.734 52.293 852.283 52.127 853.865 52.127C855.467 52.127 856.6 52.3809 857.264 52.8887C857.947 53.3965 858.348 54.1582 858.465 55.1738C858.602 56.1699 858.416 57.0098 857.908 57.6934C857.4 58.377 856.678 58.9238 855.74 59.334C854.002 60.0957 851.629 60.4766 848.621 60.4766C846.414 60.4766 844.402 60.1445 842.586 59.4805C842.098 59.2852 841.717 59.0801 841.443 58.8652C837.537 60.0762 835.32 61.4336 834.793 62.9375C834.637 63.3281 834.578 63.6895 834.617 64.0215C834.793 65.2129 835.574 66.0918 836.961 66.6582C838.348 67.2246 840.457 67.5859 843.289 67.7422C844.227 67.8203 844.92 68.0742 845.369 68.5039C845.838 68.9336 846.102 69.3828 846.16 69.8516C846.238 70.3203 846.209 70.6914 846.072 70.9648C845.936 71.2188 845.73 71.4336 845.457 71.6094C844.988 71.9219 844.061 72.1855 842.674 72.4004C841.287 72.6152 839.676 72.918 837.84 73.3086C836.004 73.6797 834.256 74.0801 832.596 74.5098C830.936 74.9395 829.393 75.3789 827.967 75.8281C826.561 76.2773 825.34 76.707 824.305 77.1172C822.117 78.0352 821.062 78.7773 821.141 79.3438C821.219 79.8906 821.443 80.3691 821.814 80.7793C822.186 81.1895 822.684 81.5508 823.309 81.8633C824.48 82.4102 825.906 82.7617 827.586 82.918C829.285 83.0547 830.926 83.123 832.508 83.123C834.109 83.123 835.818 82.9961 837.635 82.7422C839.471 82.4688 841.18 82.127 842.762 81.7168C844.363 81.3066 845.828 80.877 847.156 80.4277C848.504 79.959 849.676 79.5195 850.672 79.1094L853.074 78.1133C853.699 77.8398 854.266 77.7031 854.773 77.7031C856.121 77.7031 856.883 78.416 857.059 79.8418C857.293 81.7754 855.125 83.9531 850.555 86.375C844.441 89.6367 837.684 91.7656 830.281 92.7617C828.562 92.9961 826.492 93.1133 824.07 93.1133C821.668 93.1133 819.324 92.957 817.039 92.6445C814.754 92.332 812.859 91.8535 811.355 91.209ZM912.957 51.5117C914.266 51.5117 914.92 51.9707 914.92 52.8887C914.92 54.0605 914.012 55.7305 912.195 57.8984L911.639 58.543C910.037 60.4961 908.006 61.834 905.545 62.5566C904.686 62.8105 903.982 62.9375 903.436 62.9375C902.732 62.9375 902.186 62.918 901.795 62.8789C901.404 62.8398 900.838 62.791 900.096 62.7324L897.605 62.5273C895.496 62.3906 893.387 62.2637 891.277 62.1465C887.391 65.9551 884.09 70.1055 881.375 74.5977C880.379 76.2578 879.881 77.2832 879.881 77.6738C879.881 79.5488 880.506 80.877 881.756 81.6582C883.025 82.4395 884.725 82.8301 886.854 82.8301C889.002 82.8301 890.828 82.7227 892.332 82.5078C893.855 82.2734 895.281 81.9902 896.609 81.6582C897.957 81.3066 899.197 80.9258 900.33 80.5156C901.482 80.0859 902.488 79.6855 903.348 79.3145C904.227 78.9434 904.949 78.6113 905.516 78.3184L906.658 77.7324C907.264 77.5762 907.83 77.6445 908.357 77.9375C909.295 78.5039 909.764 79.1484 909.764 79.8711C909.764 80.5938 909.344 81.3164 908.504 82.0391C901.727 87.8789 894.021 91.4238 885.389 92.6738C882.576 93.084 879.91 93.2891 877.391 93.2891C874.871 93.2891 872.898 93.1523 871.473 92.8789C870.066 92.625 868.885 92.2734 867.928 91.8242C866.99 91.375 866.248 90.8574 865.701 90.2715C865.154 89.666 864.744 89.0312 864.471 88.3672C864.061 87.3711 863.855 86.209 863.855 84.8809C863.855 83.5332 864.041 82.4297 864.412 81.5703C864.803 80.7109 865.281 79.8809 865.848 79.0801C866.414 78.2793 867.029 77.4883 867.693 76.707C868.377 75.9258 868.924 75.2422 869.334 74.6562C869.764 74.0703 870.242 73.4844 870.77 72.8984C873.777 69.7734 875.799 67.7031 876.834 66.6875L881.873 61.8828C878.787 61.8828 876.639 62.0488 875.428 62.3809C874.236 62.6934 873.211 62.9863 872.352 63.2598C871.512 63.5332 870.652 63.8262 869.773 64.1387C868.895 64.4512 868.094 64.7539 867.371 65.0469C865.711 65.7109 864.734 66.1699 864.441 66.4238C864.148 66.6582 863.787 66.7754 863.357 66.7754C862.928 66.7754 862.527 66.707 862.156 66.5703C861.805 66.4141 861.482 66.1992 861.189 65.9258C860.545 65.3594 860.223 64.7344 860.223 64.0508C860.223 63.3477 860.447 62.6641 860.896 62C861.365 61.3359 862.078 60.584 863.035 59.7441C863.992 58.8848 864.979 58.0547 865.994 57.2539L868.777 55.0566C869.637 54.373 870.213 53.8164 870.506 53.3867C871.365 52.1367 873.426 51.2969 876.688 50.8672C877.625 50.7305 878.582 50.6621 879.559 50.6621C880.555 50.6621 881.902 50.7402 883.602 50.8965C885.32 51.0527 887.371 51.2188 889.754 51.3945C896.121 51.9023 900.799 52.1562 903.787 52.1562C906.795 52.1562 908.514 52.1172 908.943 52.0391L910.262 51.834C911.531 51.6191 912.43 51.5117 912.957 51.5117Z" fill="white"/>
</svg>
